Banana-Outline-Regular.ufo
<glyph name="exclam" format="2">
  <advance width="186"/>
  <unicode hex="0021"/>
  <outline>
    <contour>
      <point x="104" y="147" type="curve" smooth="yes"/>
      <point x="136.679" y="147"/>
      <point x="163" y="107.204"/>
      <point x="163" y="46" type="curve" smooth="yes"/>
      <point x="163" y="-13.647"/>
      <point x="137.006" y="-55"/>
      <point x="104" y="-55" type="curve" smooth="yes"/>
      <point x="72.5452" y="-55"/>
      <point x="45" y="-14.5804"/>
      <point x="45" y="46" type="curve" smooth="yes"/>
      <point x="45" y="108.128"/>
      <point x="72.8746" y="147"/>
    </contour>
    <contour>
      <point x="104" y="47" type="line"/>
      <point x="101.405" y="47"/>
      <point x="99.5989" y="46.3759"/>
      <point x="98.9226" y="46.0347" type="curve"/>
      <point x="99.4782" y="45.7458"/>
      <point x="101.188" y="45"/>
      <point x="104" y="45" type="curve" smooth="yes"/>
      <point x="106.804" y="45"/>
      <point x="108.702" y="45.6672"/>
      <point x="109.419" y="46.0339" type="curve"/>
      <point x="109.339" y="46.0739"/>
      <point x="108.466" y="46.528"/>
      <point x="106.561" y="46.8152" type="curve"/>
    </contour>
    <contour>
      <point x="36.3402" y="222.22" type="line"/>
      <point x="38.6171" y="249.543"/>
      <point x="51.4484" y="267.874"/>
      <point x="65.1099" y="263.32" type="curve" smooth="yes"/>
      <point x="75.3599" y="259.903"/>
      <point x="83.0483" y="244.592"/>
      <point x="85.2091" y="226.446" type="curve"/>
      <point x="86.2827" y="225.474"/>
      <point x="92.9682" y="221.207"/>
      <point x="102" y="221.96" type="curve" smooth="yes"/>
      <point x="112.258" y="222.749"/>
      <point x="117.864" y="228.543"/>
      <point x="119.971" y="232.077" type="curve"/>
      <point x="119.971" y="379.201"/>
      <point x="36" y="449.958"/>
      <point x="36" y="644" type="curve" smooth="yes"/>
      <point x="36" y="711.378"/>
      <point x="74.3011" y="747.829"/>
      <point x="102" y="749.96" type="curve" smooth="yes"/>
      <point x="130.658" y="752.348"/>
      <point x="168.61" y="731.079"/>
      <point x="170.104" y="664.429" type="curve"/>
      <point x="169.661" y="649.78" type="line"/>
      <point x="167.384" y="622.457"/>
      <point x="154.552" y="604.126"/>
      <point x="140.891" y="608.68" type="curve" smooth="yes"/>
      <point x="130.641" y="612.097"/>
      <point x="122.953" y="627.408"/>
      <point x="120.792" y="645.554" type="curve"/>
      <point x="119.718" y="646.526"/>
      <point x="113.033" y="650.793"/>
      <point x="104.002" y="650.04" type="curve" smooth="yes"/>
      <point x="93.7439" y="649.251"/>
      <point x="88.1373" y="643.457"/>
      <point x="86.0309" y="639.923" type="curve"/>
      <point x="86.0309" y="492.799"/>
      <point x="170" y="422.042"/>
      <point x="170" y="228" type="curve" smooth="yes"/>
      <point x="170" y="160.622"/>
      <point x="131.699" y="124.171"/>
      <point x="104" y="122.04" type="curve" smooth="yes"/>
      <point x="75.3425" y="119.652"/>
      <point x="37.3898" y="140.921"/>
      <point x="35.896" y="207.571" type="curve"/>
    </contour>
  </outline>
</glyph>
<glyph name="dollar" format="2">
  <advance width="572"/>
  <unicode hex="0024"/>
  <outline>
    <component base="S"/>
    <contour>
      <point x="315.754" y="-70.3619" type="line" smooth="yes"/>
      <point x="315.654" y="-98.0612"/>
      <point x="304.424" y="-120.199"/>
      <point x="290.574" y="-119.999" type="curve" smooth="yes"/>
      <point x="276.724" y="-119.798"/>
      <point x="265.655" y="-97.3374"/>
      <point x="265.756" y="-69.6381" type="curve" smooth="yes"/>
      <point x="268.822" y="777.686" type="line" smooth="yes"/>
      <point x="268.923" y="805.385"/>
      <point x="280.153" y="827.523"/>
      <point x="294.003" y="827.323" type="curve" smooth="yes"/>
      <point x="307.852" y="827.122"/>
      <point x="318.921" y="804.661"/>
      <point x="318.821" y="776.962" type="curve" smooth="yes"/>
    </contour>
  </outline>
</glyph>
<glyph name="percent" format="2">
  <advance width="661"/>
  <unicode hex="0025"/>
  <outline>
    <contour>
      <point x="493.019" y="-48.3621" type="curve" smooth="yes"/>
      <point x="426.294" y="-26.8379"/>
      <point x="361.594" y="35.0632"/>
      <point x="360.009" y="139.649" type="curve" smooth="yes"/>
      <point x="358.385" y="259.844"/>
      <point x="425.028" y="332.044"/>
      <point x="497.373" y="330.994" type="curve" smooth="yes"/>
      <point x="567.883" y="328.89"/>
      <point x="632.395" y="257.251"/>
      <point x="634" y="141" type="curve"/>
      <point x="634" y="23.5625"/>
      <point x="568.523" y="-49"/>
      <point x="496.937" y="-49" type="curve" smooth="yes"/>
      <point x="405.184" y="-48.0732"/>
      <point x="286.825" y="56.1657"/>
      <point x="268.572" y="-20.497" type="curve"/>
      <point x="223.443" y="22.5565" type="line"/>
      <point x="390.443" y="721.556" type="line" smooth="yes"/>
      <point x="402.34" y="771.355"/>
      <point x="447.427" y="728.377"/>
      <point x="435.578" y="678.532" type="curve" smooth="yes"/>
      <point x="395.727" y="510.883"/>
      <point x="262.674" y="650"/>
      <point x="162" y="650" type="curve" smooth="yes"/>
      <point x="97.5233" y="650"/>
      <point x="75" y="588.563"/>
      <point x="75" y="560" type="curve" smooth="yes"/>
      <point x="75" y="532.812"/>
      <point x="97.2137" y="471.954"/>
      <point x="162.362" y="470.995" type="curve" smooth="yes"/>
      <point x="227.191" y="469.116"/>
      <point x="249" y="531.104"/>
      <point x="249" y="560" type="curve" smooth="yes"/>
      <point x="249" y="571.136"/>
      <point x="240.017" y="625.508"/>
      <point x="158.214" y="650.577" type="curve" smooth="yes"/>
      <point x="144.523" y="654.772"/>
      <point x="135.191" y="680.192"/>
      <point x="137.288" y="707.573" type="curve" smooth="yes"/>
      <point x="139.386" y="734.953"/>
      <point x="152.096" y="753.619"/>
      <point x="165.786" y="749.423" type="curve" smooth="yes"/>
      <point x="232.971" y="728.834"/>
      <point x="299" y="663.507"/>
      <point x="299" y="560" type="curve" smooth="yes"/>
      <point x="299" y="442.896"/>
      <point x="234.809" y="368.884"/>
      <point x="161.816" y="371.001" type="curve" smooth="yes"/>
      <point x="90.7863" y="372.046"/>
      <point x="25" y="443.188"/>
      <point x="25" y="560" type="curve" smooth="yes"/>
      <point x="25" y="677.437"/>
      <point x="90.4767" y="750"/>
      <point x="162" y="750" type="curve" smooth="yes"/>
      <point x="252.586" y="750"/>
      <point x="373.189" y="648.971"/>
      <point x="390.422" y="721.468" type="curve"/>
      <point x="435.557" y="678.443" type="line"/>
      <point x="268.557" y="-20.5568" type="line" smooth="yes"/>
      <point x="256.66" y="-70.3553"/>
      <point x="211.564" y="-27.3335"/>
      <point x="223.428" y="22.4967" type="curve" smooth="yes"/>
      <point x="264.269" y="194.026"/>
      <point x="397.241" y="52.008"/>
      <point x="497.063" y="51" type="curve" smooth="yes"/>
      <point x="555.938" y="51"/>
      <point x="583.991" y="110.26"/>
      <point x="583.991" y="140.308" type="curve" smooth="yes"/>
      <point x="583.713" y="160.373"/>
      <point x="570.507" y="228.801"/>
      <point x="496.723" y="231.004" type="curve" smooth="yes"/>
      <point x="437.34" y="231.864"/>
      <point x="409.591" y="171.957"/>
      <point x="409.99" y="142.433" type="curve" smooth="yes"/>
      <point x="410.222" y="127.122"/>
      <point x="423.356" y="75.4028"/>
      <point x="500.981" y="50.3624" type="curve" smooth="yes"/>
      <point x="514.654" y="45.9516"/>
      <point x="523.886" y="20.3853"/>
      <point x="521.681" y="-6.96132" type="curve" smooth="yes"/>
      <point x="519.476" y="-34.3079"/>
      <point x="506.692" y="-52.7725"/>
    </contour>
  </outline>
</glyph>
<glyph name="ampersand" format="2">
  <advance width="689"/>
  <unicode hex="0026"/>
  <outline>
    <contour>
      <point x="651.318" y="43.5093" type="line" smooth="yes"/>
      <point x="663.37" y="29.861"/>
      <point x="667.579" y="-0.531908"/>
      <point x="660.755" y="-24.6361" type="curve" smooth="yes"/>
      <point x="653.93" y="-48.7403"/>
      <point x="638.734" y="-57.1577"/>
      <point x="626.682" y="-43.5093" type="curve" smooth="yes"/>
      <point x="173.98" y="469.153" type="line"/>
      <point x="90.9021" y="552.231"/>
      <point x="130.537" y="746.259"/>
      <point x="268.926" y="757.954" type="curve" smooth="yes"/>
      <point x="355.836" y="765.558"/>
      <point x="445.407" y="694.026"/>
      <point x="433.62" y="559.321" type="curve" smooth="yes"/>
      <point x="414.284" y="341.458"/>
      <point x="159.632" y="378.164"/>
      <point x="90.9402" y="252.229" type="curve" smooth="yes"/>
      <point x="27.1707" y="134.111"/>
      <point x="193.526" y="-2.47567"/>
      <point x="348.135" y="59.044" type="curve" smooth="yes"/>
      <point x="463.738" y="104.918"/>
      <point x="496" y="232.431"/>
      <point x="496" y="345" type="curve" smooth="yes"/>
      <point x="496" y="372.7"/>
      <point x="507.15" y="395"/>
      <point x="521" y="395" type="curve" smooth="yes"/>
      <point x="534.85" y="395"/>
      <point x="546" y="372.7"/>
      <point x="546" y="345" type="curve" smooth="yes"/>
      <point x="546" y="179.569"/>
      <point x="494.262" y="15.0816"/>
      <point x="357.872" y="-39.0414" type="curve" smooth="yes"/>
      <point x="131.485" y="-129.122"/>
      <point x="-51.8848" y="123.976"/>
      <point x="57.0598" y="325.771" type="curve" smooth="yes"/>
      <point x="130.135" y="459.742"/>
      <point x="374.005" y="459.793"/>
      <point x="384.38" y="576.679" type="curve" smooth="yes"/>
      <point x="386.113" y="596.494"/>
      <point x="373.279" y="666.989"/>
      <point x="271.074" y="658.046" type="curve" smooth="yes"/>
      <point x="236.275" y="655.105"/>
      <point x="146.832" y="607.208"/>
      <point x="197.722" y="557.184" type="curve"/>
    </contour>
    <contour>
      <point x="417.083" y="286.781" type="curve" smooth="yes"/>
      <point x="389.234" y="360.2"/>
      <point x="451.117" y="425.756"/>
      <point x="480.139" y="422.948" type="curve" smooth="yes"/>
      <point x="520.722" y="419.469"/>
      <point x="534.93" y="369.338"/>
      <point x="564.022" y="366.958" type="curve" smooth="yes"/>
      <point x="570.381" y="366.438"/>
      <point x="575.956" y="368.047"/>
      <point x="580.053" y="370.52" type="curve"/>
      <point x="579.831" y="373.746"/>
      <point x="579.327" y="396.244"/>
      <point x="589.555" y="412.316" type="curve" smooth="yes"/>
      <point x="600.445" y="429.43"/>
      <point x="616.101" y="425.672"/>
      <point x="624.658" y="403.891" type="curve" smooth="yes"/>
      <point x="654.187" y="328.726"/>
      <point x="583.007" y="265.322"/>
      <point x="561.978" y="267.042" type="curve" smooth="yes"/>
      <point x="518.676" y="270.584"/>
      <point x="503.018" y="320.896"/>
      <point x="477.861" y="323.052" type="curve" smooth="yes"/>
      <point x="471.256" y="323.691"/>
      <point x="465.893" y="322.293"/>
      <point x="461.923" y="320.12" type="curve"/>
      <point x="462.403" y="312.154"/>
      <point x="461.442" y="291.324"/>
      <point x="452.11" y="277.165" type="curve" smooth="yes"/>
      <point x="441.076" y="260.424"/>
      <point x="425.454" y="264.712"/>
    </contour>
  </outline>
</glyph>
<glyph name="quotesingle" format="2">
  <advance width="229"/>
  <unicode hex="0027"/>
  <outline>
    <contour>
      <point x="109.965" y="689.438" type="curve"/>
      <point x="110.191" y="689.553"/>
      <point x="111.915" y="690.223"/>
      <point x="114.628" y="690.223" type="curve" smooth="yes"/>
      <point x="117.341" y="690.223"/>
      <point x="119.065" y="689.553"/>
      <point x="119.291" y="689.438" type="curve"/>
      <point x="119.065" y="689.322"/>
      <point x="117.341" y="688.653"/>
      <point x="114.628" y="688.653" type="curve" smooth="yes"/>
      <point x="111.915" y="688.653"/>
      <point x="110.191" y="689.322"/>
    </contour>
    <contour>
      <point x="56.1099" y="689.438" type="curve" smooth="yes"/>
      <point x="56.1099" y="629.235"/>
      <point x="82.3723" y="588.653"/>
      <point x="114.628" y="588.653" type="curve" smooth="yes"/>
      <point x="146.883" y="588.653"/>
      <point x="173.146" y="629.235"/>
      <point x="173.146" y="689.438" type="curve" smooth="yes"/>
      <point x="173.146" y="749.643"/>
      <point x="146.883" y="790.223"/>
      <point x="114.628" y="790.223" type="curve" smooth="yes"/>
      <point x="82.3727" y="790.223"/>
      <point x="56.1099" y="749.643"/>
    </contour>
    <contour>
      <point x="173.146" y="689.438" type="curve" smooth="yes"/>
      <point x="173.146" y="717.138"/>
      <point x="161.996" y="739.438"/>
      <point x="148.146" y="739.438" type="curve" smooth="yes"/>
      <point x="134.296" y="739.438"/>
      <point x="123.146" y="717.138"/>
      <point x="123.146" y="689.438" type="curve" smooth="yes"/>
      <point x="123.146" y="632.545"/>
      <point x="106.117" y="568.577"/>
      <point x="66.1846" y="509.143" type="curve" smooth="yes"/>
      <point x="55.0737" y="492.605"/>
      <point x="52.7855" y="461.402"/>
      <point x="61.0541" y="439.18" type="curve" smooth="yes"/>
      <point x="69.3227" y="416.959"/>
      <point x="84.9243" y="412.382"/>
      <point x="96.0352" y="428.919" type="curve" smooth="yes"/>
      <point x="143.453" y="499.495"/>
      <point x="173.146" y="589.913"/>
    </contour>
  </outline>
</glyph>
<glyph name="parenright" format="2">
  <advance width="142"/>
  <unicode hex="0029"/>
  <outline>
    <contour>
      <point x="71.2481" y="-30.9068" type="curve" smooth="yes"/>
      <point x="62.4099" y="-52.2337"/>
      <point x="46.7101" y="-55.1726"/>
      <point x="36.0466" y="-37.4962" type="curve" smooth="yes"/>
      <point x="25.3832" y="-19.8199"/>
      <point x="23.9138" y="11.5799"/>
      <point x="32.7519" y="32.9068" type="curve" smooth="yes"/>
      <point x="75.8692" y="136.951"/>
      <point x="97" y="245.024"/>
      <point x="97" y="351" type="curve" smooth="yes"/>
      <point x="97" y="456.882"/>
      <point x="75.9059" y="563.961"/>
      <point x="32.7519" y="668.093" type="curve" smooth="yes"/>
      <point x="23.9137" y="689.42"/>
      <point x="25.3831" y="720.82"/>
      <point x="36.0466" y="738.496" type="curve" smooth="yes"/>
      <point x="46.71" y="756.173"/>
      <point x="62.4099" y="753.234"/>
      <point x="71.2481" y="731.907" type="curve" smooth="yes"/>
      <point x="120.094" y="614.039"/>
      <point x="147" y="485.118"/>
      <point x="147" y="351" type="curve" smooth="yes"/>
      <point x="147" y="216.976"/>
      <point x="120.131" y="87.0494"/>
    </contour>
  </outline>
</glyph>
<glyph name="asterisk" format="2">
  <advance width="522"/>
  <unicode hex="002A"/>
  <outline>
    <contour>
      <point x="235.869" y="759.313" type="line" smooth="yes"/>
      <point x="235.869" y="787.013"/>
      <point x="247.019" y="809.313"/>
      <point x="260.869" y="809.313" type="curve" smooth="yes"/>
      <point x="274.719" y="809.313"/>
      <point x="285.869" y="787.013"/>
      <point x="285.869" y="759.313" type="curve" smooth="yes"/>
      <point x="285.869" y="538.129" type="line" smooth="yes"/>
      <point x="285.869" y="510.429"/>
      <point x="274.719" y="488.129"/>
      <point x="260.869" y="488.129" type="curve" smooth="yes"/>
      <point x="247.019" y="488.129"/>
      <point x="235.869" y="510.429"/>
      <point x="235.869" y="538.129" type="curve" smooth="yes"/>
    </contour>
    <contour>
      <point x="256.86" y="587.482" type="curve" smooth="yes"/>
      <point x="467.218" y="655.831" type="line" smooth="yes"/>
      <point x="480.889" y="660.273"/>
      <point x="493.683" y="641.838"/>
      <point x="495.904" y="614.496" type="curve" smooth="yes"/>
      <point x="498.125" y="587.155"/>
      <point x="488.907" y="561.567"/>
      <point x="475.236" y="557.125" type="curve" smooth="yes"/>
      <point x="264.878" y="488.776" type="line" smooth="yes"/>
      <point x="251.207" y="484.334"/>
      <point x="238.413" y="502.769"/>
      <point x="236.192" y="530.111" type="curve" smooth="yes"/>
      <point x="233.971" y="557.452"/>
      <point x="243.189" y="583.04"/>
    </contour>
    <contour>
      <point x="54.519" y="655.831" type="curve" smooth="yes"/>
      <point x="264.878" y="587.482" type="line" smooth="yes"/>
      <point x="278.548" y="583.04"/>
      <point x="287.766" y="557.452"/>
      <point x="285.545" y="530.111" type="curve" smooth="yes"/>
      <point x="283.324" y="502.769"/>
      <point x="270.53" y="484.334"/>
      <point x="256.86" y="488.776" type="curve" smooth="yes"/>
      <point x="46.501" y="557.125" type="line" smooth="yes"/>
      <point x="32.8302" y="561.567"/>
      <point x="23.6125" y="587.155"/>
      <point x="25.8335" y="614.496" type="curve" smooth="yes"/>
      <point x="28.0545" y="641.838"/>
      <point x="40.8482" y="660.273"/>
    </contour>
    <contour>
      <point x="116.687" y="400.376" type="curve" smooth="yes"/>
      <point x="246.696" y="579.317" type="line" smooth="yes"/>
      <point x="258.105" y="595.021"/>
      <point x="273.611" y="589.293"/>
      <point x="281.463" y="566.474" type="curve" smooth="yes"/>
      <point x="289.315" y="543.656"/>
      <point x="286.451" y="512.643"/>
      <point x="275.042" y="496.94" type="curve" smooth="yes"/>
      <point x="145.033" y="317.998" type="line" smooth="yes"/>
      <point x="133.623" y="302.295"/>
      <point x="118.117" y="308.023"/>
      <point x="110.265" y="330.841" type="curve" smooth="yes"/>
      <point x="102.414" y="353.66"/>
      <point x="105.278" y="384.672"/>
    </contour>
    <contour>
      <point x="405.05" y="400.376" type="line" smooth="yes"/>
      <point x="416.46" y="384.672"/>
      <point x="419.324" y="353.66"/>
      <point x="411.472" y="330.841" type="curve" smooth="yes"/>
      <point x="403.62" y="308.023"/>
      <point x="388.114" y="302.295"/>
      <point x="376.705" y="317.998" type="curve" smooth="yes"/>
      <point x="246.696" y="496.94" type="line" smooth="yes"/>
      <point x="235.286" y="512.643"/>
      <point x="232.422" y="543.656"/>
      <point x="240.274" y="566.474" type="curve" smooth="yes"/>
      <point x="248.126" y="589.293"/>
      <point x="263.632" y="595.021"/>
      <point x="275.042" y="579.317" type="curve" smooth="yes"/>
    </contour>
  </outline>
</glyph>
<glyph name="plus" format="2">
  <advance width="572"/>
  <unicode hex="002B"/>
  <outline>
    <contour>
      <point x="304" y="0.3754" type="line" smooth="yes"/>
      <point x="304" y="-27.3246"/>
      <point x="292.85" y="-49.6246"/>
      <point x="279" y="-49.6246" type="curve" smooth="yes"/>
      <point x="265.15" y="-49.6246"/>
      <point x="254" y="-27.3246"/>
      <point x="254" y="0.3754" type="curve" smooth="yes"/>
      <point x="254" y="500.186" type="line" smooth="yes"/>
      <point x="254" y="527.886"/>
      <point x="265.15" y="550.186"/>
      <point x="279" y="550.186" type="curve" smooth="yes"/>
      <point x="292.85" y="550.186"/>
      <point x="304" y="527.886"/>
      <point x="304" y="500.186" type="curve" smooth="yes"/>
    </contour>
    <contour>
      <point x="529.625" y="299" type="line" smooth="yes"/>
      <point x="543.475" y="299"/>
      <point x="554.625" y="276.7"/>
      <point x="554.625" y="249" type="curve" smooth="yes"/>
      <point x="554.625" y="221.3"/>
      <point x="543.475" y="199"/>
      <point x="529.625" y="199" type="curve" smooth="yes"/>
      <point x="29.8141" y="199" type="line" smooth="yes"/>
      <point x="15.9641" y="199"/>
      <point x="4.81409" y="221.3"/>
      <point x="4.81409" y="249" type="curve" smooth="yes"/>
      <point x="4.81409" y="276.7"/>
      <point x="15.9641" y="299"/>
      <point x="29.8141" y="299" type="curve" smooth="yes"/>
    </contour>
  </outline>
</glyph>
<glyph name="comma" format="2">
  <advance width="268"/>
  <unicode hex="002C"/>
  <outline>
    <contour>
      <point x="137.965" y="44.4383" type="curve"/>
      <point x="138.191" y="44.5539"/>
      <point x="139.915" y="45.2233"/>
      <point x="142.628" y="45.2233" type="curve" smooth="yes"/>
      <point x="145.341" y="45.2233"/>
      <point x="147.065" y="44.5539"/>
      <point x="147.291" y="44.4383" type="curve"/>
      <point x="147.065" y="44.3227"/>
      <point x="145.341" y="43.6533"/>
      <point x="142.628" y="43.6533" type="curve" smooth="yes"/>
      <point x="139.915" y="43.6533"/>
      <point x="138.191" y="44.3227"/>
    </contour>
    <contour>
      <point x="84.11" y="44.4383" type="curve" smooth="yes"/>
      <point x="84.11" y="-15.7657"/>
      <point x="110.373" y="-56.3467"/>
      <point x="142.628" y="-56.3467" type="curve" smooth="yes"/>
      <point x="174.883" y="-56.3467"/>
      <point x="201.146" y="-15.7657"/>
      <point x="201.146" y="44.4383" type="curve" smooth="yes"/>
      <point x="201.146" y="104.642"/>
      <point x="174.883" y="145.223"/>
      <point x="142.628" y="145.223" type="curve" smooth="yes"/>
      <point x="110.373" y="145.223"/>
      <point x="84.11" y="104.642"/>
    </contour>
    <contour>
      <point x="201.146" y="44.4383" type="curve" smooth="yes"/>
      <point x="201.146" y="72.1383"/>
      <point x="189.996" y="94.4383"/>
      <point x="176.146" y="94.4383" type="curve" smooth="yes"/>
      <point x="162.296" y="94.4383"/>
      <point x="151.146" y="72.1383"/>
      <point x="151.146" y="44.4383" type="curve" smooth="yes"/>
      <point x="151.146" y="-12.4546"/>
      <point x="134.117" y="-76.4233"/>
      <point x="94.1847" y="-135.857" type="curve" smooth="yes"/>
      <point x="83.0738" y="-152.395"/>
      <point x="80.7856" y="-183.598"/>
      <point x="89.0542" y="-205.82" type="curve" smooth="yes"/>
      <point x="97.3228" y="-228.041"/>
      <point x="112.924" y="-232.618"/>
      <point x="124.035" y="-216.081" type="curve" smooth="yes"/>
      <point x="171.453" y="-145.505"/>
      <point x="201.146" y="-55.0866"/>
    </contour>
  </outline>
</glyph>
<glyph name="hyphen" format="2">
  <advance width="366"/>
  <unicode hex="002D"/>
  <outline>
    <contour>
      <point x="70" y="320" type="curve" smooth="yes"/>
      <point x="306" y="320" type="line" smooth="yes"/>
      <point x="319.85" y="320"/>
      <point x="331" y="297.7"/>
      <point x="331" y="270" type="curve" smooth="yes"/>
      <point x="331" y="242.3"/>
      <point x="319.85" y="220"/>
      <point x="306" y="220" type="curve" smooth="yes"/>
      <point x="70" y="220" type="line" smooth="yes"/>
      <point x="56.15" y="220"/>
      <point x="45" y="242.3"/>
      <point x="45" y="270" type="curve" smooth="yes"/>
      <point x="45" y="297.7"/>
      <point x="56.15" y="320"/>
    </contour>
  </outline>
</glyph>
<glyph name="period" format="2">
  <advance width="268"/>
  <unicode hex="002E"/>
  <outline>
    <contour>
      <point x="145" y="147" type="curve" smooth="yes"/>
      <point x="177.679" y="147"/>
      <point x="204" y="107.204"/>
      <point x="204" y="46" type="curve" smooth="yes"/>
      <point x="204" y="-13.647"/>
      <point x="178.006" y="-55"/>
      <point x="145" y="-55" type="curve" smooth="yes"/>
      <point x="113.545" y="-55"/>
      <point x="86" y="-14.5804"/>
      <point x="86" y="46" type="curve" smooth="yes"/>
      <point x="86" y="108.128"/>
      <point x="113.875" y="147"/>
    </contour>
    <contour>
      <point x="145" y="47" type="line"/>
      <point x="142.405" y="47"/>
      <point x="140.599" y="46.3759"/>
      <point x="139.923" y="46.0347" type="curve"/>
      <point x="140.478" y="45.7458"/>
      <point x="142.188" y="45"/>
      <point x="145" y="45" type="curve" smooth="yes"/>
      <point x="147.804" y="45"/>
      <point x="149.702" y="45.6672"/>
      <point x="150.419" y="46.0339" type="curve"/>
      <point x="150.339" y="46.0739"/>
      <point x="149.466" y="46.528"/>
      <point x="147.561" y="46.8152" type="curve"/>
    </contour>
  </outline>
</glyph>
<glyph name="slash" format="2">
  <advance width="372"/>
  <unicode hex="002F"/>
  <outline>
    <contour>
      <point x="81.0686" y="-29.8162" type="line" smooth="yes"/>
      <point x="72.8095" y="-52.0522"/>
      <point x="57.2099" y="-56.6554"/>
      <point x="46.0919" y="-40.1372" type="curve" smooth="yes"/>
      <point x="34.9739" y="-23.619"/>
      <point x="32.6723" y="7.5802"/>
      <point x="40.9314" y="29.8162" type="curve" smooth="yes"/>
      <point x="300.931" y="729.816" type="line" smooth="yes"/>
      <point x="309.19" y="752.052"/>
      <point x="324.79" y="756.655"/>
      <point x="335.908" y="740.137" type="curve" smooth="yes"/>
      <point x="347.026" y="723.619"/>
      <point x="349.328" y="692.42"/>
      <point x="341.069" y="670.184" type="curve" smooth="yes"/>
    </contour>
  </outline>
</glyph>
<glyph name="zero" format="2">
  <advance width="563"/>
  <unicode hex="0030"/>
  <outline>
    <contour>
      <point x="65" y="351" type="curve" smooth="yes"/>
      <point x="65" y="492.989"/>
      <point x="142.318" y="650"/>
      <point x="281" y="650" type="curve" smooth="yes"/>
      <point x="419.834" y="650"/>
      <point x="498" y="492.757"/>
      <point x="498" y="351" type="curve" smooth="yes"/>
      <point x="498" y="208.168"/>
      <point x="419.784" y="51"/>
      <point x="281" y="51" type="curve" smooth="yes"/>
      <point x="142.367" y="51"/>
      <point x="65" y="207.935"/>
    </contour>
    <contour>
      <point x="15" y="351" type="curve" smooth="yes"/>
      <point x="15" y="130.065"/>
      <point x="127.633" y="-49"/>
      <point x="281" y="-49" type="curve" smooth="yes"/>
      <point x="434.216" y="-49"/>
      <point x="548" y="129.832"/>
      <point x="548" y="351" type="curve" smooth="yes"/>
      <point x="548" y="571.243"/>
      <point x="434.166" y="750"/>
      <point x="281" y="750" type="curve" smooth="yes"/>
      <point x="127.682" y="750"/>
      <point x="15" y="571.011"/>
    </contour>
  </outline>
</glyph>
<glyph name="one" format="2">
  <advance width="311"/>
  <unicode hex="0031"/>
  <outline>
    <contour>
      <point x="53.0716" y="348.297" type="curve" smooth="yes"/>
      <point x="13.3738" y="378.655"/>
      <point x="-23.5632" y="444.031"/>
      <point x="15.1557" y="532.857" type="curve" smooth="yes"/>
      <point x="51.5768" y="616.411"/>
      <point x="164.737" y="618.823"/>
      <point x="184.085" y="662.336" type="curve"/>
      <point x="184.085" y="704.171"/>
      <point x="204.26" y="752"/>
      <point x="237" y="752" type="curve" smooth="yes"/>
      <point x="265.12" y="752"/>
      <point x="290" y="720.396"/>
      <point x="290" y="660" type="curve" smooth="yes"/>
      <point x="290" y="-1" type="line" smooth="yes"/>
      <point x="290" y="-28.7"/>
      <point x="278.85" y="-51"/>
      <point x="265" y="-51" type="curve" smooth="yes"/>
      <point x="251.15" y="-51"/>
      <point x="240" y="-28.7"/>
      <point x="240" y="-1" type="curve" smooth="yes"/>
      <point x="240" y="660" type="line"/>
      <point x="234" y="660" type="line"/>
      <point x="234" y="511.106"/>
      <point x="80.5212" y="530.637"/>
      <point x="52.8443" y="467.143" type="curve" smooth="yes"/>
      <point x="52.0761" y="465.381"/>
      <point x="51.7621" y="464.401"/>
      <point x="51.6913" y="464.177" type="curve"/>
      <point x="52.2038" y="462.89"/>
      <point x="56.1304" y="454.085"/>
      <point x="67.6113" y="444.37" type="curve"/>
      <point x="70.9284" y="441.703" type="line"/>
      <point x="83.8651" y="431.81"/>
      <point x="90.2977" y="403.016"/>
      <point x="85.3513" y="377.143" type="curve" smooth="yes"/>
      <point x="80.405" y="351.27"/>
      <point x="66.0082" y="338.405"/>
    </contour>
  </outline>
</glyph>
<glyph name="two" format="2">
  <advance width="626"/>
  <unicode hex="0032"/>
  <outline>
    <contour>
      <point x="103.301" y="357.791" type="curve" smooth="yes"/>
      <point x="7.17969" y="530.345"/>
      <point x="117.151" y="778.395"/>
      <point x="329.324" y="755.93" type="curve" smooth="yes"/>
      <point x="471.379" y="740.844"/>
      <point x="551.726" y="593.062"/>
      <point x="512.731" y="455.282" type="curve" smooth="yes"/>
      <point x="503.783" y="423.962"/>
      <point x="491.002" y="399.136"/>
      <point x="473.411" y="378.389" type="curve"/>
      <point x="30.892" y="-2.91946" type="line"/>
      <point x="41.3265" y="56.0569" type="line"/>
      <point x="41.5717" y="55.6766"/>
      <point x="47.9352" y="47.7465"/>
      <point x="60.8181" y="49.8078" type="curve"/>
      <point x="73.0014" y="52.1284"/>
      <point x="80.2926" y="65.5303"/>
      <point x="90.5454" y="82.3017" type="curve"/>
      <point x="195.566" y="247.491"/>
      <point x="430.4" y="247.694"/>
      <point x="534.555" y="82.1437" type="curve"/>
      <point x="534.277" y="82.5718" type="line"/>
      <point x="546.903" y="63.6333"/>
      <point x="550.825" y="52.352"/>
      <point x="564.182" y="49.8078" type="curve"/>
      <point x="569.105" y="49.0201"/>
      <point x="575.146" y="50.1103"/>
      <point x="579.307" y="52.3251" type="curve"/>
      <point x="580.537" y="53.0342" type="line"/>
      <point x="581.174" y="61.5542"/>
      <point x="584.989" y="80.8426"/>
      <point x="595.715" y="89.4238" type="curve" smooth="yes"/>
      <point x="608.575" y="99.7114"/>
      <point x="623.068" y="87.2884"/>
      <point x="628.212" y="61.5696" type="curve" smooth="yes"/>
      <point x="639.712" y="4.06818"/>
      <point x="607.03" y="-35.2035"/>
      <point x="595.458" y="-42.4117" type="curve" smooth="yes"/>
      <point x="584.637" y="-49.1523"/>
      <point x="572.271" y="-51.8002"/>
      <point x="559.818" y="-49.8077" type="curve"/>
      <point x="529.879" y="-44.105"/>
      <point x="516.192" y="-15.2757"/>
      <point x="503.723" y="3.42821" type="curve" smooth="yes"/>
      <point x="503.446" y="3.85631" type="line" smooth="yes"/>
      <point x="417.6" y="140.306"/>
      <point x="208.434" y="140.509"/>
      <point x="121.643" y="4" type="curve"/>
      <point x="112.89" y="-10.3232"/>
      <point x="94.412" y="-44.2404"/>
      <point x="65.1821" y="-49.808" type="curve"/>
      <point x="30.0224" y="-55.4335"/>
      <point x="-26.8229" y="-28.1631"/>
      <point x="2.40346" y="81.4196" type="curve"/>
      <point x="450.343" y="467.398" type="line"/>
      <point x="454.862" y="472.886"/>
      <point x="464.173" y="486.884"/>
      <point x="469.269" y="504.718" type="curve" smooth="yes"/>
      <point x="486.26" y="564.754"/>
      <point x="419.27" y="646.237"/>
      <point x="326.677" y="656.07" type="curve" smooth="yes"/>
      <point x="202.413" y="669.227"/>
      <point x="70.2004" y="551.587"/>
      <point x="136.699" y="432.209" type="curve" smooth="yes"/>
      <point x="147.006" y="413.706"/>
      <point x="147.856" y="382.215"/>
      <point x="138.605" y="361.601" type="curve" smooth="yes"/>
      <point x="129.353" y="340.987"/>
      <point x="113.608" y="339.288"/>
    </contour>
  </outline>
</glyph>
<glyph name="three" format="2">
  <advance width="507"/>
  <unicode hex="0033"/>
  <outline>
    <contour>
      <point x="30" y="751" type="curve" smooth="yes"/>
      <point x="368.587" y="751" type="line"/>
      <point x="381.734" y="754.944"/>
      <point x="433.088" y="756.87"/>
      <point x="436.774" y="679.48" type="curve"/>
      <point x="436.66" y="681.22" type="line"/>
      <point x="441.03" y="628.779"/>
      <point x="417.689" y="603.612"/>
      <point x="405.224" y="596.133" type="curve" smooth="yes"/>
      <point x="79.2717" y="398.162" type="line" smooth="yes"/>
      <point x="69.5197" y="392.226"/>
      <point x="62.978" y="385.626"/>
      <point x="60.9044" y="382.02" type="curve"/>
      <point x="58.7896" y="429.296" type="line"/>
      <point x="59.3372" y="428.454"/>
      <point x="70.8661" y="428.357"/>
      <point x="74.6024" y="432.404" type="curve"/>
      <point x="209.983" y="595.302"/>
      <point x="489.968" y="486.31"/>
      <point x="479.945" y="215.674" type="curve" smooth="yes"/>
      <point x="474.33" y="47.2275"/>
      <point x="347.066" y="-44.3835"/>
      <point x="229.406" y="-56.9208" type="curve" smooth="yes"/>
      <point x="155.473" y="-65.2512"/>
      <point x="80.7797" y="-44.6184"/>
      <point x="20.8586" y="2.46246" type="curve" smooth="yes"/>
      <point x="7.9677" y="12.591"/>
      <point x="1.66684" y="41.5008"/>
      <point x="6.73113" y="67.2827" type="curve" smooth="yes"/>
      <point x="11.7954" y="93.0645"/>
      <point x="26.2503" y="105.666"/>
      <point x="39.1412" y="95.5376" type="curve" smooth="yes"/>
      <point x="91.1508" y="54.6729"/>
      <point x="158.425" y="35.2398"/>
      <point x="226.632" y="42.9251" type="curve" smooth="yes"/>
      <point x="344.05" y="55.4368"/>
      <point x="427.415" y="143.116"/>
      <point x="430.062" y="222.51" type="curve" smooth="yes"/>
      <point x="435.942" y="381.271"/>
      <point x="210.643" y="479.452"/>
      <point x="99.3975" y="345.596" type="curve"/>
      <point x="75.0565" y="319.226"/>
      <point x="46.5947" y="324.365"/>
      <point x="29.2103" y="348.704" type="curve"/>
      <point x="-6.44475" y="403.558"/>
      <point x="35.1692" y="475.846"/>
      <point x="64.7282" y="493.838" type="curve" smooth="yes"/>
      <point x="323.49" y="651" type="line"/>
      <point x="30" y="651" type="line" smooth="yes"/>
      <point x="16.15" y="651"/>
      <point x="5" y="673.3"/>
      <point x="5" y="701" type="curve" smooth="yes"/>
      <point x="5" y="728.7"/>
      <point x="16.15" y="751"/>
    </contour>
  </outline>
</glyph>
<glyph name="four" format="2">
  <advance width="620"/>
  <unicode hex="0034"/>
  <outline>
    <contour>
      <point x="307.322" y="728.355" type="curve" smooth="yes"/>
      <point x="320.161" y="754.032"/>
      <point x="340.607" y="758.076"/>
      <point x="354.145" y="756.947" type="curve" smooth="yes"/>
      <point x="367.387" y="755.623"/>
      <point x="379.528" y="748.918"/>
      <point x="389.271" y="736.206" type="curve" smooth="yes"/>
      <point x="400.382" y="721.708"/>
      <point x="415.837" y="683.939"/>
      <point x="402.437" y="639.275" type="curve" smooth="yes"/>
      <point x="401.714" y="636.865"/>
      <point x="395.778" y="624.574"/>
      <point x="394.599" y="623.045" type="curve" smooth="yes"/>
      <point x="13.5995" y="129.045" type="line"/>
      <point x="20.2507" y="184.233" type="line"/>
      <point x="20.3814" y="184.031"/>
      <point x="26.5844" y="176.156"/>
      <point x="39.8655" y="178.812" type="curve"/>
      <point x="54.888" y="180.958"/>
      <point x="58.7985" y="194.181"/>
      <point x="69.6723" y="210.491" type="curve"/>
      <point x="69.3447" y="209.983" type="line"/>
      <point x="172.537" y="375.749"/>
      <point x="405.496" y="375.541"/>
      <point x="509.693" y="209.921" type="curve" smooth="yes"/>
      <point x="522.674" y="188.678"/>
      <point x="526.021" y="180.629"/>
      <point x="538.179" y="178.806" type="curve"/>
      <point x="544.123" y="177.617"/>
      <point x="548.487" y="178.542"/>
      <point x="552.085" y="180.155" type="curve"/>
      <point x="553.519" y="180.873" type="line"/>
      <point x="554.196" y="189.916"/>
      <point x="558.122" y="208.949"/>
      <point x="568.715" y="217.424" type="curve" smooth="yes"/>
      <point x="581.575" y="227.711"/>
      <point x="596.068" y="215.288"/>
      <point x="601.212" y="189.569" type="curve" smooth="yes"/>
      <point x="611.096" y="140.15"/>
      <point x="588.687" y="100.929"/>
      <point x="574.485" y="89.6032" type="curve" smooth="yes"/>
      <point x="562.257" y="79.8511"/>
      <point x="547.649" y="76.4284"/>
      <point x="533.821" y="79.194" type="curve"/>
      <point x="507.366" y="83.1622"/>
      <point x="490.171" y="112.665"/>
      <point x="478.307" y="132.079" type="curve" smooth="yes"/>
      <point x="392.94" y="267.768"/>
      <point x="185.934" y="269.026"/>
      <point x="100.328" y="131.509" type="curve"/>
      <point x="88.634" y="113.968"/>
      <point x="72.8933" y="83.296"/>
      <point x="44.1343" y="79.1876" type="curve"/>
      <point x="14.1978" y="73.2003"/>
      <point x="-42.0749" y="95.2548"/>
      <point x="-23.212" y="189.569" type="curve" smooth="yes"/>
      <point x="-22.2727" y="194.266"/>
      <point x="-15.7217" y="210.203"/>
      <point x="-13.5996" y="212.955" type="curve" smooth="yes"/>
      <point x="319.152" y="644.397" type="line"/>
      <point x="317.548" y="644.809"/>
      <point x="311.856" y="648.578"/>
      <point x="307.322" y="657.645" type="curve" smooth="yes"/>
      <point x="297.529" y="677.231"/>
      <point x="297.529" y="708.768"/>
    </contour>
    <contour>
      <point x="350" y="425" type="curve" smooth="yes"/>
      <point x="350" y="2" type="line" smooth="yes"/>
      <point x="350" y="-25.7"/>
      <point x="338.85" y="-48"/>
      <point x="325" y="-48" type="curve" smooth="yes"/>
      <point x="311.15" y="-48"/>
      <point x="300" y="-25.7"/>
      <point x="300" y="2" type="curve" smooth="yes"/>
      <point x="300" y="425" type="line" smooth="yes"/>
      <point x="300" y="452.7"/>
      <point x="311.15" y="475"/>
      <point x="325" y="475" type="curve" smooth="yes"/>
      <point x="338.85" y="475"/>
      <point x="350" y="452.7"/>
    </contour>
  </outline>
</glyph>
<glyph name="five" format="2">
  <advance width="507"/>
  <unicode hex="0035"/>
  <outline>
    <contour>
      <point x="422" y="750" type="line" smooth="yes"/>
      <point x="435.85" y="750"/>
      <point x="447" y="727.7"/>
      <point x="447" y="700" type="curve" smooth="yes"/>
      <point x="447" y="672.3"/>
      <point x="435.85" y="650"/>
      <point x="422" y="650" type="curve" smooth="yes"/>
      <point x="65" y="650" type="line"/>
      <point x="65" y="429.815" type="line"/>
      <point x="66.9073" y="430.283"/>
      <point x="68.7252" y="431.388"/>
      <point x="69.2847" y="432.05" type="curve" smooth="yes"/>
      <point x="209.723" y="597.921"/>
      <point x="491.468" y="490.005"/>
      <point x="488.996" y="218.142" type="curve" smooth="yes"/>
      <point x="487.68" y="54.9634"/>
      <point x="371.576" y="-54.8642"/>
      <point x="238.305" y="-56.9963" type="curve" smooth="yes"/>
      <point x="153.142" y="-59.0735"/>
      <point x="69.9272" y="-13.9725"/>
      <point x="23.4054" y="68.6037" type="curve" smooth="yes"/>
      <point x="13.0467" y="86.9905"/>
      <point x="12.1085" y="118.472"/>
      <point x="21.3019" y="139.189" type="curve" smooth="yes"/>
      <point x="30.4953" y="159.907"/>
      <point x="46.2358" y="161.783"/>
      <point x="56.5946" y="143.396" type="curve" smooth="yes"/>
      <point x="90.0728" y="83.9724"/>
      <point x="158.858" y="41.0734"/>
      <point x="237.748" y="42.9973" type="curve" smooth="yes"/>
      <point x="355.858" y="44.8871"/>
      <point x="438.339" y="137.375"/>
      <point x="439.004" y="219.858" type="curve" smooth="yes"/>
      <point x="440.51" y="385.523"/>
      <point x="209.121" y="481.075"/>
      <point x="94.7154" y="345.95" type="curve" smooth="yes"/>
      <point x="71.3936" y="318.388"/>
      <point x="36.2624" y="328.433"/>
      <point x="15" y="363.073" type="curve"/>
      <point x="14.9977" y="750.006" type="line"/>
    </contour>
  </outline>
</glyph>
<glyph name="six" format="2">
  <advance width="527"/>
  <unicode hex="0036"/>
  <outline>
    <contour>
      <point x="50" y="445" type="curve" smooth="yes"/>
      <point x="58.31" y="467.16"/>
      <point x="73.92" y="471.62"/>
      <point x="85" y="455" type="curve" smooth="yes"/>
      <point x="91.4843" y="445.274"/>
      <point x="94.7975" y="430.626"/>
      <point x="94.8765" y="419.382" type="curve"/>
      <point x="98.4381" y="420.319"/>
      <point x="100.223" y="422.984"/>
      <point x="101.341" y="425.36" type="curve"/>
      <point x="205.793" y="621.498"/>
      <point x="509.759" y="495.523"/>
      <point x="510.998" y="226.63" type="curve" smooth="yes"/>
      <point x="512.287" y="65.4369"/>
      <point x="399.411" y="-51.4069"/>
      <point x="262.603" y="-46.9938" type="curve" smooth="yes"/>
      <point x="120.263" y="-42.5456"/>
      <point x="15" y="90.515"/>
      <point x="15" y="254" type="curve" smooth="yes"/>
      <point x="15" y="517.349"/>
      <point x="200.543" y="725.611"/>
      <point x="442.746" y="749.937" type="curve" smooth="yes"/>
      <point x="456.579" y="751.326"/>
      <point x="468.274" y="730.173"/>
      <point x="468.968" y="702.508" type="curve" smooth="yes"/>
      <point x="469.663" y="674.843"/>
      <point x="459.086" y="651.452"/>
      <point x="445.254" y="650.063" type="curve" smooth="yes"/>
      <point x="224.14" y="627.855"/>
      <point x="65" y="444.617"/>
      <point x="65" y="254" type="curve" smooth="yes"/>
      <point x="65" y="157.783"/>
      <point x="146.852" y="56.6357"/>
      <point x="263.397" y="52.9937" type="curve" smooth="yes"/>
      <point x="378.814" y="49.2706"/>
      <point x="461.669" y="141.973"/>
      <point x="461.002" y="225.37" type="curve" smooth="yes"/>
      <point x="460.252" y="388.179"/>
      <point x="212.952" y="497.902"/>
      <point x="136.658" y="354.64" type="curve"/>
      <point x="137.205" y="355.732" type="line"/>
      <point x="121.997" y="323.415"/>
      <point x="98.2987" y="312.023"/>
      <point x="74.274" y="323.329" type="curve" smooth="yes"/>
      <point x="48.7505" y="335.34"/>
      <point x="24.9347" y="378.159"/>
    </contour>
  </outline>
</glyph>
<glyph name="seven" format="2">
  <advance width="572"/>
  <unicode hex="0037"/>
  <outline>
    <contour>
      <point x="-8.3337" y="631.051" type="curve" smooth="yes"/>
      <point x="-18.3693" y="683.238"/>
      <point x="3.42103" y="716.903"/>
      <point x="14.3009" y="727.829" type="curve" smooth="yes"/>
      <point x="28.0814" y="741.667"/>
      <point x="45.497" y="746.443"/>
      <point x="61.6179" y="742.723" type="curve"/>
      <point x="88.8393" y="737.538"/>
      <point x="105.554" y="708.724"/>
      <point x="118.254" y="688.614" type="curve" smooth="yes"/>
      <point x="196.263" y="568.462"/>
      <point x="378.737" y="568.462"/>
      <point x="456.614" y="688.408" type="curve" smooth="yes"/>
      <point x="465.936" y="703.168"/>
      <point x="484.298" y="737.435"/>
      <point x="513.436" y="742.733" type="curve"/>
      <point x="529.595" y="746.462"/>
      <point x="547.421" y="741.162"/>
      <point x="560.698" y="727.83" type="curve" smooth="yes"/>
      <point x="575.682" y="712.784"/>
      <point x="594.821" y="678.128"/>
      <point x="580.344" y="617.109" type="curve"/>
      <point x="148.112" y="-38.8315" type="line" smooth="yes"/>
      <point x="137.078" y="-55.5753"/>
      <point x="121.456" y="-51.2901"/>
      <point x="113.084" y="-29.2234" type="curve" smooth="yes"/>
      <point x="104.712" y="-7.1568"/>
      <point x="106.855" y="24.0877"/>
      <point x="117.888" y="40.8314" type="curve" smooth="yes"/>
      <point x="514.043" y="642.021" type="line"/>
      <point x="510.804" y="641.068"/>
      <point x="504.412" y="636.55"/>
      <point x="487.254" y="609.386" type="curve" smooth="yes"/>
      <point x="391.263" y="461.538"/>
      <point x="183.737" y="461.538"/>
      <point x="87.6143" y="609.592" type="curve" smooth="yes"/>
      <point x="73.5032" y="631.934"/>
      <point x="70.0566" y="640.673"/>
      <point x="56.382" y="643.277" type="curve"/>
      <point x="48.6177" y="645.069"/>
      <point x="42.8979" y="643.04"/>
      <point x="39.6746" y="640.754" type="curve"/>
      <point x="38.3352" y="624.341"/>
      <point x="32.7262" y="609.065"/>
      <point x="23.9742" y="602.333" type="curve" smooth="yes"/>
      <point x="11.0474" y="592.389"/>
      <point x="-3.36202" y="605.198"/>
    </contour>
    <contour>
      <point x="103" y="290" type="line" smooth="yes"/>
      <point x="89.15" y="290"/>
      <point x="78" y="312.3"/>
      <point x="78" y="340" type="curve" smooth="yes"/>
      <point x="78" y="367.7"/>
      <point x="89.15" y="390"/>
      <point x="103" y="390" type="curve" smooth="yes"/>
      <point x="516" y="390" type="line" smooth="yes"/>
      <point x="529.85" y="390"/>
      <point x="541" y="367.7"/>
      <point x="541" y="340" type="curve" smooth="yes"/>
      <point x="541" y="312.3"/>
      <point x="529.85" y="290"/>
      <point x="516" y="290" type="curve" smooth="yes"/>
    </contour>
  </outline>
</glyph>
<glyph name="eight" format="2">
  <advance width="493"/>
  <unicode hex="0038"/>
  <outline>
    <contour>
      <point x="448.035" y="192.224" type="curve"/>
      <point x="450.584" y="125.619"/>
      <point x="362.026" y="46"/>
      <point x="247" y="46" type="curve" smooth="yes"/>
      <point x="128.186" y="46"/>
      <point x="43.8612" y="128.114"/>
      <point x="44.9832" y="192.629" type="curve" smooth="yes"/>
      <point x="46.7428" y="248.937"/>
      <point x="102.992" y="314"/>
      <point x="193" y="314" type="curve" smooth="yes"/>
      <point x="195.254" y="314"/>
      <point x="247" y="319.908"/>
      <point x="247" y="393" type="curve" smooth="yes"/>
      <point x="247" y="453.63"/>
      <point x="214.594" y="471"/>
      <point x="193" y="471" type="curve" smooth="yes"/>
      <point x="107.938" y="471"/>
      <point x="74.5889" y="532.293"/>
      <point x="71.959" y="549.267" type="curve" smooth="yes"/>
      <point x="66.9904" y="584.048"/>
      <point x="135.987" y="655"/>
      <point x="247" y="655" type="curve" smooth="yes"/>
      <point x="355.325" y="655"/>
      <point x="426.567" y="585.383"/>
      <point x="421.108" y="549.717" type="curve" smooth="yes"/>
      <point x="415.16" y="511.33"/>
      <point x="369.309" y="471"/>
      <point x="300" y="471" type="curve" smooth="yes"/>
      <point x="299.333" y="471"/>
      <point x="246" y="467.338"/>
      <point x="246" y="393" type="curve" smooth="yes"/>
      <point x="246" y="333.276"/>
      <point x="277.815" y="314"/>
      <point x="300" y="314" type="curve" smooth="yes"/>
      <point x="389.368" y="314"/>
      <point x="447.019" y="250.775"/>
    </contour>
    <contour>
      <point x="497.76" y="203.851" type="line" smooth="yes"/>
      <point x="492.451" y="324.931"/>
      <point x="413.157" y="381.111"/>
      <point x="388.124" y="393.421" type="curve"/>
      <point x="421.034" y="411.833"/>
      <point x="458.059" y="450.357"/>
      <point x="468.892" y="520.283" type="curve" smooth="yes"/>
      <point x="491.306" y="666.721"/>
      <point x="376.115" y="755"/>
      <point x="247" y="755" type="curve" smooth="yes"/>
      <point x="118.755" y="755"/>
      <point x="2.92024" y="668.578"/>
      <point x="24.041" y="520.733" type="curve" smooth="yes"/>
      <point x="35.7275" y="445.302"/>
      <point x="81.4017" y="406.549"/>
      <point x="105.175" y="393.249" type="curve"/>
      <point x="-1.08449" y="340.725"/>
      <point x="-4.74091" y="205.268"/>
      <point x="-4.97231" y="197.429" type="curve" smooth="yes"/>
      <point x="-8.01231" y="38.4474"/>
      <point x="115.88" y="-54"/>
      <point x="247" y="-54" type="curve" smooth="yes"/>
      <point x="376.871" y="-54"/>
      <point x="503.508" y="38.3893"/>
      <point x="497.94" y="198.47" type="curve" smooth="yes"/>
    </contour>
  </outline>
</glyph>
<glyph name="nine" format="2">
  <advance width="527"/>
  <unicode hex="0039"/>
  <outline>
    <contour>
      <point x="477" y="258" type="curve" smooth="yes"/>
      <point x="468.69" y="235.84"/>
      <point x="453.08" y="231.38"/>
      <point x="442" y="248" type="curve" smooth="yes"/>
      <point x="435.515" y="257.727"/>
      <point x="432.206" y="272.374"/>
      <point x="432.127" y="283.517" type="curve"/>
      <point x="430.032" y="282.953"/>
      <point x="427.419" y="280.906"/>
      <point x="425.19" y="276.695" type="curve" smooth="yes"/>
      <point x="323.062" y="82.7676"/>
      <point x="17.2461" y="206.44"/>
      <point x="16.0022" y="476.37" type="curve" smooth="yes"/>
      <point x="14.7127" y="637.563"/>
      <point x="127.589" y="754.407"/>
      <point x="264.397" y="749.994" type="curve" smooth="yes"/>
      <point x="406.737" y="745.546"/>
      <point x="512" y="612.485"/>
      <point x="512" y="449" type="curve" smooth="yes"/>
      <point x="512" y="185.651"/>
      <point x="326.457" y="-22.611"/>
      <point x="84.2539" y="-46.9371" type="curve" smooth="yes"/>
      <point x="70.4213" y="-48.3264"/>
      <point x="58.7261" y="-27.1729"/>
      <point x="58.0315" y="0.49225" type="curve" smooth="yes"/>
      <point x="57.3369" y="28.1574"/>
      <point x="67.9137" y="51.5478"/>
      <point x="81.7462" y="52.9371" type="curve" smooth="yes"/>
      <point x="302.86" y="75.145"/>
      <point x="462" y="258.383"/>
      <point x="462" y="449" type="curve" smooth="yes"/>
      <point x="462" y="545.217"/>
      <point x="380.148" y="646.364"/>
      <point x="263.603" y="650.006" type="curve" smooth="yes"/>
      <point x="148.186" y="653.729"/>
      <point x="65.3307" y="561.027"/>
      <point x="65.9979" y="477.63" type="curve" smooth="yes"/>
      <point x="66.7441" y="315.699"/>
      <point x="314.232" y="203.892"/>
      <point x="390.834" y="349.351" type="curve" smooth="yes"/>
      <point x="406.186" y="378.349"/>
      <point x="427.874" y="391.366"/>
      <point x="452.726" y="379.671" type="curve" smooth="yes"/>
      <point x="478.249" y="367.66"/>
      <point x="502.065" y="324.841"/>
    </contour>
  </outline>
</glyph>
<glyph name="equal" format="2">
  <advance width="572"/>
  <unicode hex="003D"/>
  <outline>
    <contour>
      <point x="80" y="320" type="curve" smooth="yes"/>
      <point x="486" y="320" type="line" smooth="yes"/>
      <point x="499.85" y="320"/>
      <point x="511" y="297.7"/>
      <point x="511" y="270" type="curve" smooth="yes"/>
      <point x="511" y="242.3"/>
      <point x="499.85" y="220"/>
      <point x="486" y="220" type="curve" smooth="yes"/>
      <point x="80" y="220" type="line" smooth="yes"/>
      <point x="66.15" y="220"/>
      <point x="55" y="242.3"/>
      <point x="55" y="270" type="curve" smooth="yes"/>
      <point x="55" y="297.7"/>
      <point x="66.15" y="320"/>
    </contour>
    <contour>
      <point x="80" y="487" type="curve" smooth="yes"/>
      <point x="486" y="487" type="line" smooth="yes"/>
      <point x="499.85" y="487"/>
      <point x="511" y="464.7"/>
      <point x="511" y="437" type="curve" smooth="yes"/>
      <point x="511" y="409.3"/>
      <point x="499.85" y="387"/>
      <point x="486" y="387" type="curve" smooth="yes"/>
      <point x="80" y="387" type="line" smooth="yes"/>
      <point x="66.15" y="387"/>
      <point x="55" y="409.3"/>
      <point x="55" y="437" type="curve" smooth="yes"/>
      <point x="55" y="464.7"/>
      <point x="66.15" y="487"/>
    </contour>
  </outline>
</glyph>
<glyph name="question" format="2">
  <advance width="562"/>
  <unicode hex="003F"/>
  <outline>
    <contour>
      <point x="307.058" y="45.5006" type="curve"/>
      <point x="307.609" y="45.6735"/>
      <point x="308.868" y="46"/>
      <point x="311" y="46" type="curve" smooth="yes"/>
      <point x="312.859" y="46"/>
      <point x="314.044" y="45.7059"/>
      <point x="314.673" y="45.5006" type="curve"/>
      <point x="314.04" y="45.2934"/>
      <point x="312.855" y="45"/>
      <point x="311" y="45" type="curve" smooth="yes"/>
      <point x="308.871" y="45"/>
      <point x="307.613" y="45.3259"/>
    </contour>
    <contour>
      <point x="252" y="46" type="curve" smooth="yes"/>
      <point x="252" y="-15.204"/>
      <point x="278.321" y="-55"/>
      <point x="311" y="-55" type="curve" smooth="yes"/>
      <point x="343.241" y="-55"/>
      <point x="369" y="-14.2431"/>
      <point x="369" y="46" type="curve" smooth="yes"/>
      <point x="369" y="105.811"/>
      <point x="342.91" y="146"/>
      <point x="311" y="146" type="curve" smooth="yes"/>
      <point x="278.654" y="146"/>
      <point x="252" y="106.763"/>
    </contour>
    <contour>
      <point x="359.617" y="262.043" type="curve" smooth="yes"/>
      <point x="348.802" y="279.347"/>
      <point x="333.13" y="275.865"/>
      <point x="324.478" y="254.235" type="curve" smooth="yes"/>
      <point x="318.475" y="239.227"/>
      <point x="318.934" y="223.592"/>
      <point x="319.026" y="221.927" type="curve"/>
      <point x="318.152" y="221.774" type="line"/>
      <point x="316.48" y="221.587"/>
      <point x="314.702" y="221.598"/>
      <point x="312.704" y="221.883" type="curve" smooth="yes"/>
      <point x="305.268" y="222.853"/>
      <point x="302.129" y="226.974"/>
      <point x="302" y="227.168" type="curve"/>
      <point x="302" y="232" type="line" smooth="yes"/>
      <point x="302" y="286.02"/>
      <point x="394.203" y="300.836"/>
      <point x="451.114" y="372.434" type="curve"/>
      <point x="485.129" y="413.487"/>
      <point x="505" y="469.528"/>
      <point x="505" y="532" type="curve" smooth="yes"/>
      <point x="505" y="660.254"/>
      <point x="436.823" y="769"/>
      <point x="276.628" y="763.994" type="curve" smooth="yes"/>
      <point x="131.543" y="759.888"/>
      <point x="55" y="666.605"/>
      <point x="55" y="526" type="curve" smooth="yes"/>
      <point x="55" y="431.729"/>
      <point x="104.113" y="335.794"/>
      <point x="214.364" y="339.005" type="curve" smooth="yes"/>
      <point x="228.213" y="339.409"/>
      <point x="239.199" y="362.031"/>
      <point x="238.997" y="389.728" type="curve" smooth="yes"/>
      <point x="238.796" y="417.425"/>
      <point x="227.484" y="439.398"/>
      <point x="213.636" y="438.995" type="curve" smooth="yes"/>
      <point x="110.908" y="436.003"/>
      <point x="105" y="517.23"/>
      <point x="105" y="526" type="curve" smooth="yes"/>
      <point x="105" y="611.063"/>
      <point x="178.487" y="661.207"/>
      <point x="277.372" y="664.006" type="curve" smooth="yes"/>
      <point x="388.003" y="667.463"/>
      <point x="455" y="609.907"/>
      <point x="455" y="532" type="curve" smooth="yes"/>
      <point x="455" y="516.373"/>
      <point x="451.154" y="489.268"/>
      <point x="424.886" y="457.566" type="curve"/>
      <point x="363.83" y="380.754"/>
      <point x="252" y="386.304"/>
      <point x="252" y="232" type="curve" smooth="yes"/>
      <point x="252" y="223" type="line" smooth="yes"/>
      <point x="252" y="162.16"/>
      <point x="279.197" y="126.042"/>
      <point x="309.296" y="122.117" type="curve" smooth="yes"/>
      <point x="356.617" y="115.356"/>
      <point x="393.806" y="207.342"/>
    </contour>
  </outline>
</glyph>
<glyph name="at" format="2">
  <advance width="909"/>
  <unicode hex="0040"/>
  <outline>
    <component base="o" xScale="0.8791" yScale="0.8791" xOffset="215.711" yOffset="60.3484"/>
    <contour>
      <point x="600.932" y="500.057" type="line" smooth="yes"/>
      <point x="600.932" y="527.757"/>
      <point x="612.082" y="550.057"/>
      <point x="625.932" y="550.057" type="curve" smooth="yes"/>
      <point x="639.782" y="550.057"/>
      <point x="650.932" y="527.757"/>
      <point x="650.932" y="500.057" type="curve" smooth="yes"/>
      <point x="650.932" y="112.761" type="line"/>
      <point x="651.247" y="111.362"/>
      <point x="655.47" y="95.3282"/>
      <point x="679.351" y="95.3282" type="curve" smooth="yes"/>
      <point x="739.005" y="95.3282"/>
      <point x="789.68" y="188.653"/>
      <point x="788.735" y="300.872" type="curve" smooth="yes"/>
      <point x="787.036" y="502.585"/>
      <point x="641.405" y="618.458"/>
      <point x="462.854" y="618.458" type="curve" smooth="yes"/>
      <point x="277.735" y="618.458"/>
      <point x="120.479" y="488.078"/>
      <point x="120.479" y="285.396" type="curve" smooth="yes"/>
      <point x="120.479" y="82.718"/>
      <point x="263.056" y="-54.1301"/>
      <point x="435.954" y="-54.1301" type="curve" smooth="yes"/>
      <point x="453.843" y="-54.1301"/>
      <point x="475.442" y="-52.6102"/>
      <point x="498" y="-48.792" type="curve" smooth="yes"/>
      <point x="501.217" y="-48.2329" type="line" smooth="yes"/>
      <point x="515.012" y="-45.7725"/>
      <point x="527.108" y="-66.0036"/>
      <point x="528.338" y="-93.5941" type="curve" smooth="yes"/>
      <point x="529.569" y="-121.185"/>
      <point x="519.453" y="-145.377"/>
      <point x="505.658" y="-147.838" type="curve" smooth="yes"/>
      <point x="480.376" y="-152.347"/>
      <point x="456.079" y="-154.13"/>
      <point x="435.955" y="-154.13" type="curve" smooth="yes"/>
      <point x="229.808" y="-154.13"/>
      <point x="70.4794" y="21.95"/>
      <point x="70.4794" y="285.396" type="curve" smooth="yes"/>
      <point x="70.4794" y="555.546"/>
      <point x="246.683" y="718.458"/>
      <point x="462.855" y="718.458" type="curve" smooth="yes"/>
      <point x="677.438" y="718.458"/>
      <point x="836.519" y="564.98"/>
      <point x="838.729" y="302.556" type="curve" smooth="yes"/>
      <point x="840.18" y="130.334"/>
      <point x="764.882" y="-4.67176"/>
      <point x="679.352" y="-4.67176" type="curve" smooth="yes"/>
      <point x="632.975" y="-4.67176"/>
      <point x="601.196" y="44.4578"/>
      <point x="600.934" y="111.304" type="curve"/>
    </contour>
  </outline>
</glyph>
<glyph name="A" format="2">
  <advance width="592"/>
  <unicode hex="0041"/>
  <outline>
    <contour>
      <point x="47.2145" y="-39.1203" type="curve" smooth="yes"/>
      <point x="36.6616" y="-57.0601"/>
      <point x="20.9447" y="-54.5114"/>
      <point x="11.9748" y="-33.4057" type="curve" smooth="yes"/>
      <point x="3.00489" y="-12.3"/>
      <point x="4.27919" y="19.1338"/>
      <point x="14.832" y="37.0737" type="curve" smooth="yes"/>
      <point x="24.4609" y="53.4428"/>
      <point x="32.22" y="68.2743"/>
      <point x="38.1251" y="83.4588" type="curve"/>
      <point x="92.2796" y="214.57"/>
      <point x="57.0414" y="348.196"/>
      <point x="87.3074" y="519.313" type="curve" smooth="yes"/>
      <point x="110.807" y="650.422"/>
      <point x="178.584" y="764.263"/>
      <point x="296.058" y="764.263" type="curve" smooth="yes"/>
      <point x="413.23" y="764.263"/>
      <point x="482.48" y="650.826"/>
      <point x="504.895" y="518.817" type="curve" smooth="yes"/>
      <point x="535.008" y="348.565"/>
      <point x="500.829" y="214.465"/>
      <point x="554.06" y="83.2909" type="curve" smooth="yes"/>
      <point x="560.259" y="67.3501"/>
      <point x="567.86" y="53.0942"/>
      <point x="577.284" y="37.0737" type="curve" smooth="yes"/>
      <point x="587.837" y="19.1339"/>
      <point x="589.111" y="-12.2999"/>
      <point x="580.142" y="-33.4057" type="curve" smooth="yes"/>
      <point x="571.172" y="-54.5114"/>
      <point x="555.455" y="-57.0601"/>
      <point x="544.902" y="-39.1203" type="curve" smooth="yes"/>
      <point x="534.066" y="-20.6991"/>
      <point x="523.396" y="-0.723875"/>
      <point x="514.914" y="21.0857" type="curve" smooth="yes"/>
      <point x="453.615" y="172.143"/>
      <point x="480.983" y="354.17"/>
      <point x="457.603" y="486.361" type="curve" smooth="yes"/>
      <point x="443.232" y="570.994"/>
      <point x="395.826" y="664.263"/>
      <point x="296.058" y="664.263" type="curve" smooth="yes"/>
      <point x="196.592" y="664.263"/>
      <point x="149.759" y="571.398"/>
      <point x="134.392" y="485.666" type="curve" smooth="yes"/>
      <point x="111.195" y="354.515"/>
      <point x="139.556" y="172.048"/>
      <point x="77.133" y="20.9178" type="curve"/>
      <point x="69.2792" y="0.722315"/>
      <point x="58.7781" y="-19.4621"/>
    </contour>
    <contour>
      <point x="57.6291" y="334.477" type="curve" smooth="yes"/>
      <point x="534.487" y="334.477" type="line" smooth="yes"/>
      <point x="548.337" y="334.477"/>
      <point x="559.487" y="312.177"/>
      <point x="559.487" y="284.477" type="curve" smooth="yes"/>
      <point x="559.487" y="256.777"/>
      <point x="548.337" y="234.477"/>
      <point x="534.487" y="234.477" type="curve" smooth="yes"/>
      <point x="57.6291" y="234.477" type="line" smooth="yes"/>
      <point x="43.7791" y="234.477"/>
      <point x="32.6291" y="256.777"/>
      <point x="32.6291" y="284.477" type="curve" smooth="yes"/>
      <point x="32.6291" y="312.177"/>
      <point x="43.7791" y="334.477"/>
    </contour>
  </outline>
</glyph>
<glyph name="B" format="2">
  <advance width="559"/>
  <unicode hex="0042"/>
  <outline>
    <contour>
      <point x="25.7662" y="439.799" type="curve" smooth="yes"/>
      <point x="-19.6387" y="627.904"/>
      <point x="107.086" y="770.256"/>
      <point x="264.76" y="770.256" type="curve" smooth="yes"/>
      <point x="340.092" y="770.256"/>
      <point x="419.862" y="734.727"/>
      <point x="469.12" y="639.903" type="curve" smooth="yes"/>
      <point x="563.916" y="452.807"/>
      <point x="433.103" y="247.274"/>
      <point x="249.759" y="249.97" type="curve" smooth="yes"/>
      <point x="192.214" y="251.121"/>
      <point x="129.336" y="274.324"/>
      <point x="75.0229" y="340.707" type="curve"/>
      <point x="75.0229" y="400.748" type="line"/>
      <point x="150.869" y="500.245"/>
      <point x="245.296" y="503.683"/>
      <point x="271.951" y="504.142" type="curve" smooth="yes"/>
      <point x="433.965" y="506.56"/>
      <point x="583.099" y="357.915"/>
      <point x="547.058" y="157.686" type="curve" smooth="yes"/>
      <point x="522.009" y="12.4019"/>
      <point x="407.69" y="-70"/>
      <point x="294.328" y="-70" type="curve" smooth="yes"/>
      <point x="190.746" y="-70"/>
      <point x="68.6325" y="-4.59317"/>
      <point x="26.4429" y="146.793" type="curve" smooth="yes"/>
      <point x="19.6999" y="170.989"/>
      <point x="24.0108" y="201.324"/>
      <point x="36.1085" y="214.81" type="curve" smooth="yes"/>
      <point x="48.2062" y="228.296"/>
      <point x="63.374" y="219.674"/>
      <point x="70.117" y="195.479" type="curve" smooth="yes"/>
      <point x="99.0463" y="91.6737"/>
      <point x="198.287" y="30"/>
      <point x="294.328" y="30" type="curve" smooth="yes"/>
      <point x="394.737" y="30"/>
      <point x="484.626" y="102.321"/>
      <point x="499.902" y="190.922" type="curve" smooth="yes"/>
      <point x="519.221" y="298.252"/>
      <point x="400.725" y="406.062"/>
      <point x="272.353" y="404.146" type="curve" smooth="yes"/>
      <point x="234.146" y="403.487"/>
      <point x="195.528" y="393.176"/>
      <point x="163.586" y="373.016" type="curve"/>
      <point x="177.742" y="365.098"/>
      <point x="211.834" y="350.733"/>
      <point x="250.193" y="349.966" type="curve" smooth="yes"/>
      <point x="344.318" y="348.582"/>
      <point x="498.16" y="442.099"/>
      <point x="434.223" y="568.29" type="curve" smooth="yes"/>
      <point x="399.015" y="636.066"/>
      <point x="335.095" y="670.256"/>
      <point x="264.76" y="670.256" type="curve" smooth="yes"/>
      <point x="159.571" y="670.256"/>
      <point x="45.6746" y="587.338"/>
      <point x="70.7937" y="483.273" type="curve" smooth="yes"/>
      <point x="76.815" y="458.328"/>
      <point x="71.6213" y="428.551"/>
      <point x="59.1486" y="416.508" type="curve" smooth="yes"/>
      <point x="46.676" y="404.466"/>
      <point x="31.7874" y="414.853"/>
    </contour>
    <contour>
      <point x="24.7577" y="75.1454" type="curve" smooth="yes"/>
      <point x="33.5623" y="96.5278"/>
      <point x="49.2575" y="99.5656"/>
      <point x="59.9487" y="81.9565" type="curve" smooth="yes"/>
      <point x="65.3153" y="73.1173"/>
      <point x="68.2566" y="60.8892"/>
      <point x="68.7363" y="50.9745" type="curve"/>
      <point x="69.3891" y="50.696"/>
      <point x="71.2067" y="50.0641"/>
      <point x="73.6239" y="50.0641" type="curve" smooth="yes"/>
      <point x="74.5506" y="50.0641"/>
      <point x="74.9842" y="50.1499"/>
      <point x="75.0234" y="50.1587" type="curve"/>
      <point x="75.024" y="651.616" type="line" smooth="yes"/>
      <point x="75.024" y="679.316"/>
      <point x="86.174" y="701.616"/>
      <point x="100.024" y="701.616" type="curve" smooth="yes"/>
      <point x="113.874" y="701.616"/>
      <point x="125.024" y="679.316"/>
      <point x="125.024" y="651.616" type="curve" smooth="yes"/>
      <point x="125.098" y="56.3244" type="line"/>
      <point x="133.672" y="13.8157"/>
      <point x="118.152" y="-17.563"/>
      <point x="109.944" y="-28.8434" type="curve" smooth="yes"/>
      <point x="99.6396" y="-43.0044"/>
      <point x="86.4096" y="-49.9359"/>
      <point x="73.6241" y="-49.9359" type="curve" smooth="yes"/>
      <point x="59.855" y="-49.9359"/>
      <point x="46.9029" y="-42.6221"/>
      <point x="36.9736" y="-30.2591" type="curve" smooth="yes"/>
      <point x="24.7269" y="-15.011"/>
      <point x="4.21921" y="25.266"/>
    </contour>
  </outline>
</glyph>
<glyph name="C" format="2">
  <advance width="559"/>
  <unicode hex="0043"/>
  <outline>
    <contour>
      <point x="532.568" y="646.522" type="curve" smooth="yes"/>
      <point x="543.969" y="630.795"/>
      <point x="546.817" y="599.776"/>
      <point x="538.954" y="576.974" type="curve" smooth="yes"/>
      <point x="531.09" y="554.171"/>
      <point x="515.581" y="548.475"/>
      <point x="504.18" y="564.202" type="curve" smooth="yes"/>
      <point x="459.494" y="625.843"/>
      <point x="394.904" y="667.84"/>
      <point x="313.161" y="667.84" type="curve" smooth="yes"/>
      <point x="146.885" y="667.84"/>
      <point x="56.1199" y="498.213"/>
      <point x="56.1199" y="350.971" type="curve" smooth="yes"/>
      <point x="56.1199" y="202.61"/>
      <point x="146.935" y="33.0512"/>
      <point x="313.161" y="33.0512" type="curve" smooth="yes"/>
      <point x="394.904" y="33.0512"/>
      <point x="459.494" y="75.0486"/>
      <point x="504.18" y="136.689" type="curve" smooth="yes"/>
      <point x="515.581" y="152.416"/>
      <point x="531.09" y="146.72"/>
      <point x="538.954" y="123.918" type="curve" smooth="yes"/>
      <point x="546.817" y="101.115"/>
      <point x="543.969" y="70.097"/>
      <point x="532.568" y="54.37" type="curve" smooth="yes"/>
      <point x="478.186" y="-20.6454"/>
      <point x="403.272" y="-66.9488"/>
      <point x="313.161" y="-66.9488" type="curve" smooth="yes"/>
      <point x="137.703" y="-66.9488"/>
      <point x="6.11995" y="116.696"/>
      <point x="6.11995" y="350.971" type="curve" smooth="yes"/>
      <point x="6.11995" y="584.263"/>
      <point x="137.753" y="767.84"/>
      <point x="313.161" y="767.84" type="curve" smooth="yes"/>
      <point x="403.272" y="767.84"/>
      <point x="478.186" y="721.537"/>
    </contour>
  </outline>
</glyph>
<glyph name="D" format="2">
  <advance width="626"/>
  <unicode hex="0044"/>
  <outline>
    <contour>
      <point x="31.0186" y="75.5396" type="curve" smooth="yes"/>
      <point x="40.032" y="96.571"/>
      <point x="55.7541" y="98.9898"/>
      <point x="66.2698" y="80.9629" type="curve" smooth="yes"/>
      <point x="71.5456" y="71.9185"/>
      <point x="74.3804" y="59.5735"/>
      <point x="74.7765" y="49.2752" type="curve"/>
      <point x="75.1644" y="49.1942"/>
      <point x="76.2175" y="49"/>
      <point x="78" y="49" type="curve" smooth="yes"/>
      <point x="79.6274" y="49"/>
      <point x="80.6154" y="49.187"/>
      <point x="81" y="49.2703" type="curve"/>
      <point x="81" y="690" type="line" smooth="yes"/>
      <point x="81" y="717.7"/>
      <point x="92.15" y="740"/>
      <point x="106" y="740" type="curve" smooth="yes"/>
      <point x="119.85" y="740"/>
      <point x="131" y="717.7"/>
      <point x="131" y="690" type="curve" smooth="yes"/>
      <point x="131.002" y="56.2398" type="line"/>
      <point x="138.663" y="19.9333"/>
      <point x="128.786" y="-10.4729"/>
      <point x="119.651" y="-25.2663" type="curve" smooth="yes"/>
      <point x="107.768" y="-44.5105"/>
      <point x="91.3257" y="-51"/>
      <point x="78" y="-51" type="curve" smooth="yes"/>
      <point x="62.3157" y="-51"/>
      <point x="46.9418" y="-43.1293"/>
      <point x="36.0557" y="-25.3909" type="curve" smooth="yes"/>
      <point x="22.2919" y="-2.96357"/>
      <point x="15.635" y="39.6445"/>
    </contour>
    <contour>
      <point x="26.4234" y="381.525" type="curve" smooth="yes"/>
      <point x="-20.8378" y="580.264"/>
      <point x="108.387" y="769"/>
      <point x="308" y="769" type="curve" smooth="yes"/>
      <point x="487.386" y="769"/>
      <point x="617.535" y="587.548"/>
      <point x="619.994" y="360.064" type="curve" smooth="yes"/>
      <point x="622.421" y="131.99"/>
      <point x="528.041" y="-14.6169"/>
      <point x="362.101" y="-56.6139" type="curve" smooth="yes"/>
      <point x="271.309" y="-79.3118"/>
      <point x="155.812" y="-54.7135"/>
      <point x="94.8197" y="6.27866" type="curve" smooth="yes"/>
      <point x="82.4319" y="18.6665"/>
      <point x="77.4454" y="48.5851"/>
      <point x="83.6393" y="73.3607" type="curve" smooth="yes"/>
      <point x="89.8332" y="98.1363"/>
      <point x="104.793" y="108.109"/>
      <point x="117.18" y="95.7214" type="curve" smooth="yes"/>
      <point x="166.188" y="46.7135"/>
      <point x="270.691" y="21.3119"/>
      <point x="355.861" y="42.6044" type="curve" smooth="yes"/>
      <point x="513.96" y="82.6169"/>
      <point x="571.579" y="210.01"/>
      <point x="570.006" y="357.919" type="curve" smooth="yes"/>
      <point x="568.465" y="500.453"/>
      <point x="478.614" y="669"/>
      <point x="308" y="669" type="curve" smooth="yes"/>
      <point x="158.547" y="669"/>
      <point x="43" y="544.644"/>
      <point x="71.5766" y="424.475" type="curve" smooth="yes"/>
      <point x="77.5253" y="399.46"/>
      <point x="72.2451" y="369.744"/>
      <point x="59.7377" y="357.847" type="curve" smooth="yes"/>
      <point x="47.2303" y="345.949"/>
      <point x="32.3721" y="356.51"/>
    </contour>
  </outline>
</glyph>
<glyph name="E" format="2">
  <advance width="604"/>
  <unicode hex="0045"/>
  <outline>
    <contour>
      <point x="557.908" y="693" type="curve" smooth="yes"/>
      <point x="521.685" y="541.146"/>
      <point x="365.812" y="507.005"/>
      <point x="274.489" y="584.362" type="curve" smooth="yes"/>
      <point x="232.122" y="619.668"/>
      <point x="222.14" y="664.529"/>
      <point x="172.079" y="664.529" type="curve" smooth="yes"/>
      <point x="122.481" y="664.529"/>
      <point x="112.009" y="612.083"/>
      <point x="113.865" y="581.467" type="curve"/>
      <point x="113.894" y="580.946" type="line"/>
      <point x="121.761" y="423.607"/>
      <point x="212.455" y="254.322"/>
      <point x="166.744" y="66.6683" type="curve"/>
      <point x="166.959" y="67.5974" type="line"/>
      <point x="156.038" y="17.6682"/>
      <point x="131.471" y="-26.0423"/>
      <point x="91.0434" y="-32.7796" type="curve" smooth="yes"/>
      <point x="56.9943" y="-38.0179"/>
      <point x="15.849" y="-16.4533"/>
      <point x="8.69078" y="47.971" type="curve" smooth="yes"/>
      <point x="-17.1758" y="249.36"/>
      <point x="172.866" y="167.156"/>
      <point x="313.874" y="72.7978" type="curve" smooth="yes"/>
      <point x="400.46" y="15.0737"/>
      <point x="515.275" y="62.9437"/>
      <point x="541.916" y="138.3" type="curve" smooth="yes"/>
      <point x="549.912" y="160.917"/>
      <point x="565.454" y="166.251"/>
      <point x="576.762" y="150.259" type="curve" smooth="yes"/>
      <point x="588.071" y="134.266"/>
      <point x="590.738" y="103.184"/>
      <point x="582.742" y="80.5664" type="curve" smooth="yes"/>
      <point x="537.853" y="-46.4034"/>
      <point x="395.119" y="-86.7755"/>
      <point x="298.049" y="-22.0616" type="curve" smooth="yes"/>
      <point x="202.339" y="41.9846"/>
      <point x="104.741" y="85.3557"/>
      <point x="64.7752" y="70.6312" type="curve"/>
      <point x="67.1938" y="69.2143"/>
      <point x="76.0229" y="65.204"/>
      <point x="87.0498" y="66.9005" type="curve" smooth="yes"/>
      <point x="109.672" y="70.6708"/>
      <point x="118.17" y="94"/>
      <point x="121.366" y="108.608" type="curve"/>
      <point x="154.041" y="242.75"/>
      <point x="72.7661" y="398.621"/>
      <point x="64.1994" y="569.955" type="curve" smooth="yes"/>
      <point x="58.6804" y="661.02"/>
      <point x="95.8503" y="764.53"/>
      <point x="172.079" y="764.53" type="curve" smooth="yes"/>
      <point x="230.842" y="764.53"/>
      <point x="263.493" y="701.858"/>
      <point x="293.855" y="676.557" type="curve" smooth="yes"/>
      <point x="373.286" y="609.273"/>
      <point x="490.607" y="654.79"/>
      <point x="512.065" y="733.267" type="curve" smooth="yes"/>
      <point x="512.78" y="736.059" type="line" smooth="yes"/>
      <point x="518.744" y="761.06"/>
      <point x="533.608" y="771.585"/>
      <point x="546.109" y="759.657" type="curve" smooth="yes"/>
      <point x="558.609" y="747.73"/>
      <point x="563.871" y="718.001"/>
    </contour>
    <contour>
      <point x="77.6297" y="326.175" type="line" smooth="yes"/>
      <point x="63.7797" y="326.175"/>
      <point x="52.6297" y="348.475"/>
      <point x="52.6297" y="376.175" type="curve" smooth="yes"/>
      <point x="52.6297" y="403.875"/>
      <point x="63.7797" y="426.175"/>
      <point x="77.6297" y="426.175" type="curve" smooth="yes"/>
      <point x="446.084" y="426.175" type="line" smooth="yes"/>
      <point x="459.934" y="426.175"/>
      <point x="471.084" y="403.875"/>
      <point x="471.084" y="376.175" type="curve" smooth="yes"/>
      <point x="471.084" y="348.475"/>
      <point x="459.934" y="326.175"/>
      <point x="446.084" y="326.175" type="curve" smooth="yes"/>
    </contour>
  </outline>
</glyph>
<glyph name="F" format="2">
  <advance width="555"/>
  <unicode hex="0046"/>
  <outline>
    <contour>
      <point x="102.258" y="82.9042" type="curve" smooth="yes"/>
      <point x="113.033" y="100.308"/>
      <point x="128.713" y="96.9714"/>
      <point x="137.415" y="75.4219" type="curve" smooth="yes"/>
      <point x="141.092" y="66.3172"/>
      <point x="142.684" y="55.7923"/>
      <point x="142.739" y="50.7534" type="curve"/>
      <point x="143.476" y="50.8431" type="line"/>
      <point x="148.195" y="51.6295"/>
      <point x="149.635" y="54.0597"/>
      <point x="149.793" y="54.3367" type="curve"/>
      <point x="149.982" y="55.8828" type="line" smooth="yes"/>
      <point x="171.01" y="206.442"/>
      <point x="12.584" y="368.904"/>
      <point x="36.2436" y="581.84" type="curve" smooth="yes"/>
      <point x="49.4135" y="701.833"/>
      <point x="130.161" y="778.521"/>
      <point x="205.377" y="763.065" type="curve" smooth="yes"/>
      <point x="259.587" y="752.684"/>
      <point x="294.929" y="696.524"/>
      <point x="324.973" y="674.387" type="curve"/>
      <point x="409.332" y="615.058"/>
      <point x="522.743" y="656.634"/>
      <point x="551.282" y="737.181" type="curve" smooth="yes"/>
      <point x="552.337" y="740.308" type="line" smooth="yes"/>
      <point x="559.815" y="763.623"/>
      <point x="575.22" y="770.351"/>
      <point x="586.878" y="755.395" type="curve" smooth="yes"/>
      <point x="598.535" y="740.438"/>
      <point x="601.9" y="709.627"/>
      <point x="594.421" y="686.312" type="curve" smooth="yes"/>
      <point x="549.981" y="547.765"/>
      <point x="404.975" y="512.123"/>
      <point x="308.037" y="580.301" type="curve"/>
      <point x="261.336" y="614.712"/>
      <point x="248.868" y="654.281"/>
      <point x="200.353" y="663.572" type="curve" smooth="yes"/>
      <point x="131.987" y="677.62"/>
      <point x="90.389" y="608.764"/>
      <point x="85.0668" y="560.273" type="curve" smooth="yes"/>
      <point x="68.3904" y="410.186"/>
      <point x="228.007" y="243.23"/>
      <point x="198.524" y="32.1295" type="curve"/>
      <point x="195.449" y="2.92526"/>
      <point x="181.696" y="-43.1336"/>
      <point x="147.718" y="-48.7963" type="curve" smooth="yes"/>
      <point x="133.045" y="-51.3481"/>
      <point x="118.309" y="-45.9151"/>
      <point x="107.233" y="-32.7919" type="curve" smooth="yes"/>
      <point x="90.0867" y="-12.4761"/>
      <point x="76.9507" y="42.0254"/>
    </contour>
    <contour>
      <point x="40.1872" y="439.915" type="curve" smooth="yes"/>
      <point x="412.705" y="439.915" type="line" smooth="yes"/>
      <point x="426.555" y="439.915"/>
      <point x="437.705" y="417.615"/>
      <point x="437.705" y="389.915" type="curve" smooth="yes"/>
      <point x="437.705" y="362.215"/>
      <point x="426.555" y="339.915"/>
      <point x="412.705" y="339.915" type="curve" smooth="yes"/>
      <point x="40.1872" y="339.915" type="line" smooth="yes"/>
      <point x="26.3372" y="339.915"/>
      <point x="15.1872" y="362.215"/>
      <point x="15.1872" y="389.915" type="curve" smooth="yes"/>
      <point x="15.1872" y="417.615"/>
      <point x="26.3372" y="439.915"/>
    </contour>
  </outline>
</glyph>
<glyph name="G" format="2">
  <advance width="618"/>
  <unicode hex="0047"/>
  <outline>
    <contour>
      <point x="586.664" y="605.969" type="curve" smooth="yes"/>
      <point x="596.465" y="586.397"/>
      <point x="596.477" y="554.86"/>
      <point x="586.691" y="535.258" type="curve" smooth="yes"/>
      <point x="576.905" y="515.657"/>
      <point x="561.136" y="515.633"/>
      <point x="551.336" y="535.205" type="curve" smooth="yes"/>
      <point x="505.571" y="626.596"/>
      <point x="406.198" y="684.208"/>
      <point x="300.92" y="667.853" type="curve" smooth="yes"/>
      <point x="146.546" y="644.068"/>
      <point x="59.0949" y="488.314"/>
      <point x="55.9772" y="347.249" type="curve" smooth="yes"/>
      <point x="52.9374" y="204.882"/>
      <point x="141.208" y="40.3811"/>
      <point x="299.718" y="32.0962" type="curve" smooth="yes"/>
      <point x="426.284" y="24.8271"/>
      <point x="535.514" y="128.136"/>
      <point x="559.1" y="237.141" type="curve" smooth="yes"/>
      <point x="571.557" y="293.346"/>
      <point x="546.137" y="329.017"/>
      <point x="501" y="329.017" type="curve" smooth="yes"/>
      <point x="453.067" y="329.017"/>
      <point x="445.952" y="267.511"/>
      <point x="408.693" y="207.795" type="curve" smooth="yes"/>
      <point x="356.219" y="123.164"/>
      <point x="232.19" y="169.766"/>
      <point x="208.771" y="287.505" type="curve" smooth="yes"/>
      <point x="203.651" y="313.243"/>
      <point x="209.89" y="342.206"/>
      <point x="222.759" y="352.446" type="curve" smooth="yes"/>
      <point x="235.628" y="362.685"/>
      <point x="250.11" y="350.207"/>
      <point x="255.229" y="324.469" type="curve" smooth="yes"/>
      <point x="263.81" y="281.332"/>
      <point x="345.781" y="234.794"/>
      <point x="377.337" y="285.687" type="curve" smooth="yes"/>
      <point x="406.416" y="332.292"/>
      <point x="438.67" y="429.017"/>
      <point x="501" y="429.017" type="curve" smooth="yes"/>
      <point x="573.824" y="429.017"/>
      <point x="636.732" y="340.653"/>
      <point x="604.944" y="197.224" type="curve" smooth="yes"/>
      <point x="568.486" y="28.7267"/>
      <point x="429.716" y="-75.4112"/>
      <point x="298.347" y="-67.8662" type="curve" smooth="yes"/>
      <point x="132.792" y="-59.2132"/>
      <point x="1.06258" y="119.208"/>
      <point x="6.02441" y="351.59" type="curve" smooth="yes"/>
      <point x="10.9051" y="572.422"/>
      <point x="135.454" y="742.656"/>
      <point x="297.064" y="767.555" type="curve" smooth="yes"/>
      <point x="409.802" y="785.07"/>
      <point x="526.429" y="726.258"/>
    </contour>
  </outline>
</glyph>
<glyph name="H" format="2">
  <advance width="594"/>
  <unicode hex="0048"/>
  <outline>
    <contour>
      <point x="31.7572" y="83.6312" type="curve" smooth="yes"/>
      <point x="42.7351" y="100.52"/>
      <point x="58.3711" y="96.4412"/>
      <point x="66.8156" y="74.4855" type="curve" smooth="yes"/>
      <point x="69.6507" y="67.1142"/>
      <point x="71.2342" y="58.8192"/>
      <point x="71.6894" y="51.6751" type="curve"/>
      <point x="72.5815" y="51.7608" type="line"/>
      <point x="79.1523" y="53.221"/>
      <point x="78.8492" y="57.018"/>
      <point x="79.0179" y="58.0864" type="curve"/>
      <point x="81.5908" y="77.0159"/>
      <point x="80.4401" y="114.619"/>
      <point x="76.5873" y="143.077" type="curve" smooth="yes"/>
      <point x="68.9003" y="199.855"/>
      <point x="50" y="285.448"/>
      <point x="50" y="351" type="curve" smooth="yes"/>
      <point x="50" y="424.238"/>
      <point x="66.6352" y="495.54"/>
      <point x="73.5713" y="538.916" type="curve" smooth="yes"/>
      <point x="80.2019" y="580.382"/>
      <point x="83.1481" y="613.527"/>
      <point x="79.0179" y="643.914" type="curve"/>
      <point x="78.5987" y="646.569"/>
      <point x="76.2248" y="649.623"/>
      <point x="72.9239" y="650.173" type="curve"/>
      <point x="71.6887" y="650.317" type="line"/>
      <point x="71.3041" y="644.281"/>
      <point x="69.9615" y="635.694"/>
      <point x="66.8156" y="627.514" type="curve" smooth="yes"/>
      <point x="58.3711" y="605.559"/>
      <point x="42.735" y="601.48"/>
      <point x="31.7572" y="618.369" type="curve" smooth="yes"/>
      <point x="13.9623" y="645.746"/>
      <point x="6.75737" y="702.38"/>
      <point x="38.4109" y="735.957" type="curve" smooth="yes"/>
      <point x="49.7872" y="748.024"/>
      <point x="63.8844" y="752.026"/>
      <point x="77.0761" y="749.827" type="curve" smooth="yes"/>
      <point x="107.142" y="744.816"/>
      <point x="121.422" y="707.367"/>
      <point x="126.84" y="673.056" type="curve" smooth="yes"/>
      <point x="127.124" y="671.116" type="line" smooth="yes"/>
      <point x="135.234" y="611.452"/>
      <point x="128.671" y="555.208"/>
      <point x="121.195" y="508.455" type="curve" smooth="yes"/>
      <point x="111.352" y="446.899"/>
      <point x="100" y="403.165"/>
      <point x="100" y="351" type="curve" smooth="yes"/>
      <point x="100" y="302.309"/>
      <point x="112.541" y="260.127"/>
      <point x="124.849" y="169.213" type="curve" smooth="yes"/>
      <point x="130.425" y="128.027"/>
      <point x="133.898" y="80.7156"/>
      <point x="127.124" y="30.8838" type="curve" smooth="yes"/>
      <point x="126.84" y="28.9435" type="line" smooth="yes"/>
      <point x="121.215" y="-6.67809"/>
      <point x="106.717" y="-41.2595"/>
      <point x="77.4185" y="-47.7607" type="curve"/>
      <point x="61.2681" y="-50.4525"/>
      <point x="48.2775" y="-45.2488"/>
      <point x="37.0801" y="-32.4936" type="curve" smooth="yes"/>
      <point x="22.7598" y="-16.1809"/>
      <point x="-1.2153" y="32.9042"/>
    </contour>
    <contour>
      <point x="564.243" y="83.6312" type="curve" smooth="yes"/>
      <point x="590.435" y="43.3348"/>
      <point x="576.27" y="-11.6488"/>
      <point x="559.932" y="-31.3089" type="curve" smooth="yes"/>
      <point x="547.985" y="-45.6851"/>
      <point x="532.676" y="-50.1098"/>
      <point x="518.239" y="-47.6942" type="curve"/>
      <point x="489.283" y="-41.2595"/>
      <point x="474.785" y="-6.67811"/>
      <point x="469.16" y="28.9434" type="curve" smooth="yes"/>
      <point x="468.876" y="30.8838" type="line" smooth="yes"/>
      <point x="462.223" y="79.8262"/>
      <point x="465.455" y="126.323"/>
      <point x="470.849" y="166.961" type="curve" smooth="yes"/>
      <point x="480.66" y="240.883"/>
      <point x="496" y="284.14"/>
      <point x="496" y="351" type="curve" smooth="yes"/>
      <point x="496" y="396.698"/>
      <point x="485.177" y="440.16"/>
      <point x="473.43" y="517.256" type="curve" smooth="yes"/>
      <point x="466.605" y="562.048"/>
      <point x="461.247" y="614.994"/>
      <point x="468.876" y="671.116" type="curve" smooth="yes"/>
      <point x="469.16" y="673.057" type="line" smooth="yes"/>
      <point x="474.578" y="707.367"/>
      <point x="488.858" y="744.816"/>
      <point x="518.924" y="749.827" type="curve" smooth="yes"/>
      <point x="533.136" y="752.196"/>
      <point x="546.875" y="747.322"/>
      <point x="557.59" y="735.956" type="curve" smooth="yes"/>
      <point x="572.295" y="720.357"/>
      <point x="598.542" y="671.137"/>
      <point x="564.243" y="618.369" type="curve" smooth="yes"/>
      <point x="553.265" y="601.48"/>
      <point x="537.629" y="605.559"/>
      <point x="529.184" y="627.514" type="curve" smooth="yes"/>
      <point x="526.349" y="634.886"/>
      <point x="524.766" y="643.181"/>
      <point x="524.311" y="650.317" type="curve"/>
      <point x="523.076" y="650.173" type="line"/>
      <point x="516.495" y="649.076"/>
      <point x="517.169" y="645.096"/>
      <point x="516.982" y="643.914" type="curve"/>
      <point x="514.092" y="622.653"/>
      <point x="516.251" y="579.27"/>
      <point x="521.258" y="546.407" type="curve" smooth="yes"/>
      <point x="529.52" y="492.185"/>
      <point x="546" y="416.862"/>
      <point x="546" y="351" type="curve" smooth="yes"/>
      <point x="546" y="268.019"/>
      <point x="524.213" y="179.263"/>
      <point x="519.175" y="141.304" type="curve" smooth="yes"/>
      <point x="514.9" y="109.096"/>
      <point x="513.709" y="82.1653"/>
      <point x="516.982" y="58.0864" type="curve"/>
      <point x="517.299" y="56.0809"/>
      <point x="519.646" y="52.599"/>
      <point x="523.419" y="51.7608" type="curve"/>
      <point x="524.311" y="51.6762" type="line"/>
      <point x="524.696" y="57.7247"/>
      <point x="526.04" y="66.3106"/>
      <point x="529.184" y="74.4855" type="curve" smooth="yes"/>
      <point x="537.629" y="96.4412"/>
      <point x="553.265" y="100.52"/>
    </contour>
    <contour>
      <point x="75" y="401" type="curve" smooth="yes"/>
      <point x="521" y="401" type="line" smooth="yes"/>
      <point x="534.85" y="401"/>
      <point x="546" y="378.7"/>
      <point x="546" y="351" type="curve" smooth="yes"/>
      <point x="546" y="323.3"/>
      <point x="534.85" y="301"/>
      <point x="521" y="301" type="curve" smooth="yes"/>
      <point x="75" y="301" type="line" smooth="yes"/>
      <point x="61.15" y="301"/>
      <point x="50" y="323.3"/>
      <point x="50" y="351" type="curve" smooth="yes"/>
      <point x="50" y="378.7"/>
      <point x="61.15" y="401"/>
    </contour>
  </outline>
</glyph>
<glyph name="I" format="2">
  <advance width="246"/>
  <unicode hex="0049"/>
  <outline>
    <contour>
      <point x="56.3402" y="52.2199" type="line"/>
      <point x="58.6171" y="79.5431"/>
      <point x="71.4484" y="97.8735"/>
      <point x="85.1099" y="93.3197" type="curve" smooth="yes"/>
      <point x="95.3599" y="89.9031"/>
      <point x="103.048" y="74.5923"/>
      <point x="105.209" y="56.4464" type="curve"/>
      <point x="106.283" y="55.4738"/>
      <point x="112.968" y="51.2073"/>
      <point x="122" y="51.9599" type="curve" smooth="yes"/>
      <point x="132.258" y="52.749"/>
      <point x="137.865" y="58.5424"/>
      <point x="139.974" y="62.082" type="curve"/>
      <point x="139.974" y="239.817"/>
      <point x="56" y="433.899"/>
      <point x="56" y="644" type="curve" smooth="yes"/>
      <point x="56" y="711.378"/>
      <point x="94.3011" y="747.829"/>
      <point x="122" y="749.96" type="curve" smooth="yes"/>
      <point x="150.658" y="752.348"/>
      <point x="188.61" y="731.079"/>
      <point x="190.104" y="664.429" type="curve"/>
      <point x="189.661" y="649.78" type="line"/>
      <point x="187.384" y="622.457"/>
      <point x="174.552" y="604.126"/>
      <point x="160.891" y="608.68" type="curve" smooth="yes"/>
      <point x="150.641" y="612.097"/>
      <point x="142.953" y="627.408"/>
      <point x="140.792" y="645.554" type="curve"/>
      <point x="139.718" y="646.526"/>
      <point x="133.033" y="650.793"/>
      <point x="124.002" y="650.04" type="curve" smooth="yes"/>
      <point x="113.744" y="649.251"/>
      <point x="108.137" y="643.458"/>
      <point x="106.028" y="639.918" type="curve"/>
      <point x="106.028" y="462.183"/>
      <point x="190" y="268.101"/>
      <point x="190" y="58" type="curve" smooth="yes"/>
      <point x="190" y="-9.37754"/>
      <point x="151.699" y="-45.8292"/>
      <point x="124" y="-47.9598" type="curve" smooth="yes"/>
      <point x="95.3425" y="-50.3479"/>
      <point x="57.3898" y="-29.0787"/>
      <point x="55.896" y="37.571" type="curve"/>
    </contour>
  </outline>
</glyph>
<glyph name="J" format="2">
  <advance width="546"/>
  <unicode hex="004A"/>
  <outline>
    <contour>
      <point x="54.7908" y="506.214" type="curve" smooth="yes"/>
      <point x="27.6992" y="534.792"/>
      <point x="8.6889" y="583.344"/>
      <point x="20.2138" y="645.668" type="curve" smooth="yes"/>
      <point x="33.4992" y="717.512"/>
      <point x="83.8818" y="747.929"/>
      <point x="121.423" y="749.044" type="curve" smooth="yes"/>
      <point x="152.486" y="749.994"/>
      <point x="193.48" y="727.501"/>
      <point x="228.613" y="708.366" type="curve" smooth="yes"/>
      <point x="268.78" y="686.49"/>
      <point x="301.873" y="668.353"/>
      <point x="318.26" y="674.01" type="curve"/>
      <point x="319.839" y="686.085"/>
      <point x="334.629" y="749.05"/>
      <point x="381.425" y="749.05" type="curve" smooth="yes"/>
      <point x="411.459" y="749.05"/>
      <point x="441.114" y="735.311"/>
      <point x="449.91" y="673.643" type="curve"/>
      <point x="509.789" y="486.093"/>
      <point x="599.122" y="213.158"/>
      <point x="444.528" y="27.6787" type="curve" smooth="yes"/>
      <point x="388.89" y="-38.0542"/>
      <point x="312.545" y="-69.5855"/>
      <point x="234.506" y="-69.5855" type="curve" smooth="yes"/>
      <point x="98.1457" y="-69.5855"/>
      <point x="-18.3771" y="66.6222"/>
      <point x="24.6794" y="213.474" type="curve" smooth="yes"/>
      <point x="35.115" y="250.168"/>
      <point x="58.2839" y="279.137"/>
      <point x="87.1714" y="281.907" type="curve"/>
      <point x="115.451" y="285.635"/>
      <point x="156.188" y="263.833"/>
      <point x="155.136" y="191.462" type="curve"/>
      <point x="154.176" y="176.937" type="line"/>
      <point x="150.982" y="149.984"/>
      <point x="137.561" y="133.428"/>
      <point x="124.085" y="139.816" type="curve" smooth="yes"/>
      <point x="113.971" y="144.61"/>
      <point x="106.838" y="160.937"/>
      <point x="105.344" y="178.74" type="curve"/>
      <point x="104.048" y="179.735"/>
      <point x="98.4733" y="183.188"/>
      <point x="90.0131" y="182.073" type="curve"/>
      <point x="73.6094" y="180.5"/>
      <point x="68.9667" y="166.946"/>
      <point x="67.9758" y="163.462" type="curve" smooth="yes"/>
      <point x="52.2864" y="109.95"/>
      <point x="148.883" y="30.4146"/>
      <point x="234.506" y="30.4146" type="curve" smooth="yes"/>
      <point x="307.411" y="30.4146"/>
      <point x="373.96" y="60.4504"/>
      <point x="418.952" y="113.605" type="curve" smooth="yes"/>
      <point x="525.293" y="241.191"/>
      <point x="477.532" y="401.183"/>
      <point x="402.77" y="635.482" type="curve"/>
      <point x="402.147" y="644.091" type="line"/>
      <point x="402.106" y="644.52"/>
      <point x="402.054" y="644.902"/>
      <point x="402.042" y="644.965" type="curve"/>
      <point x="402.817" y="642.878" type="line"/>
      <point x="402.739" y="642.997"/>
      <point x="398.503" y="649.05"/>
      <point x="381.425" y="649.05" type="curve" smooth="yes"/>
      <point x="367.046" y="649.05"/>
      <point x="365.728" y="643.576"/>
      <point x="365.331" y="640.543" type="curve" smooth="yes"/>
      <point x="351.31" y="537.008"/>
      <point x="272.073" y="581.055"/>
      <point x="215.475" y="611.88" type="curve" smooth="yes"/>
      <point x="179.306" y="631.579"/>
      <point x="145.517" y="649.769"/>
      <point x="122.177" y="649.056" type="curve" smooth="yes"/>
      <point x="87.5786" y="648.028"/>
      <point x="69.7194" y="622.479"/>
      <point x="67.2558" y="611.631" type="curve"/>
      <point x="67.5284" y="610.633"/>
      <point x="69.2832" y="605.029"/>
      <point x="75.4638" y="597.641" type="curve"/>
      <point x="78.1163" y="594.666" type="line"/>
      <point x="90.3668" y="581.743"/>
      <point x="95.0276" y="551.615"/>
      <point x="88.5664" y="527.114" type="curve" smooth="yes"/>
      <point x="82.1052" y="502.613"/>
      <point x="67.0412" y="493.292"/>
    </contour>
  </outline>
</glyph>
<glyph name="K" format="2">
  <advance width="674"/>
  <unicode hex="004B"/>
  <outline>
    <contour>
      <point x="566.69" y="724.864" type="curve" smooth="yes"/>
      <point x="623.696" y="525.947"/>
      <point x="493.048" y="322.008"/>
      <point x="293.575" y="329.007" type="curve" smooth="yes"/>
      <point x="219.641" y="331.445"/>
      <point x="145.325" y="334.855"/>
      <point x="123.838" y="304.142" type="curve"/>
      <point x="123.838" y="299.112"/>
      <point x="121.186" y="259"/>
      <point x="99" y="259" type="curve" smooth="yes"/>
      <point x="85.15" y="259"/>
      <point x="74" y="281.3"/>
      <point x="74" y="309" type="curve" smooth="yes"/>
      <point x="74" y="438.587"/>
      <point x="180.911" y="432.735"/>
      <point x="294.425" y="428.993" type="curve" smooth="yes"/>
      <point x="440.637" y="423.863"/>
      <point x="557.94" y="554.299"/>
      <point x="523.31" y="675.136" type="curve" smooth="yes"/>
      <point x="516.423" y="699.168"/>
      <point x="520.552" y="729.605"/>
      <point x="532.568" y="743.38" type="curve" smooth="yes"/>
      <point x="544.584" y="757.154"/>
      <point x="559.802" y="748.896"/>
    </contour>
    <contour>
      <point x="294" y="429" type="curve" smooth="yes"/>
      <point x="463.791" y="429"/>
      <point x="558.603" y="248.396"/>
      <point x="596.107" y="63.0813" type="curve" smooth="yes"/>
      <point x="598.237" y="52.9667"/>
      <point x="598.606" y="52.8391"/>
      <point x="603.676" y="51.7125" type="curve"/>
      <point x="604.324" y="51.6239" type="line"/>
      <point x="604.463" y="54.6521"/>
      <point x="605.273" y="63.587"/>
      <point x="608.657" y="73.0621" type="curve" smooth="yes"/>
      <point x="616.707" y="95.6024"/>
      <point x="632.261" y="100.787"/>
      <point x="643.531" y="84.6866" type="curve" smooth="yes"/>
      <point x="662.453" y="57.6549"/>
      <point x="663.98" y="9.92717"/>
      <point x="647.776" y="-20.4652" type="curve" smooth="yes"/>
      <point x="635.304" y="-43.8562"/>
      <point x="615.681" y="-51.3292"/>
      <point x="598.239" y="-47.6942" type="curve" smooth="yes"/>
      <point x="568.055" y="-40.9866"/>
      <point x="556.028" y="-4.23192"/>
      <point x="549.959" y="24.5972" type="curve" smooth="yes"/>
      <point x="549.826" y="25.2404" type="line" smooth="yes"/>
      <point x="519.506" y="175.056"/>
      <point x="442.443" y="329"/>
      <point x="294" y="329" type="curve" smooth="yes"/>
      <point x="280.15" y="329"/>
      <point x="269" y="351.3"/>
      <point x="269" y="379" type="curve" smooth="yes"/>
      <point x="269" y="406.7"/>
      <point x="280.15" y="429"/>
    </contour>
    <contour>
      <point x="24.4176" y="77.4482" type="curve" smooth="yes"/>
      <point x="33.6828" y="98.0375"/>
      <point x="49.4295" y="99.695"/>
      <point x="59.7241" y="81.1647" type="curve" smooth="yes"/>
      <point x="64.9123" y="71.8258"/>
      <point x="67.4698" y="59.3835"/>
      <point x="67.6561" y="52.3059" type="curve"/>
      <point x="68.2983" y="52.1723"/>
      <point x="69.406" y="52"/>
      <point x="71" y="52" type="curve" smooth="yes"/>
      <point x="72.0888" y="52"/>
      <point x="73.0909" y="52.1004"/>
      <point x="74" y="52.2679" type="curve"/>
      <point x="74" y="649.731" type="line"/>
      <point x="73.1143" y="649.896"/>
      <point x="72.1126" y="650"/>
      <point x="71" y="650" type="curve" smooth="yes"/>
      <point x="69.6268" y="650"/>
      <point x="68.5135" y="649.867"/>
      <point x="67.6567" y="649.704" type="curve"/>
      <point x="67.5542" y="645.809"/>
      <point x="65.5097" y="631.249"/>
      <point x="59.7242" y="620.835" type="curve" smooth="yes"/>
      <point x="49.4296" y="602.305"/>
      <point x="33.6829" y="603.962"/>
      <point x="24.4177" y="624.552" type="curve" smooth="yes"/>
      <point x="10.77" y="654.88"/>
      <point x="11.2465" y="701.693"/>
      <point x="32.7683" y="729.847" type="curve" smooth="yes"/>
      <point x="43.9888" y="744.525"/>
      <point x="58.3737" y="750"/>
      <point x="71" y="750" type="curve" smooth="yes"/>
      <point x="84.044" y="750"/>
      <point x="96.6695" y="743.998"/>
      <point x="106.59" y="732.213" type="curve" smooth="yes"/>
      <point x="118.148" y="718.482"/>
      <point x="134.573" y="685.429"/>
      <point x="124" y="646.565" type="curve"/>
      <point x="124" y="55.3966" type="line"/>
      <point x="125.957" y="48.1757"/>
      <point x="133.254" y="0.883366"/>
      <point x="106.232" y="-30.6345" type="curve" smooth="yes"/>
      <point x="95.8039" y="-42.7971"/>
      <point x="82.9981" y="-48"/>
      <point x="71" y="-48" type="curve" smooth="yes"/>
      <point x="55.6508" y="-48"/>
      <point x="40.4687" y="-40.2154"/>
      <point x="29.6976" y="-23.4676" type="curve" smooth="yes"/>
      <point x="18.2849" y="-5.72193"/>
      <point x="4.96281" y="34.2153"/>
    </contour>
  </outline>
</glyph>
<glyph name="M" format="2">
  <advance width="744"/>
  <unicode hex="004D"/>
  <outline>
    <contour>
      <point x="17.705" y="44.7801" type="curve" smooth="yes"/>
      <point x="21.201" y="71.5831"/>
      <point x="34.8044" y="87.5319"/>
      <point x="48.2059" y="80.5399" type="curve" smooth="yes"/>
      <point x="58.2745" y="75.2867"/>
      <point x="65.1333" y="58.594"/>
      <point x="66.246" y="43.2218" type="curve"/>
      <point x="66.6297" y="42.9058"/>
      <point x="73.0951" y="37.9419"/>
      <point x="82.955" y="39.228" type="curve"/>
      <point x="96.9393" y="41.3257"/>
      <point x="104.639" y="54.3216"/>
      <point x="107.738" y="62.7336" type="curve"/>
      <point x="171.134" y="219.11"/>
      <point x="-48.6905" y="445.903"/>
      <point x="67.2657" y="671.581" type="curve" smooth="yes"/>
      <point x="93.2021" y="722.088"/>
      <point x="136.635" y="758.646"/>
      <point x="185.607" y="757.451" type="curve" smooth="yes"/>
      <point x="235.643" y="756.231"/>
      <point x="275.379" y="718.374"/>
      <point x="301.932" y="674.119" type="curve" smooth="yes"/>
      <point x="389.274" y="527.728"/>
      <point x="353.709" y="344.802"/>
      <point x="353.709" y="204.461" type="curve" smooth="yes"/>
      <point x="353.709" y="193.47"/>
      <point x="357.6" y="182.758"/>
      <point x="371.517" y="182.758" type="curve" smooth="yes"/>
      <point x="390.568" y="182.758"/>
      <point x="390.395" y="200.494"/>
      <point x="390.395" y="204.461" type="curve" smooth="yes"/>
      <point x="390.395" y="344.802"/>
      <point x="354.83" y="527.728"/>
      <point x="442.172" y="674.119" type="curve" smooth="yes"/>
      <point x="468.99" y="718.816"/>
      <point x="508.298" y="756.227"/>
      <point x="558.497" y="757.451" type="curve" smooth="yes"/>
      <point x="610.27" y="758.714"/>
      <point x="651.671" y="718.431"/>
      <point x="676.66" y="671.932" type="curve"/>
      <point x="791.739" y="446.684"/>
      <point x="573.317" y="217.701"/>
      <point x="634.846" y="63.8792" type="curve"/>
      <point x="638.579" y="55.0125"/>
      <point x="648.219" y="41.1676"/>
      <point x="661.149" y="39.228" type="curve"/>
      <point x="668.133" y="38.317"/>
      <point x="674.867" y="40.7585"/>
      <point x="677.859" y="43.2222" type="curve"/>
      <point x="678.258" y="48.735"/>
      <point x="681.934" y="73.2554"/>
      <point x="695.9" y="80.5404" type="curve" smooth="yes"/>
      <point x="709.301" y="87.5313"/>
      <point x="722.904" y="71.5812"/>
      <point x="726.4" y="44.7779" type="curve" smooth="yes"/>
      <point x="739.495" y="-55.6361"/>
      <point x="660.451" y="-60.8909"/>
      <point x="657.653" y="-60.5259" type="curve"/>
      <point x="628.791" y="-56.1967"/>
      <point x="609.331" y="-30.7473"/>
      <point x="596.201" y="0.438934" type="curve"/>
      <point x="503.279" y="232.742"/>
      <point x="719.589" y="447.179"/>
      <point x="642.077" y="599.677" type="curve"/>
      <point x="629.915" y="622.175"/>
      <point x="600.348" y="658.464"/>
      <point x="559.107" y="657.459" type="curve" smooth="yes"/>
      <point x="521.387" y="656.539"/>
      <point x="492.629" y="628.044"/>
      <point x="474.234" y="597.385" type="curve" smooth="yes"/>
      <point x="409.785" y="489.365"/>
      <point x="440.395" y="360.519"/>
      <point x="440.395" y="204.461" type="curve" smooth="yes"/>
      <point x="440.395" y="144.773"/>
      <point x="418.573" y="82.758"/>
      <point x="371.517" y="82.758" type="curve" smooth="yes"/>
      <point x="331.331" y="82.758"/>
      <point x="303.709" y="132.027"/>
      <point x="303.709" y="204.461" type="curve" smooth="yes"/>
      <point x="303.709" y="360.519"/>
      <point x="334.319" y="489.365"/>
      <point x="269.87" y="597.385" type="curve" smooth="yes"/>
      <point x="251.74" y="627.602"/>
      <point x="222.554" y="656.543"/>
      <point x="184.997" y="657.459" type="curve" smooth="yes"/>
      <point x="147.578" y="658.371"/>
      <point x="117.61" y="630.046"/>
      <point x="102.141" y="599.923" type="curve" smooth="yes"/>
      <point x="23.5973" y="447.058"/>
      <point x="240.513" y="231.55"/>
      <point x="147.284" y="1.58453" type="curve"/>
      <point x="137.515" y="-24.9322"/>
      <point x="116.876" y="-55.9622"/>
      <point x="86.4519" y="-60.5259" type="curve"/>
      <point x="53.9753" y="-64.762"/>
      <point x="6.66842" y="-39.834"/>
    </contour>
  </outline>
</glyph>
<glyph name="N" format="2">
  <advance width="654"/>
  <unicode hex="004E"/>
  <outline>
    <contour>
      <point x="10.568" y="55.8565" type="curve" smooth="yes"/>
      <point x="14.2964" y="82.534"/>
      <point x="28.0363" y="98.0078"/>
      <point x="41.375" y="90.5511" type="curve" smooth="yes"/>
      <point x="51.403" y="84.9452"/>
      <point x="58.0622" y="67.9887"/>
      <point x="58.9459" y="54.0812" type="curve"/>
      <point x="62.5856" y="51.3101"/>
      <point x="70.8908" y="47.3044"/>
      <point x="82.1462" y="48.5124" type="curve"/>
      <point x="99.5404" y="50.7349"/>
      <point x="108.703" y="65.4006"/>
      <point x="114.615" y="77.152" type="curve"/>
      <point x="187.686" y="234.336"/>
      <point x="-13.3245" y="427.41"/>
      <point x="62.6854" y="664.142" type="curve" smooth="yes"/>
      <point x="81.709" y="721.373"/>
      <point x="115.129" y="761.038"/>
      <point x="165.541" y="759.785" type="curve" smooth="yes"/>
      <point x="213.615" y="758.556"/>
      <point x="243.484" y="716.683"/>
      <point x="264.4" y="669.917" type="curve" smooth="yes"/>
      <point x="347.88" y="478.984"/>
      <point x="350.877" y="271.913"/>
      <point x="427.626" y="96.3765" type="curve" smooth="yes"/>
      <point x="440.393" y="67.8286"/>
      <point x="458.977" y="41.0441"/>
      <point x="490.823" y="40.2529" type="curve" smooth="yes"/>
      <point x="525.602" y="39.3888"/>
      <point x="543.959" y="68.8247"/>
      <point x="551.197" y="90.6017" type="curve" smooth="yes"/>
      <point x="602.764" y="251.205"/>
      <point x="398.222" y="464.406"/>
      <point x="504.686" y="693.423" type="curve" smooth="yes"/>
      <point x="516.714" y="720.32"/>
      <point x="538.183" y="749.297"/>
      <point x="570.631" y="753.442" type="curve" smooth="yes"/>
      <point x="605.39" y="757.328"/>
      <point x="660.359" y="733.531"/>
      <point x="643.353" y="642.272" type="curve" smooth="yes"/>
      <point x="638.516" y="616.316"/>
      <point x="624.174" y="603.208"/>
      <point x="611.196" y="612.882" type="curve" smooth="yes"/>
      <point x="602.53" y="619.342"/>
      <point x="596.832" y="634.282"/>
      <point x="595.598" y="648.476" type="curve"/>
      <point x="593.987" y="649.703"/>
      <point x="585.636" y="654.965"/>
      <point x="573.62" y="653.622" type="curve" smooth="yes"/>
      <point x="555.92" y="651.361"/>
      <point x="546.399" y="636.711"/>
      <point x="541.629" y="626.045" type="curve" smooth="yes"/>
      <point x="467.504" y="466.593"/>
      <point x="669.27" y="273.282"/>
      <point x="593.053" y="35.9038" type="curve" smooth="yes"/>
      <point x="574.029" y="-21.3284"/>
      <point x="540.609" y="-60.9918"/>
      <point x="490.202" y="-59.7394" type="curve" smooth="yes"/>
      <point x="441.206" y="-58.5221"/>
      <point x="411.243" y="-16.9842"/>
      <point x="390.173" y="30.1289" type="curve" smooth="yes"/>
      <point x="306.692" y="221.062"/>
      <point x="303.695" y="428.133"/>
      <point x="226.946" y="603.669" type="curve" smooth="yes"/>
      <point x="214.172" y="632.232"/>
      <point x="195.585" y="659.009"/>
      <point x="164.911" y="659.793" type="curve" smooth="yes"/>
      <point x="130.181" y="660.656"/>
      <point x="111.779" y="631.22"/>
      <point x="104.541" y="609.444" type="curve" smooth="yes"/>
      <point x="52.8372" y="448.414"/>
      <point x="257.978" y="238.739"/>
      <point x="150.547" y="7.64135" type="curve"/>
      <point x="135.346" y="-22.5722"/>
      <point x="119.765" y="-46.8824"/>
      <point x="85.0799" y="-51.3142" type="curve"/>
      <point x="49.1268" y="-55.173"/>
      <point x="-1.63458" y="-31.458"/>
    </contour>
  </outline>
</glyph>
<glyph name="O" format="2">
  <advance width="593"/>
  <unicode hex="004F"/>
  <outline>
    <contour>
      <point x="54.505" y="351.251" type="curve" smooth="yes"/>
      <point x="54.505" y="499.507"/>
      <point x="140.461" y="666.41"/>
      <point x="295.95" y="666.41" type="curve" smooth="yes"/>
      <point x="451.571" y="666.41"/>
      <point x="538.35" y="499.316"/>
      <point x="538.35" y="351.251" type="curve" smooth="yes"/>
      <point x="538.35" y="202.069"/>
      <point x="451.521" y="35.0463"/>
      <point x="295.95" y="35.0463" type="curve" smooth="yes"/>
      <point x="140.51" y="35.0463"/>
      <point x="54.505" y="201.878"/>
    </contour>
    <contour>
      <point x="4.505" y="351.251" type="curve" smooth="yes"/>
      <point x="4.505" y="119.773"/>
      <point x="128.6" y="-64.9537"/>
      <point x="295.95" y="-64.9537" type="curve" smooth="yes"/>
      <point x="463.169" y="-64.9537"/>
      <point x="588.35" y="119.581"/>
      <point x="588.35" y="351.251" type="curve" smooth="yes"/>
      <point x="588.35" y="581.948"/>
      <point x="463.119" y="766.41"/>
      <point x="295.95" y="766.41" type="curve" smooth="yes"/>
      <point x="128.649" y="766.41"/>
      <point x="4.50501" y="581.757"/>
    </contour>
  </outline>
</glyph>
<glyph name="P" format="2">
  <advance width="595"/>
  <unicode hex="0050"/>
  <outline>
    <contour>
      <point x="37.2168" y="74.3388" type="curve" smooth="yes"/>
      <point x="46.1381" y="95.5268"/>
      <point x="61.849" y="98.2201"/>
      <point x="72.443" y="80.3776" type="curve" smooth="yes"/>
      <point x="77.7611" y="71.4208"/>
      <point x="80.6339" y="59.1291"/>
      <point x="81.0579" y="49.2357" type="curve"/>
      <point x="81.8883" y="49.0667"/>
      <point x="82.9035" y="48.9435"/>
      <point x="84.1036" y="48.9435" type="curve" smooth="yes"/>
      <point x="85.8142" y="48.9435"/>
      <point x="87.2356" y="49.2084"/>
      <point x="87.8954" y="49.4002" type="curve"/>
      <point x="87.8959" y="675.565" type="line" smooth="yes"/>
      <point x="87.8959" y="703.265"/>
      <point x="99.0459" y="725.565"/>
      <point x="112.896" y="725.565" type="curve" smooth="yes"/>
      <point x="126.746" y="725.565"/>
      <point x="137.896" y="703.265"/>
      <point x="137.896" y="675.565" type="curve" smooth="yes"/>
      <point x="138.023" y="54.0356" type="line"/>
      <point x="146.573" y="8.82439"/>
      <point x="129.076" y="-22.2058"/>
      <point x="120.216" y="-32.7785" type="curve" smooth="yes"/>
      <point x="109.692" y="-45.3358"/>
      <point x="96.6216" y="-51.0565"/>
      <point x="84.1035" y="-51.0565" type="curve" smooth="yes"/>
      <point x="70.1021" y="-51.0565"/>
      <point x="56.6852" y="-44.0579"/>
      <point x="46.4767" y="-30.3086" type="curve" smooth="yes"/>
      <point x="34.2269" y="-13.8099"/>
      <point x="18.7916" y="30.5793"/>
    </contour>
    <contour>
      <point x="39.2437" y="343.733" type="curve" smooth="yes"/>
      <point x="-41.5081" y="564.612"/>
      <point x="104.848" y="768.265"/>
      <point x="301.932" y="770.809" type="curve" smooth="yes"/>
      <point x="379.95" y="771.877"/>
      <point x="462.781" y="739.004"/>
      <point x="525.222" y="652.72" type="curve" smooth="yes"/>
      <point x="566.69" y="594.44"/>
      <point x="589.773" y="525.954"/>
      <point x="588.277" y="449.675" type="curve" smooth="yes"/>
      <point x="585.678" y="274.305"/>
      <point x="448.461" y="145.742"/>
      <point x="302.506" y="140.213" type="curve" smooth="yes"/>
      <point x="235.731" y="138.06"/>
      <point x="164.868" y="161.666"/>
      <point x="102.033" y="222.297" type="curve" smooth="yes"/>
      <point x="89.5586" y="234.334"/>
      <point x="84.3613" y="264.108"/>
      <point x="90.3796" y="289.057" type="curve" smooth="yes"/>
      <point x="96.3979" y="314.005"/>
      <point x="111.285" y="324.399"/>
      <point x="123.759" y="312.363" type="curve" smooth="yes"/>
      <point x="178.15" y="259.88"/>
      <point x="240.967" y="238.242"/>
      <point x="301.665" y="240.199" type="curve" smooth="yes"/>
      <point x="429.724" y="245.05"/>
      <point x="536.847" y="354.575"/>
      <point x="538.311" y="453.354" type="curve" smooth="yes"/>
      <point x="538.867" y="481.724"/>
      <point x="531.1" y="522.238"/>
      <point x="496.637" y="570.674" type="curve" smooth="yes"/>
      <point x="445.803" y="640.917"/>
      <point x="374.388" y="671.799"/>
      <point x="302.269" y="670.811" type="curve" smooth="yes"/>
      <point x="170.626" y="669.112"/>
      <point x="25.9691" y="549.467"/>
      <point x="79.6053" y="402.757" type="curve" smooth="yes"/>
      <point x="87.78" y="380.396"/>
      <point x="85.3605" y="349.233"/>
      <point x="74.1804" y="332.883" type="curve" smooth="yes"/>
      <point x="63" y="316.534"/>
      <point x="47.4182" y="321.373"/>
    </contour>
  </outline>
</glyph>
<glyph name="Q" format="2">
  <advance width="659"/>
  <unicode hex="0051"/>
  <outline>
    <contour>
      <point x="55" y="349" type="curve" smooth="yes"/>
      <point x="55" y="498.4"/>
      <point x="152.401" y="672"/>
      <point x="329" y="672" type="curve" smooth="yes"/>
      <point x="505.599" y="672"/>
      <point x="603" y="498.4"/>
      <point x="603" y="349" type="curve" smooth="yes"/>
      <point x="603" y="199.477"/>
      <point x="505.507" y="25"/>
      <point x="329" y="25" type="curve" smooth="yes"/>
      <point x="152.493" y="25"/>
      <point x="55" y="199.477"/>
    </contour>
    <contour>
      <point x="5" y="349" type="curve" smooth="yes"/>
      <point x="5" y="110.523"/>
      <point x="145.507" y="-75"/>
      <point x="329" y="-75" type="curve" smooth="yes"/>
      <point x="512.493" y="-75"/>
      <point x="653" y="110.523"/>
      <point x="653" y="349" type="curve" smooth="yes"/>
      <point x="653" y="587.6"/>
      <point x="512.401" y="772"/>
      <point x="329" y="772" type="curve" smooth="yes"/>
      <point x="145.599" y="772"/>
      <point x="5" y="587.6"/>
    </contour>
    <contour>
      <point x="210" y="324" type="curve" smooth="yes"/>
      <point x="196.15" y="324"/>
      <point x="185" y="301.7"/>
      <point x="185" y="274" type="curve" smooth="yes"/>
      <point x="185" y="246.3"/>
      <point x="196.15" y="224"/>
      <point x="210" y="224" type="curve" smooth="yes"/>
      <point x="246.162" y="224"/>
      <point x="271.853" y="201.05"/>
      <point x="279.839" y="181.884" type="curve" smooth="yes"/>
      <point x="305.839" y="120.188"/>
      <point x="120.307" y="37.9477"/>
      <point x="48.1199" y="-41.0069" type="curve" smooth="yes"/>
      <point x="-33.537" y="-128.108"/>
      <point x="12.7591" y="-209.844"/>
      <point x="56.1897" y="-223.416" type="curve" smooth="yes"/>
      <point x="85.2496" y="-232.26"/>
      <point x="112.749" y="-203.479"/>
      <point x="129.244" y="-190.456" type="curve" smooth="yes"/>
      <point x="206.455" y="-128.508"/>
      <point x="313.397" y="-215.99"/>
      <point x="417.959" y="-223.957" type="curve" smooth="yes"/>
      <point x="515.3" y="-232.068"/>
      <point x="618.967" y="-170.322"/>
      <point x="650.265" y="-47.7389" type="curve" smooth="yes"/>
      <point x="656.564" y="-23.0691"/>
      <point x="651.704" y="6.93294"/>
      <point x="639.369" y="19.5303" type="curve" smooth="yes"/>
      <point x="627.034" y="32.1276"/>
      <point x="612.033" y="22.4086"/>
      <point x="605.735" y="-2.26114" type="curve" smooth="yes"/>
      <point x="605.009" y="-4.97384" type="line" smooth="yes"/>
      <point x="586.271" y="-71.9714"/>
      <point x="510.534" y="-131.585"/>
      <point x="419.996" y="-124.04" type="curve" smooth="yes"/>
      <point x="317.471" y="-116.228"/>
      <point x="204.818" y="-22.0756"/>
      <point x="110.756" y="-97.5435" type="curve" smooth="yes"/>
      <point x="88.2098" y="-115.343"/>
      <point x="83.3068" y="-120.884"/>
      <point x="77.1639" y="-123.401" type="curve"/>
      <point x="159.689" y="-37.3688"/>
      <point x="403.946" y="42.5567"/>
      <point x="318.161" y="246.116" type="curve" smooth="yes"/>
      <point x="296.983" y="296.942"/>
      <point x="254.032" y="324"/>
    </contour>
  </outline>
</glyph>
<glyph name="R" format="2">
  <advance width="585"/>
  <unicode hex="0052"/>
  <outline>
    <contour>
      <point x="44.5989" y="74.6259" type="curve" smooth="yes"/>
      <point x="53.3338" y="96.1224"/>
      <point x="69.0188" y="99.364"/>
      <point x="79.767" y="81.8942" type="curve" smooth="yes"/>
      <point x="85.1582" y="73.1315"/>
      <point x="88.1606" y="60.9379"/>
      <point x="88.7004" y="50.4905" type="curve"/>
      <point x="89.6425" y="50.2255"/>
      <point x="91.2202" y="49.9159"/>
      <point x="93.2404" y="49.9159" type="curve" smooth="yes"/>
      <point x="99.2604" y="49.9159"/>
      <point x="102.431" y="52.7086"/>
      <point x="102.798" y="53.1831" type="curve"/>
      <point x="100.991" y="11.5566" type="line"/>
      <point x="99.0423" y="16.3531"/>
      <point x="95.392" y="36.9111"/>
      <point x="95.392" y="43.0919" type="curve" smooth="yes"/>
      <point x="95.392" y="688.676" type="line" smooth="yes"/>
      <point x="95.392" y="716.376"/>
      <point x="106.542" y="738.676"/>
      <point x="120.392" y="738.676" type="curve" smooth="yes"/>
      <point x="134.242" y="738.676"/>
      <point x="145.392" y="716.376"/>
      <point x="145.392" y="688.676" type="curve" smooth="yes"/>
      <point x="145.47" y="55.4355" type="line"/>
      <point x="153.688" y="14.1927"/>
      <point x="140.241" y="-17.465"/>
      <point x="129.968" y="-30.7641" type="curve" smooth="yes"/>
      <point x="119.199" y="-44.7066"/>
      <point x="105.655" y="-50.0841"/>
      <point x="93.2405" y="-50.0841" type="curve" smooth="yes"/>
      <point x="79.7042" y="-50.0841"/>
      <point x="66.6274" y="-43.8874"/>
      <point x="56.4357" y="-31.7546" type="curve" smooth="yes"/>
      <point x="44.31" y="-17.3194"/>
      <point x="25.2425" y="26.9899"/>
    </contour>
    <contour>
      <point x="43.8229" y="449.585" type="curve" smooth="yes"/>
      <point x="5.95305" y="644.977"/>
      <point x="142.985" y="779.964"/>
      <point x="295.381" y="772.586" type="curve" smooth="yes"/>
      <point x="365.607" y="769.346"/>
      <point x="437.849" y="734.533"/>
      <point x="486.438" y="651.705" type="curve" smooth="yes"/>
      <point x="514.066" y="604.729"/>
      <point x="527.853" y="553.1"/>
      <point x="527.602" y="498.601" type="curve" smooth="yes"/>
      <point x="526.195" y="346.191"/>
      <point x="411.232" y="242.488"/>
      <point x="291.52" y="233.677" type="curve" smooth="yes"/>
      <point x="230.535" y="229.311"/>
      <point x="166.069" y="248.83"/>
      <point x="109.531" y="303.373" type="curve" smooth="yes"/>
      <point x="84.7022" y="327.325"/>
      <point x="104.185" y="415.407"/>
      <point x="129.748" y="394.774" type="curve" smooth="yes"/>
      <point x="506.74" y="90.4865" type="line" smooth="yes"/>
      <point x="515.743" y="83.2201"/>
      <point x="521.233" y="68.8476"/>
      <point x="522.41" y="54.164" type="curve"/>
      <point x="523.079" y="54.0413"/>
      <point x="524.246" y="54.028"/>
      <point x="524.536" y="54.028" type="curve"/>
      <point x="527.235" y="54.2499" type="line"/>
      <point x="527.601" y="59.3289"/>
      <point x="529.683" y="73.6327"/>
      <point x="536.707" y="84.1483" type="curve" smooth="yes"/>
      <point x="547.795" y="100.747"/>
      <point x="563.403" y="96.2579"/>
      <point x="571.702" y="74.0822" type="curve" smooth="yes"/>
      <point x="581.343" y="48.3211"/>
      <point x="582.176" y="11.587"/>
      <point x="567.783" y="-16.2849" type="curve" smooth="yes"/>
      <point x="555.649" y="-39.7797"/>
      <point x="537.291" y="-45.972"/>
      <point x="524.536" y="-45.972" type="curve" smooth="yes"/>
      <point x="494.136" y="-45.972"/>
      <point x="476.99" y="-16.4235"/>
      <point x="472.582" y="10.2209" type="curve"/>
      <point x="111.036" y="302.041" type="line"/>
      <point x="131.253" y="393.443" type="line"/>
      <point x="178.817" y="347.558"/>
      <point x="235.039" y="329.697"/>
      <point x="289.706" y="333.611" type="curve" smooth="yes"/>
      <point x="395.636" y="341.407"/>
      <point x="476.954" y="429.975"/>
      <point x="477.6" y="500.012" type="curve" smooth="yes"/>
      <point x="477.6" y="515.977"/>
      <point x="473.584" y="542.307"/>
      <point x="454.028" y="575.559" type="curve" smooth="yes"/>
      <point x="417.746" y="637.407"/>
      <point x="359.699" y="669.592"/>
      <point x="294.199" y="672.614" type="curve" smooth="yes"/>
      <point x="183.625" y="677.967"/>
      <point x="69.9374" y="591.527"/>
      <point x="90.4429" y="485.727" type="curve" smooth="yes"/>
      <point x="95.4486" y="459.9"/>
      <point x="89.0823" y="431.047"/>
      <point x="76.1685" y="421.036" type="curve" smooth="yes"/>
      <point x="63.2548" y="411.024"/>
      <point x="48.8286" y="423.757"/>
    </contour>
  </outline>
</glyph>
<glyph name="S" format="2">
  <advance width="582"/>
  <unicode hex="0053"/>
  <outline>
    <contour>
      <point x="561.502" y="516.757" type="curve" smooth="yes"/>
      <point x="566.876" y="491.228"/>
      <point x="560.927" y="462.022"/>
      <point x="548.163" y="451.272" type="curve" smooth="yes"/>
      <point x="535.398" y="440.523"/>
      <point x="520.795" y="452.421"/>
      <point x="515.42" y="477.951" type="curve" smooth="yes"/>
      <point x="496.447" y="568.073"/>
      <point x="410.381" y="656.361"/>
      <point x="289.669" y="666.767" type="curve" smooth="yes"/>
      <point x="176.225" y="676.718"/>
      <point x="91.4764" y="601.992"/>
      <point x="96.0075" y="550.135" type="curve" smooth="yes"/>
      <point x="112.026" y="370.733"/>
      <point x="495.08" y="464.743"/>
      <point x="559.895" y="245.992" type="curve" smooth="yes"/>
      <point x="612.599" y="72.6258"/>
      <point x="474.356" y="-84.9732"/>
      <point x="289.344" y="-63.7219" type="curve" smooth="yes"/>
      <point x="167.334" y="-49.9295"/>
      <point x="54.2087" y="38.5061"/>
      <point x="19.4432" y="184.006" type="curve" smooth="yes"/>
      <point x="13.4715" y="209"/>
      <point x="18.7242" y="238.736"/>
      <point x="31.2207" y="250.679" type="curve" smooth="yes"/>
      <point x="43.7171" y="262.623"/>
      <point x="58.585" y="252.117"/>
      <point x="64.5567" y="227.124" type="curve" smooth="yes"/>
      <point x="86.4696" y="135.415"/>
      <point x="172.768" y="49.6165"/>
      <point x="292.177" y="36.1182" type="curve" smooth="yes"/>
      <point x="401.944" y="23.5098"/>
      <point x="544.482" y="104.213"/>
      <point x="517.027" y="194.527" type="curve" smooth="yes"/>
      <point x="465.474" y="368.518"/>
      <point x="72.5246" y="244.288"/>
      <point x="46.77" y="532.739" type="curve" smooth="yes"/>
      <point x="33.0151" y="690.157"/>
      <point x="160.763" y="778.172"/>
      <point x="291.832" y="766.674" type="curve" smooth="yes"/>
      <point x="414.637" y="756.088"/>
      <point x="530.093" y="665.944"/>
    </contour>
  </outline>
</glyph>
<glyph name="T" format="2">
  <advance width="708"/>
  <unicode hex="0054"/>
  <outline>
    <contour>
      <point x="0.1987" y="664.735" type="curve" smooth="yes"/>
      <point x="9.14566" y="691.576"/>
      <point x="23.4326" y="709.524"/>
      <point x="37.2222" y="721.016" type="curve"/>
      <point x="136.316" y="806.897"/>
      <point x="249.867" y="687"/>
      <point x="354" y="687" type="curve" smooth="yes"/>
      <point x="458.116" y="687"/>
      <point x="572.758" y="806.921"/>
      <point x="670.825" y="720.975" type="curve"/>
      <point x="684.907" y="709.239"/>
      <point x="699.127" y="690.758"/>
      <point x="707.801" y="664.735" type="curve" smooth="yes"/>
      <point x="715.484" y="641.687"/>
      <point x="712.391" y="610.763"/>
      <point x="700.867" y="595.397" type="curve" smooth="yes"/>
      <point x="689.344" y="580.032"/>
      <point x="673.881" y="586.217"/>
      <point x="666.199" y="609.265" type="curve" smooth="yes"/>
      <point x="665.146" y="612.424"/>
      <point x="661.434" y="620.476"/>
      <point x="651.175" y="629.025" type="curve"/>
      <point x="571.503" y="698.851"/>
      <point x="463.436" y="587"/>
      <point x="354" y="587" type="curve" smooth="yes"/>
      <point x="243.912" y="587"/>
      <point x="137.605" y="699.035"/>
      <point x="56.7778" y="628.984" type="curve"/>
      <point x="47.0447" y="620.873"/>
      <point x="43.1565" y="613.331"/>
      <point x="41.8012" y="609.265" type="curve" smooth="yes"/>
      <point x="34.1186" y="586.217"/>
      <point x="18.6564" y="580.032"/>
      <point x="7.13248" y="595.397" type="curve" smooth="yes"/>
      <point x="-4.39142" y="610.763"/>
      <point x="-7.48392" y="641.687"/>
    </contour>
    <contour>
      <point x="329" y="636" type="line" smooth="yes"/>
      <point x="329" y="663.7"/>
      <point x="340.15" y="686"/>
      <point x="354" y="686" type="curve" smooth="yes"/>
      <point x="367.85" y="686"/>
      <point x="379" y="663.7"/>
      <point x="379" y="636" type="curve" smooth="yes"/>
      <point x="379" y="0" type="line" smooth="yes"/>
      <point x="379" y="-27.7"/>
      <point x="367.85" y="-50"/>
      <point x="354" y="-50" type="curve" smooth="yes"/>
      <point x="340.15" y="-50"/>
      <point x="329" y="-27.7"/>
      <point x="329" y="0" type="curve" smooth="yes"/>
    </contour>
  </outline>
</glyph>
<glyph name="U" format="2">
  <advance width="639"/>
  <unicode hex="0055"/>
  <outline>
    <contour>
      <point x="48.0556" y="617.093" type="curve" smooth="yes"/>
      <point x="24.4996" y="656.353"/>
      <point x="36.4751" y="708.128"/>
      <point x="51.8417" y="728.804" type="curve" smooth="yes"/>
      <point x="64.1683" y="745.389"/>
      <point x="80.5568" y="750.671"/>
      <point x="94.5247" y="748.849" type="curve"/>
      <point x="105.049" y="747.679"/>
      <point x="115.596" y="741.898"/>
      <point x="124.299" y="731.367" type="curve" smooth="yes"/>
      <point x="137.132" y="715.838"/>
      <point x="146.975" y="689.246"/>
      <point x="146.975" y="655.504" type="curve" smooth="yes"/>
      <point x="146.975" y="458.219"/>
      <point x="42.0354" y="297.263"/>
      <point x="110.783" y="158.07" type="curve" smooth="yes"/>
      <point x="155.437" y="67.8697"/>
      <point x="229.754" y="18.0368"/>
      <point x="345.323" y="29.0906" type="curve" smooth="yes"/>
      <point x="438.514" y="37.1071"/>
      <point x="501.437" y="84.9831"/>
      <point x="537.574" y="158.139" type="curve" smooth="yes"/>
      <point x="606.124" y="295.237"/>
      <point x="487.903" y="455.967"/>
      <point x="487.903" y="655.504" type="curve" smooth="yes"/>
      <point x="487.903" y="696.292"/>
      <point x="502.768" y="722.693"/>
      <point x="515.145" y="735.135" type="curve" smooth="yes"/>
      <point x="527.843" y="747.899"/>
      <point x="543.324" y="752.67"/>
      <point x="558.625" y="748.497" type="curve" smooth="yes"/>
      <point x="567.904" y="746.055"/>
      <point x="577.265" y="740.204"/>
      <point x="584.809" y="729.902" type="curve" smooth="yes"/>
      <point x="606.742" y="699.95"/>
      <point x="606.389" y="642.299"/>
      <point x="583.034" y="613.105" type="curve" smooth="yes"/>
      <point x="571.29" y="598.423"/>
      <point x="555.925" y="605.514"/>
      <point x="548.584" y="629.003" type="curve" smooth="yes"/>
      <point x="546.082" y="637.009"/>
      <point x="545.042" y="645.421"/>
      <point x="544.979" y="649.702" type="curve"/>
      <point x="541.809" y="649.087"/>
      <point x="539.306" y="647.463"/>
      <point x="538.062" y="646.212" type="curve"/>
      <point x="541.371" y="490.687"/>
      <point x="671.227" y="284.022"/>
      <point x="573.036" y="87.643" type="curve" smooth="yes"/>
      <point x="524.605" y="-10.4006"/>
      <point x="447.085" y="-62.2478"/>
      <point x="347.531" y="-70.8116" type="curve" smooth="yes"/>
      <point x="225.199" y="-82.513"/>
      <point x="134.021" y="-31"/>
      <point x="75.2422" y="87.733" type="curve" smooth="yes"/>
      <point x="-19.5982" y="279.755"/>
      <point x="94" y="495.101"/>
      <point x="96.8656" y="647.185" type="curve"/>
      <point x="95.8128" y="647.91"/>
      <point x="94.0911" y="648.745"/>
      <point x="91.5106" y="649.032" type="curve"/>
      <point x="88.8374" y="649.17" type="line"/>
      <point x="88.8177" y="648.109"/>
      <point x="88.3728" y="635.753"/>
      <point x="83.2654" y="623.495" type="curve" smooth="yes"/>
      <point x="74.3989" y="602.216"/>
      <point x="58.6951" y="599.36"/>
    </contour>
  </outline>
</glyph>
<glyph name="V" format="2">
  <advance width="625"/>
  <unicode hex="0056"/>
  <outline>
    <contour>
      <point x="14.4177" y="624.552" type="curve" smooth="yes"/>
      <point x="1.36661" y="653.554"/>
      <point x="0.794811" y="698.727"/>
      <point x="21.277" y="727.814" type="curve" smooth="yes"/>
      <point x="32.8472" y="744.245"/>
      <point x="48.1336" y="750"/>
      <point x="61" y="750" type="curve" smooth="yes"/>
      <point x="73.6148" y="750"/>
      <point x="85.7956" y="744.388"/>
      <point x="95.521" y="733.449" type="curve" smooth="yes"/>
      <point x="106.184" y="721.455"/>
      <point x="120.442" y="694.606"/>
      <point x="116.059" y="664.628" type="curve"/>
      <point x="294.924" y="56.8817" type="line"/>
      <point x="296.066" y="55.8372"/>
      <point x="302.262" y="51"/>
      <point x="312" y="51" type="curve" smooth="yes"/>
      <point x="319.649" y="51"/>
      <point x="325.946" y="54.0199"/>
      <point x="329.051" y="56.8609" type="curve"/>
      <point x="508.648" y="663.741" type="line"/>
      <point x="506.622" y="690.599"/>
      <point x="515.881" y="717.995"/>
      <point x="527.287" y="731.755" type="curve" smooth="yes"/>
      <point x="538.136" y="744.842"/>
      <point x="551.686" y="750"/>
      <point x="564" y="750" type="curve" smooth="yes"/>
      <point x="579.744" y="750"/>
      <point x="595.42" y="741.242"/>
      <point x="606.195" y="722.789" type="curve" smooth="yes"/>
      <point x="616.656" y="704.875"/>
      <point x="627.822" y="667.515"/>
      <point x="611.522" y="626.765" type="curve" smooth="yes"/>
      <point x="602.87" y="605.135"/>
      <point x="587.198" y="601.652"/>
      <point x="576.383" y="618.956" type="curve" smooth="yes"/>
      <point x="570.954" y="627.643"/>
      <point x="567.927" y="639.786"/>
      <point x="567.38" y="649.646" type="curve"/>
      <point x="566.547" y="649.835"/>
      <point x="565.421" y="650"/>
      <point x="564" y="650" type="curve"/>
      <point x="562.668" y="649.941" type="line"/>
      <point x="377.679" y="24.8491" type="line"/>
      <point x="373.482" y="-18.3652"/>
      <point x="337.08" y="-49"/>
      <point x="312" y="-49" type="curve" smooth="yes"/>
      <point x="284.418" y="-49"/>
      <point x="251.413" y="-27.61"/>
      <point x="246.309" y="24.9283" type="curve"/>
      <point x="62.3606" y="649.94" type="line"/>
      <point x="61" y="650" type="line"/>
      <point x="59.52" y="650"/>
      <point x="58.4093" y="649.849"/>
      <point x="57.6564" y="649.699" type="curve"/>
      <point x="57.5541" y="645.812"/>
      <point x="55.5103" y="631.25"/>
      <point x="49.7242" y="620.835" type="curve" smooth="yes"/>
      <point x="39.4296" y="602.305"/>
      <point x="23.6829" y="603.963"/>
    </contour>
  </outline>
</glyph>
<glyph name="W" format="2">
  <advance width="792"/>
  <unicode hex="0057"/>
  <outline>
    <contour>
      <point x="785.254" y="651.873" type="curve" smooth="yes"/>
      <point x="781.894" y="625"/>
      <point x="768.373" y="608.774"/>
      <point x="754.937" y="615.493" type="curve" smooth="yes"/>
      <point x="744.845" y="620.538"/>
      <point x="737.873" y="637.074"/>
      <point x="736.62" y="653.218" type="curve"/>
      <point x="735.594" y="654.091"/>
      <point x="729.312" y="658.651"/>
      <point x="719.887" y="657.143" type="curve" smooth="yes"/>
      <point x="705.428" y="655.077"/>
      <point x="698.293" y="642.195"/>
      <point x="694.483" y="632.669" type="curve" smooth="yes"/>
      <point x="630.577" y="474.502"/>
      <point x="830.561" y="247.511"/>
      <point x="715.429" y="24.1549" type="curve" smooth="yes"/>
      <point x="690.228" y="-24.9874"/>
      <point x="647.025" y="-63.24"/>
      <point x="597.574" y="-60.9922" type="curve"/>
      <point x="549.253" y="-59.894"/>
      <point x="507.497" y="-22.9829"/>
      <point x="480.965" y="21.6397" type="curve" smooth="yes"/>
      <point x="392.638" y="168.468"/>
      <point x="428.995" y="355.42"/>
      <point x="428.995" y="490.501" type="curve"/>
      <point x="428.852" y="491.152"/>
      <point x="422.566" y="513"/>
      <point x="401" y="513" type="curve" smooth="yes"/>
      <point x="383.288" y="513"/>
      <point x="374.09" y="496.005"/>
      <point x="373.004" y="490.884" type="curve"/>
      <point x="373.004" y="355.388"/>
      <point x="409.359" y="168.465"/>
      <point x="321.035" y="21.64" type="curve" smooth="yes"/>
      <point x="295.355" y="-21.5485"/>
      <point x="254.297" y="-59.8585"/>
      <point x="204.426" y="-60.9919" type="curve"/>
      <point x="155.473" y="-63.217"/>
      <point x="111.692" y="-24.8308"/>
      <point x="86.5706" y="24.1553" type="curve" smooth="yes"/>
      <point x="-28.5614" y="247.511"/>
      <point x="171.423" y="474.502"/>
      <point x="107.517" y="632.67" type="curve" smooth="yes"/>
      <point x="103.083" y="643.754"/>
      <point x="95.315" y="655.257"/>
      <point x="82.1126" y="657.143" type="curve" smooth="yes"/>
      <point x="75.4253" y="658.213"/>
      <point x="69.9672" y="656.443"/>
      <point x="66.0067" y="653.7" type="curve"/>
      <point x="65.3795" y="653.219" type="line"/>
      <point x="64.7354" y="644.919"/>
      <point x="60.2675" y="622.095"/>
      <point x="47.0634" y="615.493" type="curve" smooth="yes"/>
      <point x="33.627" y="608.775"/>
      <point x="20.1056" y="625"/>
      <point x="16.7465" y="651.873" type="curve" smooth="yes"/>
      <point x="4.31543" y="751.321"/>
      <point x="85.3585" y="756.941"/>
      <point x="85.7813" y="756.873" type="curve"/>
      <point x="114.486" y="752.772"/>
      <point x="134.659" y="724.89"/>
      <point x="146.483" y="695.33" type="curve" smooth="yes"/>
      <point x="239.161" y="465.953"/>
      <point x="40.566" y="252.72"/>
      <point x="121.453" y="95.7997" type="curve" smooth="yes"/>
      <point x="136.473" y="66.5096"/>
      <point x="165.907" y="37.2811"/>
      <point x="203.716" y="38.9964" type="curve"/>
      <point x="241.581" y="39.857"/>
      <point x="271.068" y="68.2609"/>
      <point x="288.965" y="98.3597" type="curve" smooth="yes"/>
      <point x="354.494" y="207.292"/>
      <point x="323" y="331.735"/>
      <point x="323" y="492" type="curve" smooth="yes"/>
      <point x="323" y="568.88"/>
      <point x="364.618" y="613"/>
      <point x="401" y="613" type="curve" smooth="yes"/>
      <point x="436.042" y="613"/>
      <point x="479" y="569.362"/>
      <point x="479" y="492" type="curve" smooth="yes"/>
      <point x="479" y="331.735"/>
      <point x="447.506" y="207.292"/>
      <point x="513.09" y="98.2681" type="curve" smooth="yes"/>
      <point x="530.932" y="68.2613"/>
      <point x="560.419" y="39.8573"/>
      <point x="598.568" y="38.9871" type="curve"/>
      <point x="636.093" y="37.2814"/>
      <point x="665.527" y="66.5099"/>
      <point x="680.571" y="95.8448" type="curve" smooth="yes"/>
      <point x="761.434" y="252.72"/>
      <point x="562.839" y="465.953"/>
      <point x="655.478" y="695.235" type="curve" smooth="yes"/>
      <point x="667.341" y="724.891"/>
      <point x="687.515" y="752.772"/>
      <point x="716.113" y="756.857" type="curve" smooth="yes"/>
      <point x="748.098" y="761.975"/>
      <point x="795.651" y="735.052"/>
    </contour>
  </outline>
</glyph>
<glyph name="X" format="2">
  <advance width="554"/>
  <unicode hex="0058"/>
  <outline>
    <contour>
      <point x="11.469" y="617.313" type="curve" smooth="yes"/>
      <point x="-14.6467" y="654.622"/>
      <point x="-3.52304" y="710.309"/>
      <point x="13.4475" y="732.121" type="curve" smooth="yes"/>
      <point x="25.9047" y="748.132"/>
      <point x="42.3495" y="752.695"/>
      <point x="56.3938" y="749.769" type="curve"/>
      <point x="87.6802" y="744.248"/>
      <point x="100.497" y="700.492"/>
      <point x="104.677" y="674.019" type="curve"/>
      <point x="104.514" y="674.982" type="line"/>
      <point x="129.726" y="535.346"/>
      <point x="159.878" y="401"/>
      <point x="277" y="401" type="curve" smooth="yes"/>
      <point x="393.058" y="401"/>
      <point x="423.237" y="535.141"/>
      <point x="448.486" y="674.982" type="curve"/>
      <point x="448.323" y="674.019" type="line"/>
      <point x="452.617" y="701.213"/>
      <point x="465.632" y="744.44"/>
      <point x="497.667" y="749.779" type="curve"/>
      <point x="514.261" y="753.236"/>
      <point x="532.454" y="745.725"/>
      <point x="544.332" y="726.071" type="curve" smooth="yes"/>
      <point x="560.415" y="699.458"/>
      <point x="563.699" y="649.84"/>
      <point x="543.243" y="618.369" type="curve" smooth="yes"/>
      <point x="532.265" y="601.48"/>
      <point x="516.629" y="605.559"/>
      <point x="508.184" y="627.514" type="curve" smooth="yes"/>
      <point x="505.35" y="634.884"/>
      <point x="503.764" y="643.181"/>
      <point x="503.307" y="650.366" type="curve"/>
      <point x="502.333" y="650.221" type="line"/>
      <point x="498.548" y="649.59"/>
      <point x="497.295" y="648.038"/>
      <point x="497.099" y="647.788" type="curve"/>
      <point x="496.763" y="647.358"/>
      <point x="496.413" y="646.645"/>
      <point x="495.677" y="641.981" type="curve"/>
      <point x="470.354" y="501.732"/>
      <point x="429.77" y="301"/>
      <point x="277" y="301" type="curve" smooth="yes"/>
      <point x="123.268" y="301"/>
      <point x="82.6786" y="501.551"/>
      <point x="57.3233" y="641.981" type="curve"/>
      <point x="56.5153" y="647.098"/>
      <point x="56.0136" y="647.936"/>
      <point x="55.7834" y="648.241" type="curve"/>
      <point x="55.6066" y="648.475"/>
      <point x="54.6031" y="649.702"/>
      <point x="51.6063" y="650.231" type="curve"/>
      <point x="50.6756" y="650.374" type="line"/>
      <point x="50.5371" y="647.35"/>
      <point x="49.7277" y="638.414"/>
      <point x="46.3433" y="628.938" type="curve" smooth="yes"/>
      <point x="38.2931" y="606.397"/>
      <point x="22.7392" y="601.213"/>
    </contour>
    <contour>
      <point x="11.469" y="84.6867" type="curve" smooth="yes"/>
      <point x="22.7393" y="100.787"/>
      <point x="38.2932" y="95.6023"/>
      <point x="46.3433" y="73.0619" type="curve" smooth="yes"/>
      <point x="49.0706" y="65.4254"/>
      <point x="50.4232" y="57.1038"/>
      <point x="50.6718" y="51.6725" type="curve"/>
      <point x="51.5013" y="51.7412" type="line"/>
      <point x="54.8762" y="52.5353"/>
      <point x="55.9759" y="54.4521"/>
      <point x="56.046" y="54.5752" type="curve"/>
      <point x="56.2068" y="54.8574"/>
      <point x="56.6428" y="55.7678"/>
      <point x="57.2215" y="59.433" type="curve" smooth="yes"/>
      <point x="84.8471" y="225.187"/>
      <point x="94.4777" y="478.999"/>
      <point x="277" y="478.999" type="curve" smooth="yes"/>
      <point x="458.562" y="478.999"/>
      <point x="469.102" y="225.21"/>
      <point x="495.819" y="59.1862" type="curve" smooth="yes"/>
      <point x="496.538" y="54.6325"/>
      <point x="497.214" y="52.9162"/>
      <point x="502.418" y="51.7596" type="curve"/>
      <point x="503.311" y="51.6788" type="line"/>
      <point x="503.696" y="57.7203"/>
      <point x="505.039" y="66.3069"/>
      <point x="508.184" y="74.4842" type="curve" smooth="yes"/>
      <point x="516.629" y="96.44"/>
      <point x="532.265" y="100.519"/>
      <point x="543.243" y="83.6302" type="curve" smooth="yes"/>
      <point x="565.498" y="49.3912"/>
      <point x="559.056" y="-2.27154"/>
      <point x="542.445" y="-26.6399" type="curve" smooth="yes"/>
      <point x="529.706" y="-45.3288"/>
      <point x="512.174" y="-50.194"/>
      <point x="497.582" y="-47.7619" type="curve"/>
      <point x="464.824" y="-40.4826"/>
      <point x="452.753" y="-0.143325"/>
      <point x="448.181" y="28.8115" type="curve" smooth="yes"/>
      <point x="418.852" y="211.071"/>
      <point x="417.345" y="378.999"/>
      <point x="277" y="378.999" type="curve" smooth="yes"/>
      <point x="135.527" y="378.999"/>
      <point x="135.156" y="210.831"/>
      <point x="104.778" y="28.5647" type="curve" smooth="yes"/>
      <point x="100.367" y="0.629031"/>
      <point x="88.052" y="-40.3192"/>
      <point x="56.4986" y="-47.7436" type="curve"/>
      <point x="37.9359" y="-50.8374"/>
      <point x="22.7799" y="-43.788"/>
      <point x="10.8874" y="-26.2058" type="curve" smooth="yes"/>
      <point x="-6.46687" y="-0.546233"/>
      <point x="-11.3588" y="52.0755"/>
    </contour>
  </outline>
</glyph>
<glyph name="Y" format="2">
  <advance width="676"/>
  <unicode hex="0059"/>
  <outline>
    <contour>
      <point x="70.9954" y="619.589" type="curve" smooth="yes"/>
      <point x="48.8654" y="656.472"/>
      <point x="58.3534" y="706.792"/>
      <point x="73.5713" y="728.645" type="curve" smooth="yes"/>
      <point x="85.9591" y="746.435"/>
      <point x="102.773" y="751.7"/>
      <point x="116.507" y="749.909" type="curve"/>
      <point x="126.863" y="748.758"/>
      <point x="137.29" y="743.008"/>
      <point x="145.875" y="732.076" type="curve" smooth="yes"/>
      <point x="158.433" y="716.086"/>
      <point x="167" y="689.594"/>
      <point x="167" y="658" type="curve" smooth="yes"/>
      <point x="167" y="597.568"/>
      <point x="148.429" y="544.448"/>
      <point x="135.695" y="507.727" type="curve" smooth="yes"/>
      <point x="115.665" y="449.964"/>
      <point x="103.118" y="418.361"/>
      <point x="110.182" y="384.716" type="curve" smooth="yes"/>
      <point x="124.984" y="311.383"/>
      <point x="218.134" y="248"/>
      <point x="338" y="248" type="curve" smooth="yes"/>
      <point x="456.822" y="248"/>
      <point x="550.01" y="311.352"/>
      <point x="564.884" y="385.039" type="curve" smooth="yes"/>
      <point x="571.638" y="417.201"/>
      <point x="561.266" y="444.394"/>
      <point x="539.305" y="507.727" type="curve" smooth="yes"/>
      <point x="525.319" y="548.06"/>
      <point x="508" y="600.345"/>
      <point x="508" y="658" type="curve" smooth="yes"/>
      <point x="508" y="698.424"/>
      <point x="522.755" y="724.424"/>
      <point x="534.892" y="736.572" type="curve" smooth="yes"/>
      <point x="547.315" y="749.006"/>
      <point x="562.416" y="753.622"/>
      <point x="577.32" y="749.557" type="curve" smooth="yes"/>
      <point x="588.089" y="746.723"/>
      <point x="599.207" y="739.149"/>
      <point x="607.38" y="724.427" type="curve" smooth="yes"/>
      <point x="627.067" y="688.963"/>
      <point x="619.609" y="638.549"/>
      <point x="601.25" y="615.6" type="curve" smooth="yes"/>
      <point x="589.505" y="600.919"/>
      <point x="574.14" y="608.011"/>
      <point x="566.8" y="631.5" type="curve" smooth="yes"/>
      <point x="564.277" y="639.574"/>
      <point x="563.313" y="647.9"/>
      <point x="563.274" y="650.537" type="curve"/>
      <point x="562.581" y="650.404"/>
      <point x="560.309" y="649.729"/>
      <point x="558.449" y="648.167" type="curve"/>
      <point x="559.708" y="632.515"/>
      <point x="565.476" y="607.726"/>
      <point x="580.391" y="564.716" type="curve" smooth="yes"/>
      <point x="599.336" y="510.083"/>
      <point x="628.711" y="430.748"/>
      <point x="611.116" y="346.961" type="curve" smooth="yes"/>
      <point x="582.247" y="203.929"/>
      <point x="450.814" y="148"/>
      <point x="338" y="148" type="curve" smooth="yes"/>
      <point x="224.611" y="148"/>
      <point x="92.8154" y="203.619"/>
      <point x="63.884" y="346.961" type="curve" smooth="yes"/>
      <point x="46.045" y="431.909"/>
      <point x="77.5961" y="515.653"/>
      <point x="94.609" y="564.715" type="curve" smooth="yes"/>
      <point x="106.97" y="600.361"/>
      <point x="115.425" y="626.955"/>
      <point x="116.648" y="649.315" type="curve"/>
      <point x="116.607" y="649.335"/>
      <point x="115.519" y="649.866"/>
      <point x="113.493" y="650.092" type="curve"/>
      <point x="110.528" y="650.478"/>
      <point x="112.085" y="640.101"/>
      <point x="106.206" y="625.991" type="curve" smooth="yes"/>
      <point x="97.339" y="604.711"/>
      <point x="81.6353" y="601.856"/>
    </contour>
    <contour>
      <point x="566" y="421" type="curve" smooth="yes"/>
      <point x="566" y="448.7"/>
      <point x="577.15" y="471"/>
      <point x="591" y="471" type="curve" smooth="yes"/>
      <point x="604.85" y="471"/>
      <point x="616" y="448.7"/>
      <point x="616" y="421" type="curve" smooth="yes"/>
      <point x="616" y="393.672"/>
      <point x="626.347" y="360.157"/>
      <point x="648.137" y="285.386" type="curve" smooth="yes"/>
      <point x="660.997" y="241.259"/>
      <point x="677.75" y="177.86"/>
      <point x="668.059" y="111.414" type="curve" smooth="yes"/>
      <point x="650.808" y="-10.7801"/>
      <point x="560.438" y="-77.1209"/>
      <point x="475.63" y="-67.9248" type="curve" smooth="yes"/>
      <point x="406.248" y="-60.2157"/>
      <point x="349.653" y="-2.57966"/>
      <point x="304.679" y="17.1456" type="curve" smooth="yes"/>
      <point x="206.13" y="60.0777"/>
      <point x="97.4696" y="39.7699"/>
      <point x="46.3143" y="-39.5208" type="curve" smooth="yes"/>
      <point x="35.367" y="-56.489"/>
      <point x="19.7237" y="-52.5231"/>
      <point x="11.2396" y="-30.6286" type="curve" smooth="yes"/>
      <point x="2.7555" y="-8.73409"/>
      <point x="4.7385" y="22.5525"/>
      <point x="15.6857" y="39.5208" type="curve" smooth="yes"/>
      <point x="84.5305" y="146.23"/>
      <point x="211.87" y="159.922"/>
      <point x="315.338" y="114.847" type="curve" smooth="yes"/>
      <point x="377.176" y="87.7249"/>
      <point x="410.452" y="39.4712"/>
      <point x="478.353" y="31.9267" type="curve" smooth="yes"/>
      <point x="559.562" y="23.1209"/>
      <point x="613.192" y="90.7801"/>
      <point x="620" y="139" type="curve" smooth="yes"/>
      <point x="623.056" y="159.952"/>
      <point x="618.729" y="187.712"/>
      <point x="604.939" y="235.03" type="curve" smooth="yes"/>
      <point x="590.113" y="285.906"/>
      <point x="566" y="355.856"/>
    </contour>
  </outline>
</glyph>
<glyph name="Z" format="2">
  <advance width="634"/>
  <unicode hex="005A"/>
  <outline>
    <contour>
      <point x="49.7881" y="639.43" type="curve" smooth="yes"/>
      <point x="41.1111" y="682.815"/>
      <point x="55.72" y="715.127"/>
      <point x="65.8566" y="728.42" type="curve" smooth="yes"/>
      <point x="79.721" y="746.602"/>
      <point x="99.1709" y="753.415"/>
      <point x="117.488" y="749.752" type="curve" smooth="yes"/>
      <point x="145.178" y="744.214"/>
      <point x="159.958" y="716.056"/>
      <point x="172.212" y="697.675" type="curve"/>
      <point x="172.424" y="697.35" type="line"/>
      <point x="244.312" y="584.636"/>
      <point x="416.649" y="584.403"/>
      <point x="489.693" y="697.532" type="curve"/>
      <point x="489.431" y="697.115" type="line"/>
      <point x="507.016" y="725.89"/>
      <point x="521.224" y="745.094"/>
      <point x="544.512" y="749.752" type="curve" smooth="yes"/>
      <point x="578.665" y="756.582"/>
      <point x="635.965" y="729.663"/>
      <point x="608.26" y="622.111" type="curve"/>
      <point x="43.0359" y="1.17588" type="line"/>
      <point x="51.2508" y="58.2327" type="line"/>
      <point x="51.3829" y="58.0294"/>
      <point x="57.6043" y="50.1702"/>
      <point x="70.5124" y="52.7518" type="curve" smooth="yes"/>
      <point x="82.9519" y="55.2397"/>
      <point x="89.1704" y="67.3348"/>
      <point x="99.3698" y="84.0229" type="curve" smooth="yes"/>
      <point x="201.505" y="247.659"/>
      <point x="432.495" y="247.659"/>
      <point x="534.73" y="83.8604" type="curve" smooth="yes"/>
      <point x="547.113" y="63.5986"/>
      <point x="551.245" y="55.2002"/>
      <point x="563.488" y="52.7518" type="curve" smooth="yes"/>
      <point x="568.741" y="51.7011"/>
      <point x="573.49" y="52.5149"/>
      <point x="577.175" y="54.2918" type="curve"/>
      <point x="578.51" y="55.0089" type="line"/>
      <point x="578.858" y="62.7982"/>
      <point x="584.074" y="85.3852"/>
      <point x="595.381" y="92.6212" type="curve" smooth="yes"/>
      <point x="608.572" y="101.063"/>
      <point x="622.589" y="86.6207"/>
      <point x="626.811" y="60.2385" type="curve" smooth="yes"/>
      <point x="635.47" y="6.11849"/>
      <point x="611.881" y="-25.4775"/>
      <point x="600.606" y="-35.1923" type="curve" smooth="yes"/>
      <point x="588.146" y="-45.9274"/>
      <point x="573.117" y="-49.6729"/>
      <point x="558.512" y="-46.7519" type="curve" smooth="yes"/>
      <point x="541.624" y="-43.3742"/>
      <point x="526.205" y="-31.3916"/>
      <point x="503.37" y="5.97698" type="curve" smooth="yes"/>
      <point x="419.505" y="140.341"/>
      <point x="214.495" y="140.341"/>
      <point x="130.73" y="6.13953" type="curve" smooth="yes"/>
      <point x="113.015" y="-22.8495"/>
      <point x="98.9696" y="-42.0555"/>
      <point x="75.4875" y="-46.7519" type="curve" smooth="yes"/>
      <point x="41.335" y="-53.5824"/>
      <point x="-15.9652" y="-26.6631"/>
      <point x="11.7396" y="80.8884" type="curve"/>
      <point x="576.964" y="701.824" type="line"/>
      <point x="568.749" y="644.767" type="line"/>
      <point x="568.617" y="644.97"/>
      <point x="562.396" y="652.83"/>
      <point x="549.487" y="650.248" type="curve" smooth="yes"/>
      <point x="537.048" y="647.76"/>
      <point x="530.826" y="635.669"/>
      <point x="520.569" y="618.885" type="curve"/>
      <point x="520.307" y="618.467" type="line"/>
      <point x="429.351" y="477.597"/>
      <point x="231.688" y="477.363"/>
      <point x="141.576" y="618.65" type="curve"/>
      <point x="141.788" y="618.325" type="line"/>
      <point x="129.117" y="637.331"/>
      <point x="125.298" y="647.691"/>
      <point x="112.512" y="650.248" type="curve" smooth="yes"/>
      <point x="107.043" y="651.342"/>
      <point x="101.97" y="650.423"/>
      <point x="98.048" y="648.43" type="curve"/>
      <point x="97.4783" y="648.108" type="line"/>
      <point x="96.8069" y="639.128"/>
      <point x="92.894" y="620.064"/>
      <point x="82.2846" y="611.576" type="curve" smooth="yes"/>
      <point x="69.4253" y="601.288"/>
      <point x="54.9317" y="613.711"/>
    </contour>
  </outline>
</glyph>
<glyph name="underscore" format="2">
  <advance width="541"/>
  <unicode hex="005F"/>
  <outline>
    <contour>
      <point x="520.625" y="50" type="line" smooth="yes"/>
      <point x="534.475" y="50"/>
      <point x="545.625" y="27.7"/>
      <point x="545.625" y="0" type="curve" smooth="yes"/>
      <point x="545.625" y="-27.7"/>
      <point x="534.475" y="-50"/>
      <point x="520.625" y="-50" type="curve" smooth="yes"/>
      <point x="20.8141" y="-50" type="line" smooth="yes"/>
      <point x="6.96409" y="-50"/>
      <point x="-4.18591" y="-27.7"/>
      <point x="-4.18591" y="0" type="curve" smooth="yes"/>
      <point x="-4.18591" y="27.7"/>
      <point x="6.96409" y="50"/>
      <point x="20.8141" y="50" type="curve" smooth="yes"/>
    </contour>
  </outline>
</glyph>
<glyph name="grave" format="2">
  <advance width="281"/>
  <unicode hex="0060"/>
  <outline>
    <contour>
      <point x="266.252" y="633.884" type="line" smooth="yes"/>
      <point x="279.793" y="628.065"/>
      <point x="288.352" y="601.578"/>
      <point x="285.442" y="574.496" type="curve" smooth="yes"/>
      <point x="282.533" y="547.414"/>
      <point x="269.289" y="530.297"/>
      <point x="255.748" y="536.116" type="curve" smooth="yes"/>
      <point x="13.748" y="640.116" type="line" smooth="yes"/>
      <point x="0.207088" y="645.935"/>
      <point x="-8.35169" y="672.422"/>
      <point x="-5.44209" y="699.504" type="curve" smooth="yes"/>
      <point x="-2.53249" y="726.586"/>
      <point x="10.7111" y="743.703"/>
      <point x="24.252" y="737.884" type="curve" smooth="yes"/>
    </contour>
  </outline>
</glyph>
<glyph name="a" format="2">
  <advance width="523"/>
  <unicode hex="0061"/>
  <outline>
    <contour>
      <point x="32.8061" y="401.016" type="curve" smooth="yes"/>
      <point x="59.8582" y="505.359"/>
      <point x="143.867" y="566.062"/>
      <point x="233.131" y="565" type="curve" smooth="yes"/>
      <point x="368.462" y="563.781"/>
      <point x="456.809" y="438.824"/>
      <point x="446" y="306.715" type="curve"/>
      <point x="446" y="53.0294" type="line"/>
      <point x="446.232" y="52.9112"/>
      <point x="450.145" y="51"/>
      <point x="456" y="51" type="curve" smooth="yes"/>
      <point x="460.284" y="51"/>
      <point x="463.792" y="52.1394"/>
      <point x="464.996" y="52.7961" type="curve"/>
      <point x="464.884" y="65.8732"/>
      <point x="467.704" y="81.3574"/>
      <point x="474.383" y="92.0437" type="curve" smooth="yes"/>
      <point x="485.198" y="109.348"/>
      <point x="500.87" y="105.865"/>
      <point x="509.522" y="84.2346" type="curve" smooth="yes"/>
      <point x="522.783" y="51.0804"/>
      <point x="520.514" y="4.91726"/>
      <point x="500.537" y="-23.7941" type="curve" smooth="yes"/>
      <point x="487.991" y="-41.826"/>
      <point x="471.138" y="-49"/>
      <point x="456" y="-49" type="curve" smooth="yes"/>
      <point x="442.218" y="-49"/>
      <point x="429.187" y="-43.6213"/>
      <point x="418.588" y="-33.246" type="curve" smooth="yes"/>
      <point x="403.885" y="-18.8524"/>
      <point x="383.282" y="16.8719"/>
      <point x="396" y="64.8609" type="curve"/>
      <point x="396" y="314.477" type="line"/>
      <point x="403.157" y="385.546"/>
      <point x="330.365" y="464.122"/>
      <point x="232.851" y="465" type="curve" smooth="yes"/>
      <point x="150.488" y="465.98"/>
      <point x="91.1948" y="408.987"/>
      <point x="77.1939" y="354.983" type="curve" smooth="yes"/>
      <point x="70.8185" y="330.392"/>
      <point x="55.7875" y="320.861"/>
      <point x="43.4921" y="333.611" type="curve" smooth="yes"/>
      <point x="31.1967" y="346.362"/>
      <point x="26.4308" y="376.424"/>
    </contour>
    <contour>
      <point x="446" y="310" type="curve" smooth="yes"/>
      <point x="446" y="23.7757"/>
      <point x="118.779" y="234.371"/>
      <point x="61.2761" y="135.048" type="curve" smooth="yes"/>
      <point x="36.8961" y="93.5121"/>
      <point x="130.697" y="21.9469"/>
      <point x="230.592" y="40.7675" type="curve" smooth="yes"/>
      <point x="322.201" y="58.4984"/>
      <point x="383.209" y="127.123"/>
      <point x="398.216" y="193.579" type="curve" smooth="yes"/>
      <point x="403.916" y="218.824"/>
      <point x="418.667" y="229.969"/>
      <point x="431.29" y="218.569" type="curve" smooth="yes"/>
      <point x="443.912" y="207.168"/>
      <point x="449.485" y="177.666"/>
      <point x="443.784" y="152.421" type="curve" smooth="yes"/>
      <point x="416.791" y="32.8769"/>
      <point x="329.799" y="-40.4984"/>
      <point x="235.376" y="-58.7735" type="curve" smooth="yes"/>
      <point x="53.4891" y="-93.0422"/>
      <point x="-43.5215" y="87.867"/>
      <point x="28.7239" y="210.952" type="curve" smooth="yes"/>
      <point x="99.7968" y="333.714"/>
      <point x="396" y="176.662"/>
      <point x="396" y="310" type="curve" smooth="yes"/>
      <point x="396" y="337.7"/>
      <point x="407.15" y="360"/>
      <point x="421" y="360" type="curve" smooth="yes"/>
      <point x="434.85" y="360"/>
      <point x="446" y="337.7"/>
    </contour>
  </outline>
</glyph>
<glyph name="b" format="2">
  <advance width="536"/>
  <unicode hex="0062"/>
  <outline>
    <contour>
      <point x="73.2057" y="305.361" type="curve" smooth="yes"/>
      <point x="94.4574" y="460.026"/>
      <point x="196.329" y="568.91"/>
      <point x="315.581" y="559.214" type="curve" smooth="yes"/>
      <point x="434.968" y="548.537"/>
      <point x="519.817" y="422.968"/>
      <point x="522.268" y="261.146" type="curve"/>
      <point x="522.256" y="261.804" type="line"/>
      <point x="525.955" y="91.6556"/>
      <point x="438.611" y="-43.214"/>
      <point x="315.535" y="-53.8741" type="curve" smooth="yes"/>
      <point x="153.399" y="-67.6504"/>
      <point x="46.2741" y="114.598"/>
    </contour>
    <contour>
      <point x="121.395" y="278.694" type="curve" smooth="yes"/>
      <point x="104.231" y="157.12"/>
      <point x="190.739" y="35.6125"/>
      <point x="313.382" y="46.0332" type="curve" smooth="yes"/>
      <point x="426.029" y="55.7899"/>
      <point x="474.173" y="171.48"/>
      <point x="472.304" y="257.46" type="curve"/>
      <point x="472.292" y="258.118" type="line"/>
      <point x="471.031" y="341.288"/>
      <point x="422.248" y="449.575"/>
      <point x="313.449" y="459.305" type="curve" smooth="yes"/>
      <point x="204.311" y="468.178"/>
      <point x="133.575" y="367.334"/>
    </contour>
    <contour>
      <point x="119" y="-1" type="line" smooth="yes"/>
      <point x="119" y="-28.7"/>
      <point x="107.85" y="-51"/>
      <point x="94" y="-51" type="curve" smooth="yes"/>
      <point x="80.15" y="-51"/>
      <point x="69" y="-28.7"/>
      <point x="69" y="-1" type="curve" smooth="yes"/>
      <point x="69" y="646.872" type="line"/>
      <point x="68.3328" y="647.252"/>
      <point x="64.1609" y="649"/>
      <point x="59" y="649" type="curve" smooth="yes"/>
      <point x="54.892" y="649"/>
      <point x="51.3234" y="648.033"/>
      <point x="48.9716" y="646.886" type="curve"/>
      <point x="49.2389" y="638.557"/>
      <point x="47.8439" y="621.362"/>
      <point x="40.5157" y="608.464" type="curve" smooth="yes"/>
      <point x="30.1183" y="590.165"/>
      <point x="14.3818" y="592.174"/>
      <point x="5.23214" y="612.969" type="curve" smooth="yes"/>
      <point x="-10.4059" y="648.51"/>
      <point x="-6.58066" y="699.785"/>
      <point x="16.7682" y="727.954" type="curve" smooth="yes"/>
      <point x="28.8713" y="742.555"/>
      <point x="44.3075" y="749"/>
      <point x="59" y="749" type="curve" smooth="yes"/>
      <point x="73.8712" y="749"/>
      <point x="87.9104" y="742.56"/>
      <point x="98.976" y="730.204" type="curve" smooth="yes"/>
      <point x="112.896" y="714.66"/>
      <point x="130.991" y="678.51"/>
      <point x="119" y="634.054" type="curve"/>
    </contour>
  </outline>
</glyph>
<glyph name="c" format="2">
  <advance width="482"/>
  <unicode hex="0063"/>
  <outline>
    <contour>
      <point x="434.802" y="474.689" type="curve" smooth="yes"/>
      <point x="446.35" y="459.396"/>
      <point x="449.491" y="428.491"/>
      <point x="441.845" y="405.395" type="curve" smooth="yes"/>
      <point x="434.198" y="382.299"/>
      <point x="418.745" y="376.018"/>
      <point x="407.198" y="391.311" type="curve" smooth="yes"/>
      <point x="375.034" y="433.906"/>
      <point x="328.066" y="463"/>
      <point x="269" y="463" type="curve" smooth="yes"/>
      <point x="146.493" y="463"/>
      <point x="85" y="342.522"/>
      <point x="85" y="252" type="curve" smooth="yes"/>
      <point x="85" y="160.39"/>
      <point x="146.559" y="40"/>
      <point x="269" y="40" type="curve" smooth="yes"/>
      <point x="327.883" y="40"/>
      <point x="375.004" y="69.9275"/>
      <point x="407.395" y="111.948" type="curve" smooth="yes"/>
      <point x="419.015" y="127.022"/>
      <point x="434.437" y="120.449"/>
      <point x="441.974" y="97.2096" type="curve" smooth="yes"/>
      <point x="449.511" y="73.9703"/>
      <point x="446.224" y="43.126"/>
      <point x="434.605" y="28.0519" type="curve" smooth="yes"/>
      <point x="392.996" y="-25.9275"/>
      <point x="336.117" y="-60"/>
      <point x="269" y="-60" type="curve" smooth="yes"/>
      <point x="139.441" y="-60"/>
      <point x="35" y="71.6097"/>
      <point x="35" y="252" type="curve" smooth="yes"/>
      <point x="35" y="431.478"/>
      <point x="139.507" y="563"/>
      <point x="269" y="563" type="curve" smooth="yes"/>
      <point x="335.934" y="563"/>
      <point x="392.966" y="530.094"/>
    </contour>
  </outline>
</glyph>
<glyph name="d" format="2">
  <advance width="536"/>
  <unicode hex="0064"/>
  <outline>
    <contour>
      <point x="414.605" y="278.694" type="curve" smooth="yes"/>
      <point x="431.769" y="157.12"/>
      <point x="345.261" y="35.6125"/>
      <point x="222.618" y="46.0332" type="curve" smooth="yes"/>
      <point x="109.971" y="55.7899"/>
      <point x="61.8273" y="171.48"/>
      <point x="63.6964" y="257.46" type="curve"/>
      <point x="63.7085" y="258.118" type="line"/>
      <point x="64.9687" y="341.288"/>
      <point x="113.752" y="449.575"/>
      <point x="222.551" y="459.305" type="curve" smooth="yes"/>
      <point x="331.689" y="468.178"/>
      <point x="402.425" y="367.334"/>
    </contour>
    <contour>
      <point x="462.794" y="305.361" type="curve" smooth="yes"/>
      <point x="441.543" y="460.026"/>
      <point x="339.671" y="568.91"/>
      <point x="220.419" y="559.214" type="curve" smooth="yes"/>
      <point x="101.032" y="548.537"/>
      <point x="16.1833" y="422.968"/>
      <point x="13.7315" y="261.146" type="curve"/>
      <point x="13.7436" y="261.804" type="line"/>
      <point x="10.0447" y="91.6556"/>
      <point x="97.3888" y="-43.214"/>
      <point x="220.465" y="-53.8741" type="curve" smooth="yes"/>
      <point x="382.601" y="-67.6504"/>
      <point x="489.726" y="114.598"/>
    </contour>
    <contour>
      <point x="530.768" y="85.0313" type="curve" smooth="yes"/>
      <point x="521.618" y="105.826"/>
      <point x="505.882" y="107.835"/>
      <point x="495.484" y="89.5357" type="curve" smooth="yes"/>
      <point x="488.155" y="76.636"/>
      <point x="486.761" y="59.4388"/>
      <point x="487.028" y="51.1161" type="curve"/>
      <point x="485.229" y="50.1571"/>
      <point x="481.465" y="49"/>
      <point x="477" y="49" type="curve" smooth="yes"/>
      <point x="472.666" y="49"/>
      <point x="469.188" y="50.0822"/>
      <point x="467" y="51.1391" type="curve"/>
      <point x="467" y="699" type="line" smooth="yes"/>
      <point x="467" y="726.7"/>
      <point x="455.85" y="749"/>
      <point x="442" y="749" type="curve" smooth="yes"/>
      <point x="428.15" y="749"/>
      <point x="417" y="726.7"/>
      <point x="417" y="699" type="curve" smooth="yes"/>
      <point x="417" y="64.0252" type="line"/>
      <point x="405.349" y="21.3887"/>
      <point x="422.239" y="-14.6873"/>
      <point x="435.664" y="-30.6367" type="curve" smooth="yes"/>
      <point x="446.955" y="-44.0512"/>
      <point x="461.553" y="-51"/>
      <point x="477" y="-51" type="curve" smooth="yes"/>
      <point x="492.442" y="-51"/>
      <point x="509.471" y="-43.771"/>
      <point x="522.184" y="-26.1336" type="curve" smooth="yes"/>
      <point x="543.739" y="3.76905"/>
      <point x="545.259" y="52.0977"/>
    </contour>
  </outline>
</glyph>
<glyph name="e" format="2">
  <advance width="488"/>
  <unicode hex="0065"/>
  <outline>
    <contour>
      <point x="470.538" y="154.152" type="curve" smooth="yes"/>
      <point x="447.938" y="27.8588"/>
      <point x="356.548" y="-46.7683"/>
      <point x="260.61" y="-59.8963" type="curve" smooth="yes"/>
      <point x="134.951" y="-76.1102"/>
      <point x="36.7786" y="8.04352"/>
      <point x="20.5186" y="163.869" type="curve" smooth="yes"/>
      <point x="11.6494" y="250.343"/>
      <point x="91.6862" y="264.26"/>
      <point x="150.18" y="274.798" type="curve" smooth="yes"/>
      <point x="204.45" y="284.576"/>
      <point x="402.597" y="309.749"/>
      <point x="416.216" y="392.405" type="curve" smooth="yes"/>
      <point x="421.913" y="428.211"/>
      <point x="335.303" y="476.667"/>
      <point x="261.235" y="464.2" type="curve" smooth="yes"/>
      <point x="184.762" y="450.474"/>
      <point x="128.041" y="418.785"/>
      <point x="87.4171" y="340.131" type="curve" smooth="yes"/>
      <point x="48.8273" y="265.178"/>
      <point x="63.1703" y="163.419"/>
      <point x="90.2698" y="116.963" type="curve" smooth="yes"/>
      <point x="100.785" y="98.9359"/>
      <point x="101.995" y="67.4918"/>
      <point x="92.9814" y="46.4604" type="curve" smooth="yes"/>
      <point x="83.968" y="25.429"/>
      <point x="68.2459" y="23.0102"/>
      <point x="57.7302" y="41.0371" type="curve" smooth="yes"/>
      <point x="12.4177" y="118.716"/>
      <point x="-11.0876" y="288.201"/>
      <point x="52.5971" y="411.896" type="curve" smooth="yes"/>
      <point x="105.905" y="515.11"/>
      <point x="177.075" y="549.496"/>
      <point x="256.834" y="563.812" type="curve" smooth="yes"/>
      <point x="375.254" y="583.744"/>
      <point x="485.807" y="500.027"/>
      <point x="463.784" y="361.595" type="curve" smooth="yes"/>
      <point x="440.619" y="221.013"/>
      <point x="299.765" y="201.342"/>
      <point x="154.666" y="175.202" type="curve" smooth="yes"/>
      <point x="119.318" y="168.833"/>
      <point x="90.5534" y="162.742"/>
      <point x="74.8512" y="155.083" type="curve"/>
      <point x="88.2643" y="104.457"/>
      <point x="140.278" y="24.7848"/>
      <point x="257.342" y="39.8898" type="curve" smooth="yes"/>
      <point x="345.333" y="51.9307"/>
      <point x="409.449" y="117.543"/>
      <point x="422.944" y="185.11" type="curve" smooth="yes"/>
      <point x="423.462" y="187.848" type="line" smooth="yes"/>
      <point x="428.129" y="213.928"/>
      <point x="442.384" y="227.41"/>
      <point x="455.424" y="218.076" type="curve" smooth="yes"/>
      <point x="468.464" y="208.742"/>
      <point x="475.205" y="180.232"/>
    </contour>
  </outline>
</glyph>
<glyph name="f" format="2">
  <advance width="340"/>
  <unicode hex="0066"/>
  <outline>
    <contour>
      <point x="115" y="2" type="line" smooth="yes"/>
      <point x="115" y="-25.7"/>
      <point x="103.85" y="-48"/>
      <point x="90" y="-48" type="curve" smooth="yes"/>
      <point x="76.15" y="-48"/>
      <point x="65" y="-25.7"/>
      <point x="65" y="2" type="curve" smooth="yes"/>
      <point x="65" y="517.009" type="line"/>
      <point x="53.231" y="589.678"/>
      <point x="94.278" y="745.516"/>
      <point x="228.621" y="749.994" type="curve" smooth="yes"/>
      <point x="295.748" y="752.028"/>
      <point x="368.264" y="709.749"/>
      <point x="391.361" y="617.361" type="curve" smooth="yes"/>
      <point x="397.555" y="592.585"/>
      <point x="392.568" y="562.666"/>
      <point x="380.18" y="550.279" type="curve" smooth="yes"/>
      <point x="367.793" y="537.891"/>
      <point x="352.833" y="547.864"/>
      <point x="346.639" y="572.639" type="curve" smooth="yes"/>
      <point x="337.736" y="608.251"/>
      <point x="294.252" y="651.972"/>
      <point x="229.398" y="650.006" type="curve" smooth="yes"/>
      <point x="186.83" y="648.587"/>
      <point x="97.5894" y="607.615"/>
      <point x="115" y="535.196" type="curve"/>
    </contour>
    <contour>
      <point x="20" y="543" type="curve" smooth="yes"/>
      <point x="229" y="543" type="line" smooth="yes"/>
      <point x="242.85" y="543"/>
      <point x="254" y="520.7"/>
      <point x="254" y="493" type="curve" smooth="yes"/>
      <point x="254" y="465.3"/>
      <point x="242.85" y="443"/>
      <point x="229" y="443" type="curve" smooth="yes"/>
      <point x="20" y="443" type="line" smooth="yes"/>
      <point x="6.15" y="443"/>
      <point x="-5" y="465.3"/>
      <point x="-5" y="493" type="curve" smooth="yes"/>
      <point x="-5" y="520.7"/>
      <point x="6.15" y="543"/>
    </contour>
  </outline>
</glyph>
<glyph name="g" format="2">
  <advance width="556"/>
  <unicode hex="0067"/>
  <outline>
    <contour>
      <point x="24.9037" y="305.322" type="curve" smooth="yes"/>
      <point x="46.4394" y="461.139"/>
      <point x="147.847" y="571.36"/>
      <point x="269.067" y="561.954" type="curve" smooth="yes"/>
      <point x="391.51" y="551.489"/>
      <point x="476.362" y="423.651"/>
      <point x="478.987" y="259.599" type="curve"/>
      <point x="478.973" y="260.305" type="line"/>
      <point x="482.952" y="87.9157"/>
      <point x="395.138" y="-47.4936"/>
      <point x="269.092" y="-58.9522" type="curve" smooth="yes"/>
      <point x="105.73" y="-72.6609"/>
      <point x="-2.77539" y="111.572"/>
    </contour>
    <contour>
      <point x="73.0672" y="278.471" type="curve" smooth="yes"/>
      <point x="55.1969" y="153.379"/>
      <point x="143.509" y="30.5971"/>
      <point x="266.865" y="40.9484" type="curve" smooth="yes"/>
      <point x="382.862" y="51.4936"/>
      <point x="431.048" y="168.084"/>
      <point x="429.027" y="255.695" type="curve"/>
      <point x="429.013" y="256.401" type="line"/>
      <point x="427.638" y="342.349"/>
      <point x="378.49" y="452.511"/>
      <point x="267.031" y="462.038" type="curve" smooth="yes"/>
      <point x="156.153" y="470.64"/>
      <point x="85.5605" y="368.861"/>
    </contour>
    <contour>
      <point x="535.519" y="408.941" type="line"/>
      <point x="523.869" y="393.962"/>
      <point x="508.46" y="400.661"/>
      <point x="500.971" y="423.962" type="curve" smooth="yes"/>
      <point x="497.833" y="433.723"/>
      <point x="496.681" y="444.657"/>
      <point x="497.046" y="453.119" type="curve"/>
      <point x="490.429" y="453.462"/>
      <point x="484.016" y="450.378"/>
      <point x="480.054" y="445.844" type="curve" smooth="yes"/>
      <point x="479.284" y="444.963"/>
      <point x="479.002" y="444.512"/>
      <point x="479" y="444.509" type="curve"/>
      <point x="479" y="43.4955" type="line"/>
      <point x="481.585" y="38.8588"/>
      <point x="489.929" y="28.7313"/>
      <point x="511.877" y="15.0768" type="curve" smooth="yes"/>
      <point x="540.712" y="-2.86186"/>
      <point x="583.834" y="-23.1025"/>
      <point x="605.631" y="-57.9787" type="curve" smooth="yes"/>
      <point x="665.927" y="-154.733"/>
      <point x="603.324" y="-304.655"/>
      <point x="489.204" y="-315.942" type="curve" smooth="yes"/>
      <point x="366.412" y="-327.486"/>
      <point x="288.866" y="-198.014"/>
      <point x="181.927" y="-180.828" type="curve" smooth="yes"/>
      <point x="95.375" y="-165.937"/>
      <point x="21.0252" y="-221.368"/>
      <point x="4.17997" y="-285.084" type="curve" smooth="yes"/>
      <point x="3.55327" y="-287.573" type="line" smooth="yes"/>
      <point x="-2.42239" y="-312.562"/>
      <point x="-17.2919" y="-323.058"/>
      <point x="-29.7865" y="-311.107" type="curve" smooth="yes"/>
      <point x="-42.281" y="-299.155"/>
      <point x="-47.5291" y="-269.416"/>
      <point x="-41.5534" y="-244.427" type="curve" smooth="yes"/>
      <point x="-13.1971" y="-125.846"/>
      <point x="87.3514" y="-64.188"/>
      <point x="186.072" y="-81.1723" type="curve" smooth="yes"/>
      <point x="301.821" y="-99.7748"/>
      <point x="376.534" y="-226.425"/>
      <point x="486.796" y="-216.058" type="curve" smooth="yes"/>
      <point x="546.793" y="-210.124"/>
      <point x="578.663" y="-165.667"/>
      <point x="580.022" y="-148.948" type="curve"/>
      <point x="579.594" y="-145.188"/>
      <point x="575.143" y="-137.263"/>
      <point x="574.369" y="-136.021" type="curve" smooth="yes"/>
      <point x="564.84" y="-120.775"/>
      <point x="543.489" y="-109.315"/>
      <point x="497.026" y="-80.4104" type="curve" smooth="yes"/>
      <point x="468.413" y="-62.6098"/>
      <point x="429" y="-32.6775"/>
      <point x="429" y="39" type="curve" smooth="yes"/>
      <point x="429" y="451" type="line" smooth="yes"/>
      <point x="429" y="490.106"/>
      <point x="442.789" y="518.412"/>
      <point x="455.224" y="532.641" type="curve" smooth="yes"/>
      <point x="470.293" y="549.885"/>
      <point x="489.558" y="556.421"/>
      <point x="508.296" y="551.563" type="curve" smooth="yes"/>
      <point x="521.333" y="548.008"/>
      <point x="533.322" y="538.942"/>
      <point x="542.134" y="522.156" type="curve" smooth="yes"/>
      <point x="554.461" y="498.676"/>
      <point x="562.611" y="453.269"/>
      <point x="540.268" y="415.902" type="curve"/>
    </contour>
  </outline>
</glyph>
<glyph name="h" format="2">
  <advance width="562"/>
  <unicode hex="0068"/>
  <outline>
    <contour>
      <point x="48" y="2" type="curve" smooth="yes"/>
      <point x="48" y="159.795"/>
      <point x="68.9969" y="328.768"/>
      <point x="163.631" y="461.916" type="curve" smooth="yes"/>
      <point x="209.405" y="526.218"/>
      <point x="275.596" y="579.319"/>
      <point x="353.597" y="574.985" type="curve" smooth="yes"/>
      <point x="434.499" y="571.749"/>
      <point x="512.99" y="503.674"/>
      <point x="517" y="387.853" type="curve"/>
      <point x="517" y="2" type="line" smooth="yes"/>
      <point x="517" y="-25.7"/>
      <point x="505.85" y="-48"/>
      <point x="492" y="-48" type="curve" smooth="yes"/>
      <point x="478.15" y="-48"/>
      <point x="467" y="-25.7"/>
      <point x="467" y="2" type="curve" smooth="yes"/>
      <point x="467.002" y="383.414" type="line"/>
      <point x="464.938" y="412.518"/>
      <point x="427.438" y="472.012"/>
      <point x="352.306" y="475.019" type="curve" smooth="yes"/>
      <point x="286.404" y="478.681"/>
      <point x="230.595" y="433.782"/>
      <point x="192.384" y="380.106" type="curve" smooth="yes"/>
      <point x="115.003" y="271.232"/>
      <point x="98" y="138.205"/>
      <point x="98" y="2" type="curve" smooth="yes"/>
      <point x="98" y="-25.7"/>
      <point x="86.85" y="-48"/>
      <point x="73" y="-48" type="curve" smooth="yes"/>
      <point x="59.15" y="-48"/>
      <point x="48" y="-25.7"/>
    </contour>
    <contour>
      <point x="-16.5217" y="616.765" type="curve" smooth="yes"/>
      <point x="-29.4546" y="649.097"/>
      <point x="-27.8846" y="694.583"/>
      <point x="-8.12239" y="723.75" type="curve" smooth="yes"/>
      <point x="4.7546" y="742.756"/>
      <point x="22.3778" y="750"/>
      <point x="38" y="750" type="curve" smooth="yes"/>
      <point x="53.2725" y="750"/>
      <point x="67.8547" y="743.393"/>
      <point x="79.1426" y="730.635" type="curve" smooth="yes"/>
      <point x="92.581" y="715.446"/>
      <point x="111.388" y="678.711"/>
      <point x="98" y="634.871" type="curve"/>
      <point x="98" y="2" type="line" smooth="yes"/>
      <point x="98" y="-25.7"/>
      <point x="86.85" y="-48"/>
      <point x="73" y="-48" type="curve" smooth="yes"/>
      <point x="59.15" y="-48"/>
      <point x="48" y="-25.7"/>
      <point x="48" y="2" type="curve" smooth="yes"/>
      <point x="48" y="648.008" type="line"/>
      <point x="46.3657" y="648.76"/>
      <point x="42.7467" y="650"/>
      <point x="38" y="650" type="curve" smooth="yes"/>
      <point x="33.2886" y="650"/>
      <point x="29.4685" y="648.772"/>
      <point x="27.9983" y="647.97" type="curve"/>
      <point x="28.105" y="635.56"/>
      <point x="25.4294" y="619.856"/>
      <point x="18.6175" y="608.957" type="curve" smooth="yes"/>
      <point x="7.80246" y="591.653"/>
      <point x="-7.86958" y="595.135"/>
    </contour>
  </outline>
</glyph>
<glyph name="i" format="2">
  <advance width="232"/>
  <unicode hex="0069"/>
  <outline>
    <contour>
      <point x="89.5613" y="629.815" type="line"/>
      <point x="91.4662" y="629.528"/>
      <point x="92.3387" y="629.074"/>
      <point x="92.4194" y="629.034" type="curve"/>
      <point x="91.7017" y="628.667"/>
      <point x="89.8042" y="628"/>
      <point x="87" y="628" type="curve" smooth="yes"/>
      <point x="84.1879" y="628"/>
      <point x="82.4781" y="628.746"/>
      <point x="81.9225" y="629.035" type="curve"/>
      <point x="82.5988" y="629.376"/>
      <point x="84.4046" y="630"/>
      <point x="87" y="630" type="curve"/>
    </contour>
    <contour>
      <point x="87" y="730" type="curve" smooth="yes"/>
      <point x="55.8746" y="730"/>
      <point x="28" y="691.128"/>
      <point x="28" y="629" type="curve" smooth="yes"/>
      <point x="28" y="568.42"/>
      <point x="55.5452" y="528"/>
      <point x="87" y="528" type="curve" smooth="yes"/>
      <point x="120.006" y="528"/>
      <point x="146" y="569.353"/>
      <point x="146" y="629" type="curve" smooth="yes"/>
      <point x="146" y="690.204"/>
      <point x="119.679" y="730"/>
    </contour>
    <contour>
      <point x="33.7945" y="421.991" type="curve" smooth="yes"/>
      <point x="42.661" y="400.711"/>
      <point x="58.3647" y="397.856"/>
      <point x="69.0046" y="415.589" type="curve" smooth="yes"/>
      <point x="76.6975" y="428.41"/>
      <point x="78.1066" y="445.842"/>
      <point x="78.1021" y="453.258" type="curve"/>
      <point x="80.6333" y="454.323"/>
      <point x="83.636" y="455"/>
      <point x="87" y="455" type="curve" smooth="yes"/>
      <point x="91.5777" y="455"/>
      <point x="94.9092" y="453.712"/>
      <point x="96" y="453.193" type="curve"/>
      <point x="96" y="59.3045" type="line"/>
      <point x="83.5908" y="15.6931"/>
      <point x="102.138" y="-19.8469"/>
      <point x="115.397" y="-34.5679" type="curve" smooth="yes"/>
      <point x="126.349" y="-46.7275"/>
      <point x="140.331" y="-53"/>
      <point x="155" y="-53" type="curve" smooth="yes"/>
      <point x="169.809" y="-53"/>
      <point x="186.213" y="-46.3566"/>
      <point x="198.628" y="-29.6453" type="curve" smooth="yes"/>
      <point x="219.684" y="-1.30319"/>
      <point x="221.984" y="45.9418"/>
      <point x="208.205" y="79.0094" type="curve" smooth="yes"/>
      <point x="199.339" y="100.289"/>
      <point x="183.635" y="103.144"/>
      <point x="172.995" y="85.4109" type="curve" smooth="yes"/>
      <point x="164.799" y="71.7503"/>
      <point x="163.953" y="53.4944"/>
      <point x="163.995" y="48.6856" type="curve"/>
      <point x="161.431" y="47.6527"/>
      <point x="158.396" y="47"/>
      <point x="155" y="47" type="curve" smooth="yes"/>
      <point x="150.255" y="47"/>
      <point x="146.881" y="48.3067"/>
      <point x="146" y="48.7082" type="curve"/>
      <point x="146" y="441.712" type="line"/>
      <point x="158.138" y="484.45"/>
      <point x="140.325" y="520.322"/>
      <point x="127.129" y="535.576" type="curve" smooth="yes"/>
      <point x="116.1" y="548.324"/>
      <point x="101.92" y="555"/>
      <point x="87" y="555" type="curve" smooth="yes"/>
      <point x="71.8827" y="555"/>
      <point x="55.2315" y="547.862"/>
      <point x="42.7794" y="530.358" type="curve" smooth="yes"/>
      <point x="22.5499" y="501.921"/>
      <point x="20.0124" y="455.068"/>
    </contour>
  </outline>
</glyph>
<glyph name="j" format="2">
  <advance width="246"/>
  <unicode hex="006A"/>
  <outline>
    <contour>
      <point x="54" y="730" type="curve" smooth="yes"/>
      <point x="86.6787" y="730"/>
      <point x="113" y="690.204"/>
      <point x="113" y="629" type="curve" smooth="yes"/>
      <point x="113" y="569.353"/>
      <point x="87.0064" y="528"/>
      <point x="54" y="528" type="curve" smooth="yes"/>
      <point x="22.5452" y="528"/>
      <point x="-5" y="568.42"/>
      <point x="-5" y="629" type="curve" smooth="yes"/>
      <point x="-5" y="691.128"/>
      <point x="22.8746" y="730"/>
    </contour>
    <contour>
      <point x="54" y="630" type="line"/>
      <point x="51.4047" y="630"/>
      <point x="49.5989" y="629.376"/>
      <point x="48.9226" y="629.035" type="curve"/>
      <point x="49.4782" y="628.746"/>
      <point x="51.188" y="628"/>
      <point x="54" y="628" type="curve" smooth="yes"/>
      <point x="56.8042" y="628"/>
      <point x="58.7017" y="628.667"/>
      <point x="59.4194" y="629.034" type="curve"/>
      <point x="59.3387" y="629.074"/>
      <point x="58.4662" y="629.528"/>
      <point x="56.5613" y="629.815" type="curve"/>
    </contour>
    <contour>
      <point x="-401.553" y="-244.427" type="curve" smooth="yes"/>
      <point x="-373.195" y="-125.836"/>
      <point x="-272.76" y="-65.2314"/>
      <point x="-173.939" y="-81.1704" type="curve" smooth="yes"/>
      <point x="-58.4207" y="-100.767"/>
      <point x="16.6943" y="-226.41"/>
      <point x="126.796" y="-216.058" type="curve" smooth="yes"/>
      <point x="186.793" y="-210.124"/>
      <point x="218.663" y="-165.667"/>
      <point x="220.022" y="-148.948" type="curve"/>
      <point x="219.595" y="-145.188"/>
      <point x="215.143" y="-137.263"/>
      <point x="214.369" y="-136.021" type="curve" smooth="yes"/>
      <point x="204.761" y="-120.648"/>
      <point x="183.223" y="-108.976"/>
      <point x="136.786" y="-79.8673" type="curve" smooth="yes"/>
      <point x="108.28" y="-61.9977"/>
      <point x="69" y="-32.054"/>
      <point x="69" y="39.2427" type="curve" smooth="yes"/>
      <point x="70.9675" y="444.551" type="line"/>
      <point x="66.8627" y="449.316"/>
      <point x="61.7191" y="452.799"/>
      <point x="54.8726" y="453.124" type="curve"/>
      <point x="52.953" y="453.118" type="line"/>
      <point x="53.2105" y="447.159"/>
      <point x="52.7317" y="435.482"/>
      <point x="49.0288" y="423.962" type="curve" smooth="yes"/>
      <point x="41.5393" y="400.661"/>
      <point x="26.1307" y="393.962"/>
      <point x="14.4804" y="408.941" type="curve" smooth="yes"/>
      <point x="-0.770359" y="428.549"/>
      <point x="-15.2153" y="471.925"/>
      <point x="5.84496" y="518.034" type="curve" smooth="yes"/>
      <point x="15.5538" y="539.29"/>
      <point x="30.0301" y="548.38"/>
      <point x="41.7034" y="551.563" type="curve" smooth="yes"/>
      <point x="61.383" y="556.665"/>
      <point x="79.9093" y="549.387"/>
      <point x="94.3744" y="533.097" type="curve" smooth="yes"/>
      <point x="107.699" y="518.092"/>
      <point x="120.999" y="491.034"/>
      <point x="120.999" y="450.757" type="curve" smooth="yes"/>
      <point x="119.023" y="43.821" type="line"/>
      <point x="121.106" y="40.1034"/>
      <point x="129.071" y="29.7653"/>
      <point x="151.74" y="15.5554" type="curve" smooth="yes"/>
      <point x="180.628" y="-2.55341"/>
      <point x="223.814" y="-23.0717"/>
      <point x="245.631" y="-57.9788" type="curve" smooth="yes"/>
      <point x="305.927" y="-154.733"/>
      <point x="243.324" y="-304.655"/>
      <point x="129.204" y="-315.942" type="curve" smooth="yes"/>
      <point x="6.17681" y="-327.509"/>
      <point x="-70.8435" y="-199.019"/>
      <point x="-178.062" y="-180.83" type="curve" smooth="yes"/>
      <point x="-264.475" y="-166.892"/>
      <point x="-338.936" y="-221.243"/>
      <point x="-355.822" y="-285.091" type="curve" smooth="yes"/>
      <point x="-356.447" y="-287.573" type="line" smooth="yes"/>
      <point x="-362.423" y="-312.562"/>
      <point x="-377.292" y="-323.058"/>
      <point x="-389.787" y="-311.107" type="curve" smooth="yes"/>
      <point x="-402.282" y="-299.155"/>
      <point x="-407.53" y="-269.416"/>
    </contour>
  </outline>
</glyph>
<glyph name="k" format="2">
  <advance width="507"/>
  <unicode hex="006B"/>
  <outline>
    <contour>
      <point x="118.022" y="1.9184" type="line" smooth="yes"/>
      <point x="118.022" y="-25.7816"/>
      <point x="106.872" y="-48.0816"/>
      <point x="93.0216" y="-48.0816" type="curve" smooth="yes"/>
      <point x="79.1716" y="-48.0816"/>
      <point x="68.0216" y="-25.7816"/>
      <point x="68.0216" y="1.9184" type="curve" smooth="yes"/>
      <point x="68.0216" y="235.963" type="line" smooth="yes"/>
      <point x="68.0216" y="424.145"/>
      <point x="183.397" y="579.794"/>
      <point x="330.228" y="553.386" type="curve" smooth="yes"/>
      <point x="401.676" y="540.96"/>
      <point x="480.653" y="471.83"/>
      <point x="450.211" y="348.166" type="curve"/>
      <point x="450.516" y="349.449" type="line"/>
      <point x="410.728" y="175.522"/>
      <point x="118.022" y="243.823"/>
      <point x="118.022" y="135.247" type="curve" smooth="yes"/>
      <point x="118.022" y="107.547"/>
      <point x="106.872" y="85.2471"/>
      <point x="93.0216" y="85.2471" type="curve" smooth="yes"/>
      <point x="79.1716" y="85.2471"/>
      <point x="68.0216" y="107.547"/>
      <point x="68.0216" y="135.247" type="curve" smooth="yes"/>
      <point x="68.0216" y="375.208"/>
      <point x="380.28" y="280.708"/>
      <point x="405.195" y="391.7" type="curve"/>
      <point x="405.353" y="392.336" type="line"/>
      <point x="405.5" y="394.043"/>
      <point x="396.76" y="441.438"/>
      <point x="325.824" y="453.775" type="curve" smooth="yes"/>
      <point x="205.79" y="475.363"/>
      <point x="118.022" y="355.856"/>
      <point x="118.022" y="235.963" type="curve" smooth="yes"/>
    </contour>
    <contour>
      <point x="3.47829" y="616.765" type="curve" smooth="yes"/>
      <point x="-9.84164" y="650.065"/>
      <point x="-7.54024" y="696.639"/>
      <point x="12.9467" y="725.286" type="curve" smooth="yes"/>
      <point x="25.6236" y="743.013"/>
      <point x="42.6008" y="750"/>
      <point x="58" y="750" type="curve" smooth="yes"/>
      <point x="74.0752" y="750"/>
      <point x="89.4762" y="742.679"/>
      <point x="101.057" y="728.372" type="curve" smooth="yes"/>
      <point x="113.857" y="712.561"/>
      <point x="130.79" y="675.881"/>
      <point x="118" y="634.719" type="curve"/>
      <point x="118" y="2" type="line" smooth="yes"/>
      <point x="118" y="-25.7"/>
      <point x="106.85" y="-48"/>
      <point x="93" y="-48" type="curve" smooth="yes"/>
      <point x="79.15" y="-48"/>
      <point x="68" y="-25.7"/>
      <point x="68" y="2" type="curve" smooth="yes"/>
      <point x="68" y="648.004" type="line"/>
      <point x="67.2427" y="648.374"/>
      <point x="63.4609" y="650"/>
      <point x="58" y="650" type="curve" smooth="yes"/>
      <point x="53.4239" y="650"/>
      <point x="49.6695" y="648.846"/>
      <point x="47.9981" y="647.963" type="curve"/>
      <point x="48.1046" y="635.573"/>
      <point x="45.4333" y="619.862"/>
      <point x="38.6174" y="608.957" type="curve" smooth="yes"/>
      <point x="27.8024" y="591.653"/>
      <point x="12.1303" y="595.135"/>
    </contour>
    <contour>
      <point x="261.612" y="318.391" type="curve" smooth="yes"/>
      <point x="350.129" y="333.653"/>
      <point x="452.782" y="293.962"/>
      <point x="452.782" y="168.819" type="curve" smooth="yes"/>
      <point x="452.782" y="125.37"/>
      <point x="461.392" y="79.7641"/>
      <point x="480.531" y="33.9957" type="curve" smooth="yes"/>
      <point x="489.417" y="12.7474"/>
      <point x="488.017" y="-18.6651"/>
      <point x="477.393" y="-36.4359" type="curve" smooth="yes"/>
      <point x="466.768" y="-54.2067"/>
      <point x="451.062" y="-51.4072"/>
      <point x="442.177" y="-30.1589" type="curve" smooth="yes"/>
      <point x="417.194" y="29.5847"/>
      <point x="402.782" y="97.1638"/>
      <point x="402.782" y="168.819" type="curve"/>
      <point x="402.782" y="169.081"/>
      <point x="379.57" y="238.358"/>
      <point x="265.906" y="218.761" type="curve" smooth="yes"/>
      <point x="252.107" y="216.382"/>
      <point x="240.041" y="236.684"/>
      <point x="238.851" y="264.282" type="curve" smooth="yes"/>
      <point x="237.662" y="291.879"/>
      <point x="247.813" y="316.012"/>
    </contour>
  </outline>
</glyph>
<glyph name="l" format="2">
  <advance width="168"/>
  <unicode hex="006C"/>
  <outline>
    <contour>
      <point x="3.47828" y="616.765" type="curve" smooth="yes"/>
      <point x="-11.0694" y="653.134"/>
      <point x="-6.17451" y="702.935"/>
      <point x="16.3551" y="729.679" type="curve" smooth="yes"/>
      <point x="28.3249" y="743.887"/>
      <point x="43.4771" y="750"/>
      <point x="58" y="750" type="curve" smooth="yes"/>
      <point x="73.3106" y="750"/>
      <point x="87.9311" y="743.36"/>
      <point x="99.234" y="730.531" type="curve" smooth="yes"/>
      <point x="112.642" y="715.314"/>
      <point x="131.361" y="678.579"/>
      <point x="118" y="634.864" type="curve"/>
      <point x="118" y="2" type="line" smooth="yes"/>
      <point x="118" y="-25.7"/>
      <point x="106.85" y="-48"/>
      <point x="93" y="-48" type="curve" smooth="yes"/>
      <point x="79.15" y="-48"/>
      <point x="68" y="-25.7"/>
      <point x="68" y="2" type="curve" smooth="yes"/>
      <point x="68" y="648.007" type="line"/>
      <point x="66.4077" y="648.743"/>
      <point x="62.7806" y="650"/>
      <point x="58" y="650" type="curve" smooth="yes"/>
      <point x="53.8459" y="650"/>
      <point x="50.3078" y="649.063"/>
      <point x="47.9981" y="647.964" type="curve"/>
      <point x="48.1046" y="635.572"/>
      <point x="45.433" y="619.862"/>
      <point x="38.6174" y="608.957" type="curve" smooth="yes"/>
      <point x="27.8023" y="591.652"/>
      <point x="12.1303" y="595.135"/>
    </contour>
  </outline>
</glyph>
<glyph name="m" format="2">
  <advance width="904"/>
  <unicode hex="006D"/>
  <outline>
    <contour>
      <point x="65" y="2" type="curve" smooth="yes"/>
      <point x="65" y="157.665"/>
      <point x="92.8892" y="316.792"/>
      <point x="175.609" y="447.401" type="curve" smooth="yes"/>
      <point x="210.644" y="502.144"/>
      <point x="259.516" y="553.411"/>
      <point x="324.984" y="558.959" type="curve" smooth="yes"/>
      <point x="409.727" y="565.562"/>
      <point x="486" y="499.669"/>
      <point x="486" y="374" type="curve" smooth="yes"/>
      <point x="486" y="2" type="line" smooth="yes"/>
      <point x="486" y="-25.7"/>
      <point x="474.85" y="-48"/>
      <point x="461" y="-48" type="curve" smooth="yes"/>
      <point x="447.15" y="-48"/>
      <point x="436" y="-25.7"/>
      <point x="436" y="2" type="curve" smooth="yes"/>
      <point x="436" y="374" type="line" smooth="yes"/>
      <point x="436" y="403.873"/>
      <point x="414.095" y="465.827"/>
      <point x="327.058" y="459.045" type="curve" smooth="yes"/>
      <point x="274.484" y="454.589"/>
      <point x="235.356" y="413.856"/>
      <point x="206.491" y="368.756" type="curve" smooth="yes"/>
      <point x="137.111" y="259.208"/>
      <point x="115" y="130.335"/>
      <point x="115" y="2" type="curve" smooth="yes"/>
      <point x="115" y="-25.7"/>
      <point x="103.85" y="-48"/>
      <point x="90" y="-48" type="curve" smooth="yes"/>
      <point x="76.15" y="-48"/>
      <point x="65" y="-25.7"/>
    </contour>
    <contour>
      <point x="0.0526" y="434.057" type="curve" smooth="yes"/>
      <point x="-11.4887" y="476.376"/>
      <point x="3.0829" y="519.155"/>
      <point x="19.493" y="535.926" type="curve" smooth="yes"/>
      <point x="30.2879" y="546.959"/>
      <point x="43.3256" y="552"/>
      <point x="56" y="552" type="curve" smooth="yes"/>
      <point x="71.0701" y="552"/>
      <point x="85.4705" y="544.978"/>
      <point x="96.4767" y="531.009" type="curve" smooth="yes"/>
      <point x="107.222" y="517.37"/>
      <point x="120.078" y="489.787"/>
      <point x="115" y="451.234" type="curve"/>
      <point x="115" y="2" type="line" smooth="yes"/>
      <point x="115" y="-25.7"/>
      <point x="103.85" y="-48"/>
      <point x="90" y="-48" type="curve" smooth="yes"/>
      <point x="76.15" y="-48"/>
      <point x="65" y="-25.7"/>
      <point x="65" y="2" type="curve" smooth="yes"/>
      <point x="65" y="450.027" type="line"/>
      <point x="63.1965" y="450.935"/>
      <point x="60.0501" y="452"/>
      <point x="56" y="452" type="curve" smooth="yes"/>
      <point x="52.0661" y="452"/>
      <point x="48.6933" y="451"/>
      <point x="46.69" y="449.936" type="curve"/>
      <point x="45.5538" y="435.692"/>
      <point x="41.1788" y="421.968"/>
      <point x="33.9713" y="414.105" type="curve" smooth="yes"/>
      <point x="21.8125" y="400.841"/>
      <point x="6.68475" y="409.74"/>
    </contour>
    <contour>
      <point x="436" y="2" type="curve" smooth="yes"/>
      <point x="436" y="157.761"/>
      <point x="463.931" y="316.995"/>
      <point x="547.609" y="447.401" type="curve" smooth="yes"/>
      <point x="582.644" y="502.144"/>
      <point x="631.516" y="553.411"/>
      <point x="696.984" y="558.959" type="curve" smooth="yes"/>
      <point x="781.724" y="565.562"/>
      <point x="858.618" y="499.685"/>
      <point x="858" y="373.754" type="curve"/>
      <point x="858" y="2" type="line" smooth="yes"/>
      <point x="858" y="-25.7"/>
      <point x="846.85" y="-48"/>
      <point x="833" y="-48" type="curve" smooth="yes"/>
      <point x="819.15" y="-48"/>
      <point x="808" y="-25.7"/>
      <point x="808" y="2" type="curve" smooth="yes"/>
      <point x="808" y="374.246" type="line"/>
      <point x="808.167" y="408.166"/>
      <point x="786.124" y="465.829"/>
      <point x="699.058" y="459.045" type="curve" smooth="yes"/>
      <point x="646.483" y="454.589"/>
      <point x="607.355" y="413.856"/>
      <point x="578.366" y="368.56" type="curve" smooth="yes"/>
      <point x="508.068" y="259.005"/>
      <point x="486" y="130.239"/>
      <point x="486" y="2" type="curve" smooth="yes"/>
      <point x="486" y="-25.7"/>
      <point x="474.85" y="-48"/>
      <point x="461" y="-48" type="curve" smooth="yes"/>
      <point x="447.15" y="-48"/>
      <point x="436" y="-25.7"/>
    </contour>
  </outline>
</glyph>
<glyph name="n" format="2">
  <advance width="569"/>
  <unicode hex="006E"/>
  <outline>
    <contour>
      <point x="66" y="2" type="curve" smooth="yes"/>
      <point x="66" y="156.886"/>
      <point x="87.0242" y="321.784"/>
      <point x="178.563" y="450.821" type="curve" smooth="yes"/>
      <point x="223.422" y="514.279"/>
      <point x="287.587" y="565.243"/>
      <point x="363.521" y="561.989" type="curve" smooth="yes"/>
      <point x="444.956" y="558.688"/>
      <point x="519.994" y="492.045"/>
      <point x="524" y="377.878" type="curve"/>
      <point x="524" y="2" type="line" smooth="yes"/>
      <point x="524" y="-25.7"/>
      <point x="512.85" y="-48"/>
      <point x="499" y="-48" type="curve" smooth="yes"/>
      <point x="485.15" y="-48"/>
      <point x="474" y="-25.7"/>
      <point x="474" y="2" type="curve" smooth="yes"/>
      <point x="474.002" y="373.389" type="line"/>
      <point x="471.993" y="401.486"/>
      <point x="436.424" y="459.013"/>
      <point x="362.464" y="462.011" type="curve" smooth="yes"/>
      <point x="298.413" y="464.757"/>
      <point x="244.578" y="421.721"/>
      <point x="207.403" y="369.131" type="curve" smooth="yes"/>
      <point x="132.976" y="264.216"/>
      <point x="116" y="135.114"/>
      <point x="116" y="2" type="curve" smooth="yes"/>
      <point x="116" y="-25.7"/>
      <point x="104.85" y="-48"/>
      <point x="91" y="-48" type="curve" smooth="yes"/>
      <point x="77.15" y="-48"/>
      <point x="66" y="-25.7"/>
    </contour>
    <contour>
      <point x="3.79448" y="419.991" type="curve" smooth="yes"/>
      <point x="-10.2585" y="453.718"/>
      <point x="-7.17569" y="501.291"/>
      <point x="13.4885" y="529.337" type="curve" smooth="yes"/>
      <point x="25.8002" y="546.047"/>
      <point x="42.0475" y="553"/>
      <point x="57" y="553" type="curve" smooth="yes"/>
      <point x="71.5379" y="553"/>
      <point x="85.2116" y="547.014"/>
      <point x="96.0558" y="535.251" type="curve" smooth="yes"/>
      <point x="110.015" y="520.108"/>
      <point x="128.568" y="483.872"/>
      <point x="116" y="439.631" type="curve"/>
      <point x="116" y="2" type="line" smooth="yes"/>
      <point x="116" y="-25.7"/>
      <point x="104.85" y="-48"/>
      <point x="91" y="-48" type="curve" smooth="yes"/>
      <point x="77.15" y="-48"/>
      <point x="66" y="-25.7"/>
      <point x="66" y="2" type="curve" smooth="yes"/>
      <point x="66" y="451.348" type="line"/>
      <point x="65.1331" y="451.734"/>
      <point x="61.793" y="453"/>
      <point x="57" y="453" type="curve" smooth="yes"/>
      <point x="52.8249" y="453"/>
      <point x="49.3588" y="451.921"/>
      <point x="47.9698" y="451.188" type="curve"/>
      <point x="48.1062" y="443.853"/>
      <point x="46.7009" y="426.416"/>
      <point x="39.0046" y="413.589" type="curve" smooth="yes"/>
      <point x="28.3647" y="395.856"/>
      <point x="12.661" y="398.711"/>
    </contour>
  </outline>
</glyph>
<glyph name="o" format="2">
  <advance width="505"/>
  <unicode hex="006F"/>
  <outline>
    <contour>
      <point x="439.012" y="254.165" type="curve" smooth="yes"/>
      <point x="440.542" y="148.618"/>
      <point x="370.054" y="37.7836"/>
      <point x="255.807" y="35.9985" type="curve" smooth="yes"/>
      <point x="138.605" y="34.2092"/>
      <point x="64.4525" y="146.189"/>
      <point x="65.9897" y="254.562" type="curve" smooth="yes"/>
      <point x="67.5427" y="360.94"/>
      <point x="142.516" y="467.786"/>
      <point x="255.802" y="466.002" type="curve" smooth="yes"/>
      <point x="368.8" y="464.194"/>
      <point x="436.723" y="356.417"/>
    </contour>
    <contour>
      <point x="488.984" y="257.843" type="curve" smooth="yes"/>
      <point x="485.503" y="419.656"/>
      <point x="395.473" y="563.77"/>
      <point x="256.198" y="565.998" type="curve" smooth="yes"/>
      <point x="114.834" y="568.225"/>
      <point x="18.4332" y="423.399"/>
      <point x="16.0104" y="257.439" type="curve" smooth="yes"/>
      <point x="13.5732" y="85.6182"/>
      <point x="110.627" y="-66.2209"/>
      <point x="256.193" y="-63.9985" type="curve" smooth="yes"/>
      <point x="399.587" y="-61.758"/>
      <point x="491.555" y="90.7308"/>
    </contour>
  </outline>
</glyph>
